<svg width="12" height="20" viewBox="0 0 12 20" fill="none" xmlns="http://www.w3.org/2000/svg">
<path id="Vector" d="M8.25005 0.875C7.02342 0.875 5.84704 1.36228 4.97968 2.22963C4.11232 3.09699 3.62505 4.27337 3.62505 5.5V8.075H1.15005C1.02605 8.075 0.925049 8.175 0.925049 8.3V11.7C0.925049 11.824 1.02505 11.925 1.15005 11.925H3.62505V18.9C3.62505 19.024 3.72505 19.125 3.85005 19.125H7.25005C7.37405 19.125 7.47505 19.025 7.47505 18.9V11.925H9.97205C10.075 11.925 10.165 11.855 10.19 11.755L11.04 8.355C11.0484 8.32182 11.0491 8.28717 11.0421 8.25369C11.035 8.22021 11.0204 8.18877 10.9994 8.16178C10.9784 8.13478 10.9515 8.11293 10.9208 8.09789C10.89 8.08286 10.8563 8.07503 10.822 8.075H7.47505V5.5C7.47505 5.39823 7.49509 5.29745 7.53404 5.20342C7.57299 5.10939 7.63008 5.02396 7.70204 4.95199C7.77401 4.88003 7.85944 4.82294 7.95347 4.78399C8.0475 4.74505 8.14827 4.725 8.25005 4.725H10.85C10.974 4.725 11.075 4.625 11.075 4.5V1.1C11.075 0.976 10.975 0.875 10.85 0.875H8.25005Z" fill="white"/>
</svg>
