<svg width="20" height="18" viewBox="0 0 20 18" fill="none" xmlns="http://www.w3.org/2000/svg">
<path id="Vector" d="M4.46997 2.00002C4.46971 2.53046 4.25874 3.03906 3.88348 3.41394C3.50822 3.78883 2.9994 3.99929 2.46897 3.99902C1.93854 3.99876 1.42994 3.78779 1.05505 3.41253C0.680165 3.03727 0.469706 2.52846 0.469971 1.99802C0.470236 1.46759 0.681204 0.958988 1.05646 0.584103C1.43172 0.209218 1.94054 -0.00124153 2.47097 -0.000976312C3.0014 -0.000711096 3.51001 0.210257 3.88489 0.585517C4.25978 0.960777 4.47024 1.46959 4.46997 2.00002ZM4.52997 5.48002H0.529971V18H4.52997V5.48002ZM10.85 5.48002H6.86997V18H10.81V11.43C10.81 7.77002 15.58 7.43002 15.58 11.43V18H19.53V10.07C19.53 3.90002 12.47 4.13002 10.81 7.16002L10.85 5.48002Z" fill="white"/>
</svg>
