  <svg xmlns="http://www.w3.org/2000/svg" width="40" height="40" fill="none">
    <path
      d="M20 3.33325C29.205 3.33325 36.6667 10.7949 36.6667 19.9999C36.6667 29.2049 29.205 36.6666 20 36.6666C10.795 36.6666 3.33333 29.2049 3.33333 19.9999C3.33333 10.7949 10.795 3.33325 20 3.33325ZM20 9.99992C19.558 9.99992 19.134 10.1755 18.8215 10.4881C18.5089 10.8006 18.3333 11.2246 18.3333 11.6666V19.9999C18.3334 20.4419 18.5091 20.8658 18.8217 21.1783L23.8217 26.1783C24.136 26.4818 24.557 26.6498 24.994 26.646C25.431 26.6422 25.849 26.467 26.158 26.1579C26.467 25.8489 26.6423 25.4309 26.6461 24.9939C26.6499 24.5569 26.4819 24.1359 26.1783 23.8216L21.6667 19.3099V11.6666C21.6667 11.2246 21.4911 10.8006 21.1785 10.4881C20.8659 10.1755 20.442 9.99992 20 9.99992Z"
      fill="#3282B8"
    />
  </svg>