  <svg
    xmlns="http://www.w3.org/2000/svg"
    width="40"
    height="40"
    viewBox="0 0 40 40"
    fill="none"
  >
    <path
      d="M13.5 18C15.2239 18 16.8772 17.3152 18.0962 16.0962C19.3152 14.8772 20 13.2239 20 11.5C20 9.77609 19.3152 8.12279 18.0962 6.90381C16.8772 5.68482 15.2239 5 13.5 5C11.7761 5 10.1228 5.68482 8.90381 6.90381C7.68482 8.12279 7 9.77609 7 11.5C7 13.2239 7.68482 14.8772 8.90381 16.0962C10.1228 17.3152 11.7761 18 13.5 18ZM34 13C34 14.3261 33.4732 15.5979 32.5355 16.5355C31.5979 17.4732 30.3261 18 29 18C27.6739 18 26.4021 17.4732 25.4645 16.5355C24.5268 15.5979 24 14.3261 24 13C24 11.6739 24.5268 10.4021 25.4645 9.46447C26.4021 8.52678 27.6739 8 29 8C30.3261 8 31.5979 8.52678 32.5355 9.46447C33.4732 10.4021 34 11.6739 34 13ZM18 29C18 25.592 19.55 22.544 21.986 20.526C21.3811 20.1807 20.6965 19.9994 20 20H7C5.93913 20 4.92172 20.4214 4.17157 21.1716C3.42143 21.9217 3 22.9391 3 24C3 24 3 32 13.5 32C15.406 32 16.966 31.736 18.242 31.306C18.0803 30.548 17.9992 29.775 18 29ZM20 29C20 31.3869 20.9482 33.6761 22.636 35.364C24.3239 37.0518 26.6131 38 29 38C31.3869 38 33.6761 37.0518 35.364 35.364C37.0518 33.6761 38 31.3869 38 29C38 26.6131 37.0518 24.3239 35.364 22.636C33.6761 20.9482 31.3869 20 29 20C26.6131 20 24.3239 20.9482 22.636 22.636C20.9482 24.3239 20 26.6131 20 29ZM33 23C33.2652 23 33.5196 23.1054 33.7071 23.2929C33.8946 23.4804 34 23.7348 34 24V27C34 27.2652 33.8946 27.5196 33.7071 27.7071C33.5196 27.8946 33.2652 28 33 28H30C29.7348 28 29.4804 27.8946 29.2929 27.7071C29.1054 27.5196 29 27.2652 29 27C29 26.7348 29.1054 26.4804 29.2929 26.2929C29.4804 26.1054 29.7348 26 30 26H30.936C30.1763 25.5795 29.3004 25.4177 28.4406 25.5389C27.5808 25.6602 26.7838 26.0579 26.17 26.672C25.98 26.8466 25.7299 26.941 25.4719 26.9355C25.2139 26.93 24.968 26.8249 24.7857 26.6423C24.6034 26.4597 24.4987 26.2137 24.4935 25.9557C24.4883 25.6977 24.5831 25.4477 24.758 25.258C25.6918 24.3241 26.9077 23.7244 28.2171 23.552C29.5265 23.3795 30.8562 23.6438 32 24.304V24C32 23.7348 32.1054 23.4804 32.2929 23.2929C32.4804 23.1054 32.7348 23 33 23ZM31.248 34.064C30.4028 34.4053 29.4909 34.5496 28.5815 34.4859C27.6722 34.4221 26.7893 34.152 26 33.696V34C26 34.2652 25.8946 34.5196 25.7071 34.7071C25.5196 34.8946 25.2652 35 25 35C24.7348 35 24.4804 34.8946 24.2929 34.7071C24.1054 34.5196 24 34.2652 24 34V31C24 30.7348 24.1054 30.4804 24.2929 30.2929C24.4804 30.1054 24.7348 30 25 30H28C28.2652 30 28.5196 30.1054 28.7071 30.2929C28.8946 30.4804 29 30.7348 29 31C29 31.2652 28.8946 31.5196 28.7071 31.7071C28.5196 31.8946 28.2652 32 28 32H27.064C27.164 32.056 27.2673 32.1073 27.374 32.154C28.1129 32.4827 28.9341 32.5797 29.7292 32.4323C30.5243 32.2848 31.2561 31.8998 31.828 31.328C32.0166 31.1458 32.2692 31.045 32.5314 31.0473C32.7936 31.0496 33.0444 31.1548 33.2298 31.3402C33.4152 31.5256 33.5204 31.7764 33.5227 32.0386C33.525 32.3008 33.4242 32.5534 33.242 32.742C32.674 33.312 31.994 33.764 31.248 34.064Z"
      fill="#3282B8"
    />
  </svg>