<svg
    xmlns="http://www.w3.org/2000/svg"
    width="40"
    height="40"
    viewBox="0 0 40 40"
    fill="none"
>
    <path
      d="M32.3666 6.38349L20.4 3.33349C20.2677 3.30941 20.1322 3.30941 20 3.33349C19.8895 3.31681 19.7771 3.31681 19.6666 3.33349L7.6333 6.38349C6.87032 6.57395 6.19925 7.02803 5.73871 7.66547C5.27818 8.3029 5.05783 9.08263 5.11664 9.86682L5.81664 19.0502C6.09699 22.693 7.36988 26.1895 9.49714 29.1601C11.6244 32.1306 14.5247 34.4616 17.8833 35.9002L19.35 36.5335C19.5348 36.6105 19.7331 36.6502 19.9333 36.6502C20.1335 36.6502 20.3318 36.6105 20.5166 36.5335L21.9833 35.9002C25.3419 34.4616 28.2422 32.1306 30.3695 29.1601C32.4967 26.1895 33.7696 22.693 34.05 19.0502L34.75 9.86682C34.8157 9.10036 34.6142 8.33478 34.1798 7.69989C33.7454 7.06501 33.1048 6.59992 32.3666 6.38349ZM26.1833 16.1835L19.5166 22.8502C19.3617 23.0064 19.1774 23.1304 18.9743 23.215C18.7712 23.2996 18.5533 23.3431 18.3333 23.3431C18.1133 23.3431 17.8954 23.2996 17.6923 23.215C17.4892 23.1304 17.3049 23.0064 17.15 22.8502L13.8166 19.5168C13.5028 19.203 13.3265 18.7773 13.3265 18.3335C13.3265 17.8896 13.5028 17.464 13.8166 17.1502C14.1305 16.8363 14.5561 16.66 15 16.66C15.4438 16.66 15.8695 16.8363 16.1833 17.1502L18.3333 19.3168L23.8166 13.8168C24.1305 13.503 24.5561 13.3267 25 13.3267C25.4438 13.3267 25.8695 13.503 26.1833 13.8168C26.4971 14.1307 26.6735 14.5563 26.6735 15.0002C26.6735 15.444 26.4971 15.8696 26.1833 16.1835Z"
      fill="#3282B8"
    />
</svg>