<svg xmlns="http://www.w3.org/2000/svg" width="50" height="50" fill="none">
    <path
        d="M23.7594 41.4594L23.0875 43.6688C14.4344 42.9031 9.375 37 9.375 31.25V29.6875C9.375 28.4443 9.86886 27.252 10.7479 26.3729C11.627 25.4939 12.8193 25 14.0625 25H28.25C26.4935 26.2321 25.0599 27.8695 24.0709 29.7735C23.0819 31.6775 22.5666 33.792 22.5688 35.9375C22.5688 37.9062 22.9938 39.775 23.7594 41.4594ZM25 4.6875C27.2792 4.6875 29.4651 5.59291 31.0767 7.20455C32.6883 8.81619 33.5938 11.002 33.5938 13.2812C33.5938 15.5605 32.6883 17.7463 31.0767 19.3579C29.4651 20.9696 27.2792 21.875 25 21.875C22.7208 21.875 20.5349 20.9696 18.9233 19.3579C17.3117 17.7463 16.4062 15.5605 16.4062 13.2812C16.4062 11.002 17.3117 8.81619 18.9233 7.20455C20.5349 5.59291 22.7208 4.6875 25 4.6875ZM46.875 35.9375C46.8755 37.8415 46.3789 39.7127 45.4344 41.366C44.4899 43.0193 43.1302 44.3973 41.4897 45.3639C39.8492 46.3304 37.9848 46.852 36.0809 46.8769C34.1771 46.9019 32.2996 46.4294 30.6344 45.5063L26.2844 46.8281C26.112 46.8808 25.9285 46.8855 25.7536 46.8419C25.5787 46.7982 25.419 46.7078 25.2915 46.5804C25.164 46.4529 25.0736 46.2932 25.03 46.1183C24.9864 45.9434 24.9911 45.7599 25.0437 45.5875L26.3687 41.2406C25.5602 39.7803 25.0967 38.1544 25.0136 36.4873C24.9305 34.8202 25.23 33.1562 25.8893 31.6227C26.5486 30.0892 27.5501 28.727 28.8171 27.6404C30.0841 26.5537 31.583 25.7715 33.199 25.3536C34.8151 24.9357 36.5053 24.8932 38.1402 25.2293C39.7752 25.5655 41.3116 26.2714 42.6316 27.293C43.9516 28.3146 45.0203 29.6247 45.7559 31.1231C46.4914 32.6215 46.8742 34.2683 46.875 35.9375ZM32.8125 31.25C32.3981 31.25 32.0007 31.4146 31.7076 31.7076C31.4146 32.0007 31.25 32.3981 31.25 32.8125C31.25 33.2269 31.4146 33.6243 31.7076 33.9174C32.0007 34.2104 32.3981 34.375 32.8125 34.375H39.0625C39.4769 34.375 39.8743 34.2104 40.1674 33.9174C40.4604 33.6243 40.625 33.2269 40.625 32.8125C40.625 32.3981 40.4604 32.0007 40.1674 31.7076C39.8743 31.4146 39.4769 31.25 39.0625 31.25H32.8125ZM31.25 39.0625C31.25 39.4769 31.4146 39.8743 31.7076 40.1674C32.0007 40.4604 32.3981 40.625 32.8125 40.625H35.9375C36.3519 40.625 36.7493 40.4604 37.0424 40.1674C37.3354 39.8743 37.5 39.4769 37.5 39.0625C37.5 38.6481 37.3354 38.2507 37.0424 37.9576C36.7493 37.6646 36.3519 37.5 35.9375 37.5H32.8125C32.3981 37.5 32.0007 37.6646 31.7076 37.9576C31.4146 38.2507 31.25 38.6481 31.25 39.0625Z"
        fill="#3282B8"
    />
</svg>