<svg width="40" height="40" viewBox="0 0 40 40" fill="none" xmlns="http://www.w3.org/2000/svg">
<g id="alzheimer" clip-path="url(#clip0_157_1800)">
<g id="Group">
<path id="Vector" d="M17.9395 8.3031L13.2122 2.78795C12.8486 2.3637 12.4243 2.12128 11.8789 2.12128C11.3334 2.06067 10.8486 2.24249 10.4243 2.60613L10.3031 2.66673C9.57585 2.06067 8.66676 1.69704 7.69706 1.69704C5.51524 1.69704 3.75766 3.45461 3.75766 5.63643C3.75766 7.81825 5.51524 9.57582 7.69706 9.57582C9.45463 9.57582 10.9092 8.42431 11.394 6.84855L13.9395 9.81825L11.2728 11.3334H4.24251C2.42433 11.3334 0.90918 12.8486 0.90918 14.6667V23.1516C0.90918 24.0607 1.57585 24.9092 2.36373 25.1516C2.54554 25.2122 2.66676 25.2122 2.84857 25.2122C3.091 25.2122 3.33342 25.1516 3.51524 25.091C3.45463 26.0607 3.27282 26.8486 3.03039 28.0607L1.091 37.7576C0.787968 38.7879 1.27282 39.8789 2.30312 40.2425C3.33342 40.6061 4.48494 40.0607 4.84857 39.0304V38.9698C4.84857 38.8486 7.03039 28.7879 7.57585 26.0001C7.63645 25.8789 7.69706 25.7576 7.87888 25.7576C8.00009 25.7576 8.0607 25.8182 8.0607 25.8182C8.1213 25.8789 8.1213 25.9395 8.1213 26.0001V38.4243C8.1213 39.5152 8.96979 40.3637 10.0607 40.3637C11.1516 40.3637 12.0001 39.4546 12.0001 38.4243V15.394L17.2122 12.3637C17.8789 11.9395 18.3637 11.2728 18.4849 10.4849C18.7274 9.69704 18.4849 8.90916 17.9395 8.3031ZM7.69706 8.24249C6.18191 8.24249 4.96979 7.03037 4.96979 5.51522C4.96979 4.00007 6.18191 2.78795 7.69706 2.78795C9.1516 2.78795 10.3637 4.00007 10.3637 5.51522C10.4243 7.03037 9.21221 8.24249 7.69706 8.24249ZM38.4849 19.8789H28.788C28.6061 19.8789 28.4849 19.9395 28.3637 20.0607C28.2425 20.1819 28.1819 20.3031 28.1819 20.4849V23.2122C28.1819 23.394 28.2425 23.5152 28.3637 23.6364C28.4849 23.7576 28.6061 23.8182 28.788 23.8182C29.2122 23.8182 29.5758 24.0001 29.8183 24.2425C30.0607 24.4849 30.2425 24.9092 30.2425 25.2728C30.2425 25.6364 30.0607 26.0607 29.8183 26.3031C29.5758 26.5455 29.1516 26.7273 28.788 26.7273C28.6061 26.7273 28.4849 26.7879 28.3637 26.9092C28.2425 27.0304 28.1819 27.1516 28.1819 27.3334V29.4546H26.0607C25.8789 29.4546 25.7577 29.5152 25.6365 29.6364C25.5152 29.7576 25.4546 29.8789 25.4546 30.0607C25.4546 30.4849 25.3334 30.8486 25.0304 31.091C24.7274 31.394 24.3637 31.5152 24.0001 31.5152C23.5758 31.5152 23.2122 31.3334 22.9698 31.091C22.7274 30.8486 22.5455 30.4243 22.5455 30.0607C22.5455 29.7576 22.3031 29.4546 21.9395 29.4546H19.2122C19.0304 29.4546 18.9092 29.5152 18.788 29.6364C18.6668 29.7576 18.6061 29.8789 18.6061 30.0607V39.7576C18.6061 39.9395 18.6668 40.0607 18.788 40.1819C18.9092 40.3031 19.0304 40.3637 19.2122 40.3637H38.4849C38.8486 40.3637 39.091 40.0607 39.091 39.7576V20.4849C39.091 20.1819 38.788 19.8789 38.4849 19.8789ZM37.8789 39.2122H29.394V37.6364C29.8789 37.5152 30.3637 37.2728 30.6668 36.9092C31.1516 36.4243 31.4546 35.697 31.4546 35.0304C31.4546 34.0607 30.9698 33.2122 30.1819 32.7273C30.0001 32.6061 29.8183 32.5455 29.6365 32.4849C29.5758 32.4849 29.5152 32.4243 29.394 32.4243V30.8486H31.5152C31.6971 30.8486 31.8183 30.7879 31.9395 30.6667C32.0607 30.5455 32.1213 30.3637 32.1213 30.2425C32.1213 29.8182 32.3031 29.4546 32.5455 29.2122C32.8486 28.9092 33.2122 28.7879 33.5758 28.7879C33.9395 28.7879 34.3637 28.9092 34.6061 29.2122C34.9092 29.5152 35.0304 29.8789 35.0304 30.2425C35.0304 30.4243 35.091 30.5455 35.2122 30.6667C35.3334 30.7879 35.4546 30.8486 35.6365 30.8486H37.7577V39.2122H37.8789ZM36.3637 5.09098C34.1213 1.69704 29.6365 0.666733 26.1213 2.66673C23.091 4.3637 21.5758 7.87886 22.4243 11.2728L20.0001 14.9092C19.8789 15.091 19.8789 15.394 20.0001 15.5758C20.1213 15.7576 20.3637 15.8789 20.6061 15.8789L24.9092 15.3334C26.3637 16.5455 28.1819 17.2122 30.0001 17.2122C31.394 17.2122 32.788 16.8486 34.0001 16.1213C35.8183 15.0304 37.091 13.2728 37.5152 11.1516C37.9395 9.03037 37.5758 6.90916 36.3637 5.09098ZM29.6971 14.3031H29.6365C29.2728 14.3031 29.0304 14.0001 29.0304 13.697C29.0304 13.394 29.2728 13.091 29.6365 13.091H29.6971C30.0607 13.091 30.3031 13.394 30.3031 13.697C30.3031 14.0001 30.0607 14.3031 29.6971 14.3031ZM30.3031 10.1819V12.0001C30.3031 12.3637 30.0607 12.6061 29.6971 12.6061C29.3334 12.6061 29.091 12.3637 29.091 12.0001V9.63643C29.091 9.27279 29.3334 9.03037 29.6971 9.03037C30.5455 9.03037 31.2122 8.3637 31.2122 7.51522C31.2122 6.66673 30.5455 6.00007 29.6971 6.00007C29.1516 6.00007 28.6668 6.3031 28.3637 6.72734C28.1819 7.03037 27.8183 7.09098 27.5152 6.96976C27.2122 6.78795 27.1516 6.42431 27.2728 6.12128C27.8789 5.27279 28.788 4.72734 29.6971 4.72734C31.2122 4.72734 32.4243 5.93946 32.4243 7.45461C32.4849 8.78795 31.5758 9.87885 30.3031 10.1819Z" fill="white"/>
</g>
</g>
<defs>
<clipPath id="clip0_157_1800">
<rect width="40" height="40" fill="white"/>
</clipPath>
</defs>
</svg>
