<svg width="40" height="40" viewBox="0 0 40 40" fill="none" xmlns="http://www.w3.org/2000/svg">
<g id="bath" clip-path="url(#clip0_157_1743)">
<g id="Group">
<path id="Vector" d="M4.96261 38.178C4.60354 38.7165 4.74909 39.4441 5.28761 39.803C5.47966 39.9315 5.70553 40.0001 5.93659 40C6.31526 40 6.6869 39.8167 6.91268 39.478L7.80581 38.1383C7.08639 37.8227 6.39735 37.442 5.74729 37.0009L4.96261 38.178ZM34.253 37.0009C33.603 37.442 32.9139 37.8227 32.1945 38.1383L33.0876 39.478C33.3135 39.8167 33.6849 40 34.0637 40C34.2871 40 34.5129 39.9362 34.7127 39.803C35.2513 39.4441 35.3967 38.7165 35.0377 38.178L34.253 37.0009ZM2.42206 22.6673V26.3281C2.42206 32.1437 7.15339 36.875 12.9689 36.875H27.0314C32.847 36.875 37.5783 32.1437 37.5783 26.3281V25.6458H18.2144C12.7665 25.6458 7.46354 24.6441 2.42206 22.6673ZM6.32784 13.8116V4.29688C6.32784 3.21992 7.20401 2.34375 8.28097 2.34375H9.84347C10.9204 2.34375 11.7966 3.21992 11.7966 4.29688V4.85289C9.98503 5.37484 8.67159 7.075 8.67159 9.04961V9.375C8.67159 10.0222 9.19628 10.5469 9.84347 10.5469H16.0935C16.7407 10.5469 17.2653 10.0222 17.2653 9.375V8.98438C17.2653 7.02133 15.9417 5.3625 14.1403 4.85102V4.29688C14.1403 1.92758 12.2128 0 9.84347 0H8.28097C5.91167 0 3.98409 1.92758 3.98409 4.29688V12.8706C4.16981 12.9273 4.35198 12.9949 4.52964 13.0733C5.12193 13.3364 5.72158 13.5826 6.32784 13.8116ZM37.4316 18.3216H18.2144C13.1392 18.3216 8.21628 17.2767 3.58042 15.2162C2.32151 14.6585 0.851904 15.2235 0.293388 16.4799C-0.265127 17.7364 0.300654 19.2084 1.55714 19.767C6.83425 22.1129 12.438 23.302 18.2145 23.302H37.4317C38.8074 23.302 39.922 22.1874 39.922 20.8118C39.9218 19.4362 38.8072 18.3216 37.4316 18.3216Z" fill="white"/>
</g>
</g>
<defs>
<clipPath id="clip0_157_1743">
<rect width="40" height="40" fill="white"/>
</clipPath>
</defs>
</svg>
