<svg width="40" height="40" viewBox="0 0 40 40" fill="none" xmlns="http://www.w3.org/2000/svg">
<g id="continence" clip-path="url(#clip0_157_1776)">
<g id="Group 29">
<path id="Vector 20" d="M31.5 16.5V19H28V16.5H27.5L26.5 16L25.5 14.5L25 13L25.5 12.5H31.5V8H34.5V12.5H33V13V15L32.5 16L31.5 16.5Z" fill="#4D8FF2" fill-opacity="0.88"/>
<g id="Group 28">
<path id="Vector 19" d="M16.8333 29.7436V40H4.16667V29.7436L1 25.641V13.8462L6.27778 10.7692L7.86111 9.74359L6.27778 7.17949V3.07692L5.22222 0H13.1389L14.1944 1.53846V8.71795L13.1389 10.7692L20 13.8462V24.6154L16.8333 29.7436Z" fill="white"/>
<g id="Group">
<path id="Vector" d="M9.77539 34.6826H10.9484V40.0003H9.77539V34.6826Z" fill="#4D8FF2" fill-opacity="0.88"/>
<path id="Vector_2" d="M20.7234 23.8377V15.4391C20.7244 14.6572 20.4782 13.895 20.0201 13.2614C19.5619 12.6278 18.9151 12.1553 18.1722 11.9114L13.8326 10.4802C14.4731 9.70307 14.8583 8.70804 14.8583 7.62463V2.93255C14.8583 1.3155 13.5428 0 11.9257 0H4.02127L5.86511 4.60942V7.62456C5.86511 8.70796 6.25033 9.70299 6.8908 10.4802L2.55117 11.9113C1.80828 12.1552 1.16152 12.6278 0.703326 13.2613C0.245133 13.8949 -0.001037 14.6572 3.28351e-06 15.4391V23.8377C-0.00105251 24.7736 0.352272 25.6753 0.988938 26.3614L3.91007 29.5162V39.9999H5.08309V30.783L6.65596 32.4817C6.68427 32.5123 6.7132 32.542 6.74276 32.5709C6.37013 33.1138 5.96794 33.9639 6.29521 34.8145C6.46687 35.261 6.68677 35.5722 6.88071 35.8468C7.0852 36.1363 7.23293 36.3454 7.27953 36.6482C7.33717 37.023 7.22863 37.3143 7.0784 37.7174C6.92106 38.1394 6.72532 38.6644 6.72532 39.3743V39.9999H7.89834V39.3743C7.89834 38.876 8.03394 38.5123 8.17752 38.1272C8.34886 37.6676 8.54303 37.1467 8.43895 36.4699C8.35042 35.8943 8.07867 35.5096 7.83891 35.1701C7.66945 34.9303 7.50937 34.7036 7.39011 34.3935C7.2463 34.0196 7.50874 33.5171 7.75914 33.1684C7.98679 33.2355 8.2229 33.2695 8.46022 33.2693C9.11586 33.2693 9.7306 33.0149 10.1957 32.5498C10.254 32.4915 10.3094 32.4304 10.3618 32.3667C10.4136 32.4297 10.469 32.4909 10.528 32.5498C10.9932 33.0149 11.6077 33.2694 12.2635 33.2693C12.5008 33.2695 12.7369 33.2355 12.9645 33.1684C13.2149 33.517 13.4775 34.0196 13.3336 34.3935C13.2143 34.7036 13.0542 34.9302 12.8848 35.1701C12.645 35.5096 12.3733 35.8943 12.2847 36.4699C12.1806 37.1467 12.3748 37.6676 12.5462 38.1272C12.6897 38.5123 12.8253 38.876 12.8253 39.3743V39.9999H13.9984V39.3743C13.9984 38.6645 13.8026 38.1394 13.6453 37.7174C13.4951 37.3143 13.3864 37.023 13.4441 36.6482C13.4908 36.3454 13.6385 36.1363 13.843 35.8468C14.0369 35.5722 14.2568 35.261 14.4285 34.8145C14.7557 33.9638 14.3536 33.1137 13.9809 32.5709C14.0105 32.542 14.0394 32.5123 14.0677 32.4817L15.6406 30.783V39.9999H16.8136V29.5162L19.7347 26.3614C20.3712 25.6752 20.7244 24.7736 20.7234 23.8377ZM6.84872 3.90999L5.7539 1.17294H11.9257C12.896 1.17294 13.6852 1.96231 13.6852 2.93247V3.90999H6.84872ZM13.6852 5.08301V7.62456C13.6852 9.4572 12.1943 10.9481 10.3617 10.9481C8.52904 10.9481 7.03813 9.4572 7.03813 7.62456V5.08301H13.6852ZM9.3661 31.7203C9.11703 31.9694 8.78726 32.1031 8.43379 32.096C8.261 32.0933 8.09057 32.0555 7.93289 31.9848C7.77521 31.9141 7.63358 31.812 7.51664 31.6848L1.8497 25.5644C1.41406 25.095 1.1723 24.4781 1.17302 23.8377V19.7849H3.91007V24.1235L9.39199 29.9316C9.87191 30.4402 9.86057 31.2259 9.3661 31.7203ZM10.4784 29.1266C10.4379 29.1697 10.399 29.2143 10.3617 29.2602C10.3244 29.2143 10.2855 29.1697 10.245 29.1266L9.25177 28.0742H11.4716L10.4784 29.1266ZM19.5503 23.8377C19.5511 24.4781 19.3093 25.095 18.8737 25.5644L13.2067 31.6848C13.0898 31.812 12.9482 31.9141 12.7905 31.9848C12.6328 32.0555 12.4624 32.0933 12.2896 32.096C11.9349 32.1016 11.6063 31.9694 11.3573 31.7203C10.8628 31.2259 10.8515 30.4402 11.3314 29.9317L16.8133 24.1236V19.7849H19.5503V23.8377ZM19.5503 18.6118H16.8133V16.0703H15.6403V23.6574L12.5787 26.9012H8.14468L5.08309 23.6574V16.0703H3.91007V18.6118H1.17302V15.4391C1.17231 14.9041 1.34074 14.3826 1.65424 13.9491C1.96775 13.5156 2.41027 13.1923 2.91856 13.0255L7.89787 11.3833C8.60606 11.8491 9.45252 12.1211 10.3617 12.1211C11.2709 12.1211 12.1173 11.8491 12.8255 11.3833L17.8048 13.0255C18.3131 13.1923 18.7556 13.5156 19.0691 13.9491C19.3826 14.3826 19.551 14.9041 19.5503 15.4391V18.6118Z" fill="#4D8FF2" fill-opacity="0.88"/>
<path id="Vector_3" d="M10.3615 9.22756C10.7995 9.22756 11.2102 9.39131 11.5182 9.68864L12.333 8.84476C11.8052 8.3352 11.1051 8.05454 10.3615 8.05454C9.61798 8.05454 8.91784 8.3352 8.39014 8.84469L9.20492 9.68856C9.5128 9.39131 9.92351 9.22756 10.3615 9.22756ZM30.7721 3.20605C25.7054 3.20605 21.5834 7.32805 21.5834 12.3947C21.5834 17.4614 25.7054 21.5834 30.7721 21.5834C35.8387 21.5834 39.9607 17.4614 39.9607 12.3947C39.9607 7.32805 35.8387 3.20605 30.7721 3.20605ZM30.7721 20.4104C26.3522 20.4104 22.7564 16.8146 22.7564 12.3947C22.7564 7.97485 26.3522 4.37908 30.7721 4.37908C35.1919 4.37908 38.7877 7.97485 38.7877 12.3947C38.7877 16.8146 35.1919 20.4104 30.7721 20.4104Z" fill="#4D8FF2" fill-opacity="0.88"/>
<path id="Vector_4" d="M31.2024 11.574H24.9463V12.9425C24.9463 14.7911 26.3039 16.3282 28.0743 16.6103V19.0031H32.3754V16.5751C33.2769 16.3191 33.9394 15.489 33.9394 14.5065V12.747H35.5035V6.88191H31.2024V11.574ZM31.2024 17.8301H29.2474V16.6571H31.2024V17.8301ZM32.7664 14.5065C32.7664 15.0456 32.3279 15.4841 31.7889 15.4841H28.6608C27.2595 15.4841 26.1193 14.344 26.1193 12.9425V12.747H32.7664V14.5065ZM32.3754 8.05493H34.3304V11.574H32.3754V8.05493ZM19.7068 9.18885C20.7201 9.18885 21.5445 8.36445 21.5445 7.35111C21.5445 6.33778 20.7201 5.51338 19.7068 5.51338C18.6935 5.51338 17.8691 6.33778 17.8691 7.35111C17.8691 8.36445 18.6935 9.18885 19.7068 9.18885ZM19.7068 6.6864C20.0733 6.6864 20.3715 6.98459 20.3715 7.35111C20.3715 7.71764 20.0733 8.01583 19.7068 8.01583C19.3403 8.01583 19.0421 7.71764 19.0421 7.35111C19.0421 6.98459 19.3403 6.6864 19.7068 6.6864ZM15.9531 4.80957H17.1261V5.98259H15.9531V4.80957ZM22.522 29.2866H23.6951V32.4147H22.522V29.2866ZM22.522 33.5877H23.6951V34.7607H22.522V33.5877Z" fill="white"/>
<path id="Vector_5" d="M23.1083 27.2139C20.4133 27.2139 18.2207 29.4064 18.2207 32.1015C18.2207 34.7965 20.4133 36.989 23.1083 36.989C25.8033 36.989 27.9959 34.7965 27.9959 32.1015C27.9959 29.4064 25.8033 27.2139 23.1083 27.2139ZM23.1083 35.816C21.0601 35.816 19.3937 34.1496 19.3937 32.1015C19.3937 30.0533 21.0601 28.3869 23.1083 28.3869C25.1565 28.3869 26.8229 30.0533 26.8229 32.1015C26.8229 34.1496 25.1565 35.816 23.1083 35.816Z" fill="#4D8FF2" fill-opacity="0.88"/>
</g>
</g>
</g>
</g>
<defs>
<clipPath id="clip0_157_1776">
<rect width="40" height="40" fill="white"/>
</clipPath>
</defs>
</svg>
