<svg width="40" height="40" viewBox="0 0 40 40" fill="none" xmlns="http://www.w3.org/2000/svg">
<g id="dress" clip-path="url(#clip0_157_1736)">
<g id="Group">
<path id="Vector" d="M26.0091 13.4237C25.5648 13.0192 25.0602 12.5602 25 12.5C25 11.593 26.1674 9.67969 27.0521 8.24344L31.1426 6.60727C31.3298 6.53251 31.4835 6.39247 31.5754 6.21307C31.6673 6.03367 31.691 5.82706 31.6423 5.63148C31.4925 5.03742 30.7048 2.02555 29.7559 1.07742C28.7305 0.0521094 26.3086 8.07429e-09 25.8334 8.07429e-09C25.7239 -1.52303e-05 25.6156 0.0215389 25.5145 0.0634302C25.4134 0.105321 25.3215 0.166728 25.2441 0.244141C24.3848 1.10352 21.7676 3.33336 20 3.33336C18.2373 3.33336 15.6169 1.10273 14.7559 0.244141C14.5996 0.0878906 14.388 8.07429e-09 14.1666 8.07429e-09C13.6914 8.07429e-09 11.2695 0.0521094 10.2441 1.0775C9.29523 2.02555 8.5075 5.0375 8.35773 5.63156C8.309 5.82713 8.33276 6.03374 8.42463 6.21314C8.5165 6.39254 8.67025 6.53258 8.85742 6.60734L12.9479 8.24352C13.8325 9.67977 15.0004 11.5908 15.0195 12.3845C14.9398 12.5603 14.4352 13.0193 13.9909 13.4237C11.3005 15.8741 5 21.6121 5 37.5C4.99993 37.6095 5.02143 37.7179 5.06329 37.819C5.10514 37.9201 5.16653 38.012 5.24393 38.0894C5.32132 38.1668 5.41322 38.2282 5.51436 38.2701C5.6155 38.3119 5.7239 38.3334 5.83336 38.3334C9.27898 38.3334 10.9522 38.7273 12.7262 39.1447C14.5134 39.5655 16.3623 40 20 40C23.6377 40 25.4866 39.5654 27.2738 39.1447C29.0478 38.7272 30.721 38.3334 34.1666 38.3334C34.2761 38.3334 34.3845 38.3119 34.4856 38.2701C34.5868 38.2282 34.6787 38.1668 34.7561 38.0894C34.8335 38.012 34.8949 37.9201 34.9367 37.819C34.9786 37.7179 35.0001 37.6095 35 37.5C35 21.6121 28.6995 15.8741 26.0091 13.4237Z" fill="white"/>
</g>
</g>
<defs>
<clipPath id="clip0_157_1736">
<rect width="40" height="40" fill="white"/>
</clipPath>
</defs>
</svg>
