<svg width="40" height="40" viewBox="0 0 40 40" fill="none" xmlns="http://www.w3.org/2000/svg">
<g id="grooming" clip-path="url(#clip0_157_1750)">
<g id="Group">
<path id="Vector" d="M21.0776 28.1781L3.2584 2.49507L2.75488 5.27952C1.94004 9.79514 2.93098 14.3582 5.54597 18.1265L14.9994 31.752C14.274 33.5281 14.4236 35.6213 15.596 37.3113C17.4353 39.9618 21.0904 40.6304 23.75 38.7853C26.4038 36.9439 27.0655 33.2855 25.224 30.6301C24.2263 29.1934 22.6932 28.3648 21.0776 28.1781ZM22.4134 36.8606C20.8237 37.9638 18.6255 37.5689 17.5211 35.9746C16.4167 34.3829 16.8137 32.1877 18.4045 31.0824C19.9988 29.978 22.1936 30.375 23.2992 31.9659C24.4034 33.5601 24.0064 35.7549 22.4134 36.8606ZM20.7209 18.2205C23.3368 14.4518 24.328 9.8892 23.512 5.37319L23.0084 2.58914L14.5922 14.7198L18.8711 20.8862L20.7209 18.2205ZM7.46066 24.9982L5.19113 28.269C3.36371 28.4796 1.97426 29.3847 1.04372 30.7242C-0.798624 33.3782 -0.137297 37.0366 2.51778 38.8793C5.16449 40.7174 8.82753 40.0628 10.6717 37.4053C11.8445 35.7144 11.9931 33.6206 11.2674 31.8444L11.7389 31.1648L7.46066 24.9982ZM8.74698 36.0687C7.63917 37.6616 5.44191 38.0554 3.85348 36.9543C2.2602 35.8489 1.86442 33.6529 2.96879 32.0608C4.07473 30.4681 6.2616 30.0659 7.86105 31.1764C9.45401 32.2817 9.85112 34.4769 8.74698 36.0686V36.0687ZM36.4844 0H25.9375V2.34375H32.9687V4.68749H25.9375V7.03124H32.9687V9.37498H25.9375V11.7187H32.9687V14.0625H25.9375V16.4062H32.9687V18.75H25.9375V21.0937H32.9687V23.4375H25.9375V25.7812H32.9687V36.4843C32.9687 38.4228 34.5459 39.9999 36.4844 39.9999C38.4231 39.9999 40 38.4227 40 36.4843V3.51562C40 1.57711 38.4231 0 36.4844 0Z" fill="white"/>
</g>
</g>
<defs>
<clipPath id="clip0_157_1750">
<rect width="40" height="40" fill="white"/>
</clipPath>
</defs>
</svg>
