<svg width="40" height="40" viewBox="0 0 40 40" fill="none" xmlns="http://www.w3.org/2000/svg">
<g id="medication-reminder">
<g id="Group">
<path id="Vector" d="M22.5 16.25C23.3209 16.2483 24.134 16.4094 24.8921 16.7241C25.6503 17.0387 26.3385 17.5007 26.9169 18.0831L30.8444 22.0106L35.4732 17.3C36.316 16.4626 36.9844 15.4663 37.4396 14.3688C37.8948 13.2713 38.1278 12.0944 38.125 10.9062C38.125 8.4975 37.1844 6.23125 35.4769 4.52312C33.7694 2.815 31.5019 1.875 29.0938 1.875C26.6819 1.875 24.4125 2.81562 22.7044 4.52312L14.0557 13.1719L18.5463 17.6625C19.6598 16.7461 21.0579 16.2466 22.5 16.25ZM23.5825 5.4125C24.9957 3.99937 27.2132 3.125 29.375 3.125V4.375C27.5325 4.375 25.6538 5.10937 24.4725 6.29062L19.8232 11.0612L18.9275 10.1888L23.5825 5.4125ZM31.7875 24.7213L24.7213 31.7875L29.5919 36.6581C30.5382 37.6044 31.7932 38.125 33.125 38.125C34.4569 38.125 35.7119 37.6044 36.6582 36.6581C38.6063 34.71 38.6063 31.54 36.6582 29.5913L31.7875 24.7213ZM36.1244 35.3756L35.125 34.625C35.8669 33.6388 35.765 32.235 34.89 31.3594L32.0613 28.57L32.9388 27.68L35.7707 30.4725C37.0869 31.7881 37.2382 33.895 36.1244 35.3756ZM17.6638 18.5475L13.1725 14.0562L4.52315 22.7044C3.68124 23.5414 3.01368 24.5371 2.55913 25.6338C2.10459 26.7306 1.87206 27.9066 1.87503 29.0938C1.87503 31.5025 2.81565 33.7688 4.52315 35.4769C6.23065 37.185 8.49815 38.125 10.9063 38.125C13.3182 38.125 15.5875 37.1844 17.2957 35.4769L22.0107 30.8444L18.0832 26.9169C15.7969 24.6313 15.6575 20.9988 17.6638 18.5475ZM6.28565 24.4775C5.1094 25.6544 4.37503 27.5331 4.37503 29.375H3.12503C3.12503 27.2131 3.9994 24.9956 5.40753 23.5881L10.1888 18.9275L11.0613 19.8225L6.28565 24.4775Z" fill="white"/>
<path id="Vector_2" d="M26.0332 18.9669C25.087 18.0206 23.832 17.5 22.5001 17.5C21.1682 17.5 19.9132 18.0206 18.967 18.9669C17.0188 20.915 17.0188 24.085 18.967 26.0337L23.8376 30.9044L30.9038 23.8375L26.0332 18.9669Z" fill="white"/>
</g>
<path id="Vector_3" d="M8 14C11.3129 14 14 11.3129 14 8C14 4.68714 11.3129 2 8 2C4.68714 2 2 4.68714 2 8C2 11.3129 4.68714 14 8 14ZM7.57142 4.57143C7.57142 4.33571 7.76428 4.14285 8 4.14285C8.23572 4.14285 8.42858 4.33571 8.42858 4.57143V7.79429L10.4107 9.38001C10.595 9.52786 10.625 9.79785 10.4771 9.98214C10.4371 10.0324 10.3863 10.0729 10.3284 10.1008C10.2705 10.1286 10.2071 10.143 10.1428 10.1428C10.0486 10.1428 9.95427 10.1128 9.87501 10.0486L7.73216 8.33429C7.63144 8.25285 7.57145 8.13073 7.57145 8V4.57143H7.57142Z" fill="white"/>
</g>
</svg>
