<svg width="40" height="40" viewBox="0 0 40 40" fill="none" xmlns="http://www.w3.org/2000/svg">
<g id="mobility" clip-path="url(#clip0_157_1757)">
<g id="Group">
<path id="Vector" d="M35.7105 16.0732H33.0909C32.4266 16.0732 31.8881 16.6118 31.8881 17.2762V22.6501C32.7165 22.7659 33.5256 22.9923 34.2938 23.3234V18.4791H35.7106C36.3749 18.4791 36.9134 17.9406 36.9134 17.2761C36.9134 16.6118 36.3749 16.0732 35.7105 16.0732ZM23.0072 26.3748L19.7067 26.6654C19.307 26.7006 18.9311 26.8707 18.6408 27.1476C18.3504 27.4246 18.1629 27.792 18.1089 28.1896L16.779 37.977C16.6475 38.9452 17.3257 39.8367 18.2939 39.9682C19.261 40.0998 20.1535 39.4223 20.2851 38.4534C21.227 31.5216 21.1532 32.1039 21.1532 31.981C21.1533 29.8826 21.843 27.9425 23.0072 26.3748Z" fill="white"/>
<path id="Vector_2" d="M23.6905 13.0343C25.4879 13.0343 26.9449 11.5772 26.9449 9.77984C26.9449 7.98246 25.4879 6.52539 23.6905 6.52539C21.8931 6.52539 20.436 7.98246 20.436 9.77984C20.436 11.5772 21.8931 13.0343 23.6905 13.0343Z" fill="white"/>
<path id="Vector_3" d="M30.5759 23.9609C26.1541 23.9609 22.5566 27.5584 22.5566 31.9803C22.5566 36.4023 26.1541 39.9996 30.5759 39.9996C34.9978 39.9996 38.5953 36.4022 38.5953 31.9803C38.5953 27.5584 34.9977 23.9609 30.5759 23.9609ZM29.7034 26.0298V29.8211C29.5025 29.9027 29.314 30.0119 29.1433 30.1455L25.8622 28.2513C26.7935 27.0764 28.1529 26.2562 29.7034 26.0298ZM24.5615 31.9803C24.5612 31.2203 24.7058 30.4672 24.9875 29.7613L28.2696 31.6562C28.2389 31.8712 28.2389 32.0895 28.2696 32.3045L24.9875 34.1994C24.7058 33.4935 24.5612 32.7403 24.5615 31.9803ZM29.7034 35.9711V37.9306C28.1529 37.7043 26.7935 36.8841 25.8622 35.7092L29.1433 33.8149C29.3139 33.9487 29.5025 34.0579 29.7034 34.1394V35.9711ZM30.5759 32.5646C30.2537 32.5646 29.9916 32.3025 29.9916 31.9803C29.9916 31.6581 30.2537 31.396 30.5759 31.396C30.8981 31.396 31.1602 31.6581 31.1602 31.9803C31.1602 32.3025 30.8981 32.5646 30.5759 32.5646ZM31.4484 27.9895V26.0299C32.9989 26.2562 34.3583 27.0764 35.2896 28.2513L32.0085 30.1456C31.8379 30.0119 31.6493 29.9026 31.4484 29.8212V27.9895ZM31.4484 37.9307V34.1395C31.6509 34.0573 31.8391 33.9477 32.0086 33.815L35.2897 35.7093C34.3583 36.8841 32.9989 37.7043 31.4484 37.9307ZM36.1644 34.1991L32.8823 32.3042C32.913 32.0893 32.913 31.871 32.8823 31.6561L36.1644 29.7612C36.4461 30.467 36.5907 31.2201 36.5904 31.9802C36.5907 32.7402 36.4461 33.4933 36.1644 34.1991Z" fill="white"/>
<path id="Vector_4" d="M10.9021 6.50547C12.6986 6.50547 14.1549 5.04917 14.1549 3.25273C14.1549 1.4563 12.6986 0 10.9021 0C9.10571 0 7.64941 1.4563 7.64941 3.25273C7.64941 5.04917 9.10571 6.50547 10.9021 6.50547Z" fill="white"/>
<path id="Vector_5" d="M29.5771 15.7825C29.3321 14.5934 28.1694 13.8281 26.9804 14.0732L23.141 14.8644C21.9519 15.1094 21.1866 16.272 21.4317 17.461L21.4909 17.7487H22.1629L24.9205 16.0829L22.0859 19.223H17.3403C17.2512 18.7865 16.9803 18.3898 16.5604 18.1564L10.9514 15.0387L9.61716 11.0654L11.4661 13.7747L12.3387 14.2597L12.6336 10.6732C12.7412 9.36297 11.7665 8.21352 10.4562 8.10586L6.22559 7.75812C4.91536 7.65047 3.76591 8.62523 3.65825 9.93547L2.90653 22.1278L3.90356 28.6285L1.47278 37.4945C1.19575 38.5049 1.79028 39.5484 2.80059 39.8255C3.81052 40.1024 4.8545 39.5081 5.13153 38.4977L7.66903 29.2423C7.73942 28.9853 7.75497 28.7165 7.71458 28.4532L6.79348 22.4477L7.53145 22.5084L9.79419 28.6775L7.90395 37.6032C7.68692 38.628 8.34177 39.6348 9.36669 39.8519C10.3929 40.0691 11.3986 39.4129 11.6154 38.3891L13.6186 28.9297C13.6924 28.5809 13.6665 28.2183 13.5437 27.8835L11.6445 22.7054L11.8108 20.6836L8.22169 18.6887C7.73036 18.4155 6.91856 18.0904 6.86497 17.0573L6.6202 12.0717L8.14934 16.6259C8.27479 16.9996 8.53535 17.3129 8.87989 17.5044C15.5409 21.2068 15.061 20.9457 15.1904 20.9992C15.3297 21.6686 15.9228 22.1717 16.6335 22.1717H22.7411C23.1582 22.1717 23.556 21.9949 23.8355 21.6853L27.1092 18.0589L24.9298 22.6732C24.6404 23.2859 24.0317 23.6454 23.3963 23.6464L22.7411 23.6461H22.7062L23.2133 26.107C24.9415 23.9452 27.5995 22.5575 30.5759 22.5575C30.7097 22.5575 30.8426 22.561 30.975 22.5666L29.5771 15.7825Z" fill="white"/>
</g>
</g>
<defs>
<clipPath id="clip0_157_1757">
<rect width="40" height="40" fill="white"/>
</clipPath>
</defs>
</svg>
