<svg width="40" height="40" viewBox="0 0 40 40" fill="none" xmlns="http://www.w3.org/2000/svg">
<g id="overnight" clip-path="url(#clip0_157_1814)">
<g id="Group">
<path id="Vector" d="M9.375 17.5L10.625 14.375L13.125 13.125L10.625 11.875L9.375 8.75L8.125 11.875L5.625 13.125L8.125 14.375L9.375 17.5ZM16.25 10L17.8125 6.5625L20.625 5L17.8125 3.4375L16.25 0L14.6875 3.4375L11.875 5L14.6875 6.5625L16.25 10ZM19.375 12.2812C19.825 14.4437 21.1438 16.4125 23.1938 17.6187C27.0625 19.8938 32.0375 18.6063 34.3188 14.7375C36.5938 10.875 35.3062 5.89375 31.4375 3.61875C30.4639 3.0445 29.3806 2.68101 28.2577 2.55182C27.1348 2.42263 25.9973 2.5306 24.9187 2.86875C25.5683 2.99027 26.192 3.22284 26.7625 3.55625C29.525 5.18125 30.4438 8.7375 28.8188 11.5C27.1875 14.2625 23.6313 15.1813 20.875 13.5563C20.305 13.2212 19.7975 12.7898 19.375 12.2812ZM15 21.875V30H39.375C39.375 25.5125 35.7375 21.875 31.25 21.875H15Z" fill="white"/>
<path id="Vector_2" d="M11.25 27.5C13.3211 27.5 15 25.8211 15 23.75C15 21.6789 13.3211 20 11.25 20C9.17893 20 7.5 21.6789 7.5 23.75C7.5 25.8211 9.17893 27.5 11.25 27.5Z" fill="white"/>
<path id="Vector_3" d="M5 31.25V23.125C5 21.4 3.6 20 1.875 20H0.625V34.375H8.75C8.91576 34.375 9.07473 34.4408 9.19194 34.5581C9.30915 34.6753 9.375 34.8342 9.375 35C9.375 35.1658 9.30915 35.3247 9.19194 35.4419C9.07473 35.5592 8.91576 35.625 8.75 35.625H0.625V40H39.375V35.625H13.75C13.5842 35.625 13.4253 35.5592 13.3081 35.4419C13.1908 35.3247 13.125 35.1658 13.125 35C13.125 34.8342 13.1908 34.6753 13.3081 34.5581C13.4253 34.4408 13.5842 34.375 13.75 34.375H39.375V31.25H5ZM11.25 35.625C11.0842 35.625 10.9253 35.5592 10.8081 35.4419C10.6908 35.3247 10.625 35.1658 10.625 35C10.625 34.8342 10.6908 34.6753 10.8081 34.5581C10.9253 34.4408 11.0842 34.375 11.25 34.375C11.4158 34.375 11.5747 34.4408 11.6919 34.5581C11.8092 34.6753 11.875 34.8342 11.875 35C11.875 35.1658 11.8092 35.3247 11.6919 35.4419C11.5747 35.5592 11.4158 35.625 11.25 35.625Z" fill="white"/>
</g>
</g>
<defs>
<clipPath id="clip0_157_1814">
<rect width="40" height="40" fill="white"/>
</clipPath>
</defs>
</svg>
