<svg width="40" height="40" viewBox="0 0 40 40" fill="none" xmlns="http://www.w3.org/2000/svg">
<g id="respite">
<g id="Group">
<path id="Vector" d="M13.0077 20.7963C12.9765 20.7807 12.946 20.765 12.9147 20.7494C12.8929 20.7408 12.8726 20.7291 12.853 20.7182C12.2304 20.4236 11.4515 20.2307 10.6249 20.1736H10.614C10.5921 20.1736 10.5718 20.1736 10.5522 20.1689C10.2554 20.151 9.95459 20.151 9.65303 20.1689C9.75928 20.4721 9.82568 20.7869 9.84756 21.1057C9.88779 21.6141 9.81907 22.1252 9.646 22.6049C9.63506 22.6361 9.62178 22.665 9.60147 22.6932C9.43117 22.9452 9.33804 23.2414 9.3335 23.5455C9.32881 23.8471 9.41084 24.1455 9.57725 24.4096C9.74521 24.6729 9.98271 24.8721 10.2546 24.9963C10.5226 25.1158 10.8218 25.1627 11.1202 25.1205C11.2288 25.0963 11.3437 25.1182 11.439 25.1893L13.3015 26.6002C13.6496 26.3957 13.9592 26.1318 14.2163 25.8205C14.4421 25.5439 14.6241 25.2338 14.7452 24.9057L13.2351 24.3166C13.171 24.2922 13.1145 24.2513 13.0714 24.198C13.0283 24.1447 13.0002 24.081 12.9897 24.0132C12.9793 23.9455 12.9871 23.8762 13.0122 23.8124C13.0373 23.7486 13.0789 23.6927 13.1327 23.6502C13.7038 23.201 14.0054 22.7799 14.0983 22.3986C14.1733 22.0994 14.1069 21.8158 13.9366 21.5611C13.7452 21.2721 13.4194 21.0127 13.0077 20.7963ZM11.0038 19.4299C11.5929 19.4939 12.1577 19.6229 12.6624 19.8018V5.02598H11.0038V19.4299ZM8.88193 20.3354C8.871 20.3221 8.85772 20.3064 8.84834 20.2908C8.65772 19.9986 8.31475 19.7994 7.85615 19.6666C7.48193 19.558 7.03428 19.4939 6.53662 19.4627C7.0374 20.9244 7.03896 22.1049 7.03896 23.0705C7.04131 24.326 7.04131 25.1635 8.44287 25.7299C8.89089 25.9085 9.37774 25.9672 9.85537 25.9002C9.9835 25.8822 10.1101 25.8557 10.2366 25.8182C10.1327 25.7893 10.0327 25.7518 9.93584 25.7072C9.51921 25.5196 9.16667 25.2141 8.92178 24.8283C8.67178 24.4338 8.5499 23.9846 8.55381 23.5369C8.56006 23.1049 8.68428 22.6775 8.92568 22.301C9.05225 21.9314 9.09834 21.5439 9.06943 21.1627C9.05068 20.8799 8.98584 20.601 8.88193 20.3354ZM7.09521 28.0174V32.7189H13.8429L7.09521 28.0174ZM6.91318 26.9416C6.92412 26.9463 6.9335 26.9525 6.94209 26.9619L15.2358 32.74L17.2866 32.8002L12.864 27.4166C12.8085 27.3479 12.7772 27.2635 12.7757 27.1822L11.396 26.1369C10.9636 26.4192 10.4745 26.603 9.96318 26.6752C9.35187 26.7609 8.72877 26.6846 8.15615 26.4541C6.30225 25.7057 6.26475 24.6846 6.2624 23.1658L4.71475 22.1846L3.00928 24.2221L6.91318 26.9416ZM19.1976 5.94082H13.4421V7.12363H19.1976V5.94082ZM19.6585 16.9979L18.8304 16.3158C18.7038 16.2119 18.6046 16.0924 18.5312 15.9596C18.4577 15.8244 18.4116 15.6736 18.3937 15.5143C18.3538 15.1596 18.5046 14.8143 18.7593 14.5439C18.8897 14.4041 19.0538 14.283 19.2351 14.1893C19.3679 14.1205 19.5116 14.0674 19.6577 14.0361V12.0432C19.6577 11.9479 19.6179 11.8619 19.5562 11.7994C19.4944 11.7369 19.4077 11.6994 19.3147 11.6994H15.528C15.4351 11.6994 15.3483 11.7369 15.2866 11.7994C15.2249 11.8619 15.1851 11.9479 15.1851 12.0432V18.8018C15.1851 18.8971 15.2249 18.9814 15.2866 19.0455C15.3483 19.1072 15.4351 19.1455 15.528 19.1455H19.3147C19.4077 19.1455 19.4944 19.108 19.5562 19.0455C19.6179 18.9814 19.6577 18.8971 19.6577 18.8018V16.9979H19.6585ZM20.5554 16.7299L21.3968 15.8994L20.3718 14.9291C20.2792 14.8425 20.1593 14.7908 20.0327 14.783C20.0265 14.783 20.0194 14.783 20.0124 14.7807C19.9749 14.7807 19.939 14.7807 19.9015 14.7854C19.7929 14.7963 19.6866 14.8322 19.589 14.883C19.489 14.9338 19.3983 15.0002 19.3257 15.0775C19.2194 15.1908 19.1577 15.3166 19.1687 15.4275C19.1757 15.4854 19.1929 15.5385 19.2171 15.5846C19.2444 15.6334 19.2804 15.6768 19.3233 15.7127L20.2687 16.4947C20.289 16.508 20.3038 16.5213 20.3218 16.5369L20.5554 16.7299ZM30.7819 11.4525L30.7554 11.3861C30.7304 11.3361 30.7167 11.2812 30.7152 11.2254C30.7137 11.1695 30.7245 11.114 30.7468 11.0627C30.8866 10.7369 30.9218 10.383 30.8616 10.0463C30.8038 9.71191 30.6491 9.39316 30.4054 9.13613C30.167 8.8826 29.86 8.70398 29.5218 8.62207C29.196 8.54473 28.846 8.55801 28.5163 8.67285C28.4827 8.68848 28.4452 8.69707 28.4077 8.69941C27.9093 8.74785 27.4155 8.70176 26.946 8.57129C26.5236 8.45185 26.1234 8.26479 25.7608 8.01738C25.3202 9.36191 25.2429 10.79 25.5015 11.8814C25.6233 12.3908 25.8179 12.8182 26.0796 13.1104C26.3163 13.3736 26.6155 13.5268 26.9702 13.5291C27.4132 13.5338 27.9577 13.3189 28.6093 12.8205C28.6498 12.7895 28.6961 12.7668 28.7454 12.7537C28.7948 12.7406 28.8462 12.7374 28.8968 12.7442C28.9474 12.751 28.9961 12.7678 29.0402 12.7934C29.0843 12.8191 29.1229 12.8533 29.1538 12.8939C29.1983 12.9518 29.2249 13.0182 29.2312 13.0846H29.2335L29.3905 14.3643C30.2233 13.9236 30.978 13.6424 31.6562 13.5229L30.7819 11.4525ZM31.6702 10.4072C31.7788 10.2432 31.8718 10.0682 31.9444 9.88691C32.1483 9.39316 32.221 8.84629 32.1483 8.29941C31.9179 6.60488 31.003 6.37285 29.6351 6.02285C28.5851 5.75723 27.3007 5.4291 25.846 4.46582C25.7327 5.0416 25.6757 5.56426 25.6913 6.01582C25.7093 6.55801 25.8327 6.99004 26.103 7.28223C26.114 7.29316 26.1249 7.30645 26.1343 7.31973L26.1429 7.33066C26.453 7.5541 26.796 7.71816 27.1569 7.81973C27.5226 7.92129 27.9054 7.95957 28.2905 7.92832C28.7465 7.77567 29.2362 7.75428 29.7038 7.8666C30.1895 7.98229 30.6306 8.23789 30.9726 8.60176C31.3226 8.97129 31.546 9.42988 31.6327 9.9127C31.6608 10.0752 31.6741 10.2416 31.6702 10.4072ZM28.4054 19.3854L30.5202 18.165C30.7062 18.0564 30.9452 18.1205 31.0515 18.3064C31.1601 18.4924 31.096 18.7291 30.9101 18.8377L28.9991 19.9408L29.2249 25.7275L34.9163 25.626C35.5007 20.5971 35.3257 17.2307 34.3694 15.5119C33.4788 13.9174 31.7983 13.8557 29.3022 15.3041L29.2976 15.3064L25.6655 18.0213V18.0189C25.6041 18.0656 25.53 18.0927 25.4529 18.0966C25.3758 18.1005 25.2994 18.081 25.2335 18.0408L22.1905 16.2119L20.7491 17.6291L24.5116 20.4549C24.7999 20.6697 25.1007 20.8111 25.3999 20.8471C25.6593 20.8807 25.9179 20.8314 26.1702 20.6854L28.4054 19.3854ZM36.1741 30.115L35.3366 30.0572C35.321 30.0596 35.3054 30.0596 35.2882 30.0596C35.253 30.0596 35.2194 30.0549 35.1882 30.0463L34.5507 30.0041V32.451H36.0983C36.5944 32.4486 36.9241 32.183 37.0835 31.833C37.1569 31.6736 37.1968 31.4986 37.203 31.3213C37.2077 31.1416 37.1812 30.9627 37.1187 30.7986C36.9851 30.4385 36.6726 30.1479 36.1741 30.115ZM29.2429 28.8572L31.8937 29.0385V28.1502C31.8937 27.9354 32.0687 27.7603 32.2835 27.7603C32.5007 27.7603 32.6757 27.9354 32.6757 28.1502V29.0939L34.1858 29.1955L34.8991 29.2439V26.4049L29.2429 26.5049V28.8572ZM33.7694 29.9486L32.2788 29.8471C32.2632 29.8471 32.2476 29.8471 32.2343 29.8447L28.846 29.6119C28.8304 29.6119 28.8147 29.6119 28.8015 29.6096L22.9835 29.2111V31.9791L23.7608 32.4549L33.7687 32.4502V29.9486H33.7694ZM24.1601 33.7533L19.7108 31.1846L18.7694 32.8119L23.0968 35.64C23.4999 35.9033 23.8921 35.8549 24.1796 35.6486C24.3101 35.5533 24.4257 35.4275 24.5116 35.283C24.5999 35.1369 24.6624 34.9729 24.6866 34.8072C24.7452 34.4221 24.6054 34.0104 24.1601 33.7533ZM20.0038 30.4541L22.2054 31.7229V28.7486C20.6929 27.2275 19.3421 26.1533 18.1546 25.5268C17.1694 25.0064 16.3077 24.7978 15.5679 24.9064C15.4194 25.4135 15.1624 25.8939 14.8171 26.315C14.5133 26.6863 14.1478 27.0023 13.7366 27.2494L18.0507 32.5025L19.2155 30.4869L17.1116 27.9354C16.9741 27.7689 16.9983 27.5236 17.1647 27.3885C17.3312 27.251 17.5765 27.2752 17.7116 27.4416L19.9241 30.1236C20.0038 30.2189 20.028 30.3408 20.0038 30.4541ZM17.0319 11.5346V7.28691H17.814V11.5346H17.4218H17.0319Z" fill="white"/>
</g>
</g>
</svg>
