<svg width="40" height="40" viewBox="0 0 40 40" fill="none" xmlns="http://www.w3.org/2000/svg">
<g id="toilete" clip-path="url(#clip0_157_1768)">
<g id="Group">
<path id="Vector" d="M20.0049 19.2236V12.6562H22.3486V19.2236H29.419V14.9072H25.8839V11.0312C25.8839 9.89125 25.4787 8.84594 24.8043 8.03148C26.454 7.495 27.6464 5.94492 27.6464 4.11625C27.6465 1.84289 25.8036 0 23.5303 0C21.257 0 19.4141 1.84289 19.4141 4.11625C19.4141 4.97867 19.6793 5.77906 20.1326 6.44047C18.0355 6.91547 16.4698 8.79055 16.4698 11.0313V19.2237H20.0049V19.2236ZM7.05566 27.6562H23.5303V30.3759H7.05566V27.6562ZM31.7628 19.2236H34.2433C34.8789 18.8022 35.2979 18.0804 35.2979 17.2607C35.2979 15.9609 34.2443 14.9072 32.9444 14.9072H31.7628V19.2236Z" fill="white"/>
<path id="Vector_2" d="M32.9443 37.6562V21.5673H16.4697V25.3125H28.2373V37.6562H21.1767V35.2954L22.4652 32.7197H8.12062L9.40914 35.2954V37.6562H0V40H40V37.6562H32.9443ZM4.70211 7.05078H11.7627V25.3125H4.70211V7.05078Z" fill="white"/>
</g>
</g>
<defs>
<clipPath id="clip0_157_1768">
<rect width="40" height="40" fill="white"/>
</clipPath>
</defs>
</svg>
