<svg xmlns="http://www.w3.org/2000/svg" width="46" height="46" fill="none">
    <path
      fillRule="evenodd"
      clipRule="evenodd"
      d="M15.3936 7.95799C15.3936 5.94064 16.195 4.00592 17.6215 2.57943C19.0479 1.15295 20.9827 0.351563 23 0.351562C25.0174 0.351563 26.9521 1.15295 28.3786 2.57943C29.805 4.00592 30.6064 5.94064 30.6064 7.95799C30.6064 9.97534 29.805 11.9101 28.3786 13.3366C26.9521 14.763 25.0174 15.5644 23 15.5644C20.9827 15.5644 19.0479 14.763 17.6215 13.3366C16.195 11.9101 15.3936 9.97534 15.3936 7.95799ZM8.03687 20.4174C9.58525 18.9475 11.6388 18.128 13.7737 18.128C15.9087 18.128 17.9622 18.9475 19.5106 20.4174L19.5434 20.4503L23 23.9069L26.4599 20.4503L26.4927 20.4174C28.0408 18.9495 30.0929 18.1312 32.2263 18.1312C34.3597 18.1312 36.4118 18.9495 37.9599 20.4174C38.728 21.1472 39.3397 22.0254 39.7581 22.9988C40.1765 23.9722 40.3927 25.0204 40.3936 26.0799C40.3945 27.1394 40.1801 28.188 39.7635 29.1621C39.3468 30.1362 38.7365 31.0155 37.9697 31.7466L24.1434 45.1851C23.8368 45.4832 23.426 45.65 22.9984 45.65C22.5707 45.65 22.1599 45.4832 21.8533 45.1851L8.0303 31.7466C7.26378 31.0157 6.6537 30.1368 6.23705 29.1632C5.82041 28.1895 5.60589 27.1413 5.60651 26.0822C5.60712 25.0232 5.82286 23.9752 6.24063 23.002C6.6584 22.0288 7.2695 21.1474 8.03687 20.4174Z"
      fill="#3282B8"
    />
</svg>