  <svg xmlns="http://www.w3.org/2000/svg" width="40" height="40" fill="none">
    <path
      d="M12.1429 13.5715C13.5637 13.5715 14.9263 13.0071 15.9309 12.0024C16.9356 10.9977 17.5 9.63512 17.5 8.21432C17.5 6.79352 16.9356 5.43091 15.9309 4.42625C14.9263 3.42159 13.5637 2.85718 12.1429 2.85718C10.7221 2.85718 9.35945 3.42159 8.35479 4.42625C7.35013 5.43091 6.78572 6.79352 6.78572 8.21432C6.78572 9.63512 7.35013 10.9977 8.35479 12.0024C9.35945 13.0071 10.7221 13.5715 12.1429 13.5715ZM2.85715 18.5457C2.85715 16.9815 4.12429 15.7143 5.68858 15.7143H13.6886C13.0625 17.2939 13.0518 19.0509 13.6586 20.638C14.2654 22.2251 15.4455 23.5268 16.9657 24.2857H13.5471C12.7028 24.2852 11.8773 24.5358 11.1758 25.0057C10.4742 25.4755 9.92818 26.1434 9.60715 26.9243C6.74286 26.3943 5.02572 24.9643 4.04429 23.3672C2.85715 21.4429 2.85715 19.4543 2.85715 19.1115V18.5457ZM23.0329 24.2857H26.4543C28.2329 24.2857 29.7571 25.3757 30.3943 26.9243C33.2586 26.3943 34.9757 24.9643 35.9571 23.3672C37.1429 21.4415 37.1429 19.4529 37.1429 19.11V18.5457C37.1432 18.1738 37.0703 17.8055 36.9281 17.4618C36.7859 17.1181 36.5774 16.8058 36.3144 16.5428C36.0514 16.2798 35.7391 16.0712 35.3954 15.9291C35.0517 15.7869 34.6834 15.7139 34.3114 15.7143H26.3114C26.9375 17.2939 26.9482 19.0509 26.3414 20.638C25.7346 22.2251 24.5545 23.5268 23.0343 24.2857M33.2143 8.21432C33.2143 9.63512 32.6499 10.9977 31.6452 12.0024C30.6406 13.0071 29.278 13.5715 27.8571 13.5715C26.4363 13.5715 25.0737 13.0071 24.0691 12.0024C23.0644 10.9977 22.5 9.63512 22.5 8.21432C22.5 6.79352 23.0644 5.43091 24.0691 4.42625C25.0737 3.42159 26.4363 2.85718 27.8571 2.85718C29.278 2.85718 30.6406 3.42159 31.6452 4.42625C32.6499 5.43091 33.2143 6.79352 33.2143 8.21432ZM10.7143 28.5457C10.7143 26.9815 11.9814 25.7143 13.5457 25.7143H26.4543C28.0186 25.7143 29.2857 26.9815 29.2857 28.5457V29.11C29.2857 29.4529 29.2857 31.4415 28.1 33.3672C26.8571 35.39 24.4371 37.1429 20 37.1429C15.5629 37.1429 13.1429 35.3886 11.9 33.3686C10.7143 31.4415 10.7143 29.4543 10.7143 29.11V28.5457ZM20 23.5715C21.4208 23.5715 22.7834 23.0071 23.7881 22.0024C24.7927 20.9977 25.3571 19.6351 25.3571 18.2143C25.3571 16.7935 24.7927 15.4309 23.7881 14.4262C22.7834 13.4216 21.4208 12.8572 20 12.8572C18.5792 12.8572 17.2166 13.4216 16.2119 14.4262C15.2073 15.4309 14.6429 16.7935 14.6429 18.2143C14.6429 19.6351 15.2073 20.9977 16.2119 22.0024C17.2166 23.0071 18.5792 23.5715 20 23.5715Z"
      fill="#3282B8"
    />
  </svg>