<svg xmlns="http://www.w3.org/2000/svg" width="58" height="58" fill="none">
    <path
      d="M29.5232 34.1705L27.2673 33.3162C27.8714 31.7212 28.8985 29.9909 30.5177 28.1917L32.3145 29.8084C30.885 31.3974 30.0174 32.8655 29.5232 34.1705Z"
      fill="#3282B8"
    />
    <path
      fillRule="evenodd"
      clipRule="evenodd"
      d="M18.8053 8.45837C12.1256 8.45837 7.25 15.2734 7.25 22.6249C7.25 39.034 29 49.5417 29 49.5417C29 49.5417 50.75 38.3574 50.75 22.6249C50.75 15.2758 45.8744 8.45837 39.1959 8.45837C34.5608 8.45837 31.1206 11.5167 29 15.8546C26.877 11.5167 23.4393 8.45837 18.8053 8.45837ZM20.5417 30.1588C20.5417 33.5506 24.3383 34.6333 27.1162 33.7319C25.7895 37.6602 27.022 40.7209 28.1191 41.905L29.8918 40.2617C29.4519 39.788 28.4418 37.8281 29.2767 34.9185C30.7352 37.6215 37.4583 37.9622 37.4583 32.8643V19.3334C33.9759 22.2805 30.2555 23.4453 27.1935 24.4047C23.3486 25.6082 20.5417 26.4867 20.5417 30.1588Z"
      fill="#3282B8"
    />
</svg>