  <svg xmlns="http://www.w3.org/2000/svg" width="40" height="40" fill="none">
    <path
      d="M20 17.5V36.6667C17.2575 33.3333 8.8575 33.3333 5 33.3333V15C13.2283 15 18.4283 16.6667 20 17.5ZM20 17.5V36.6667C22.7425 33.3333 31.1425 33.3333 35 33.3333V15C26.7717 15 21.5717 16.6667 20 17.5Z"
      fill="#3282B8"
    />
    <path
      d="M20 17.5V36.6667M20 17.5C18.4283 16.6667 13.2283 15 5 15V33.3333C8.8575 33.3333 17.2575 33.3333 20 36.6667M20 17.5C21.5717 16.6667 26.7717 15 35 15V33.3333C31.1425 33.3333 22.7425 33.3333 20 36.6667"
      stroke="#3282B8"
      strokeWidth="2"
      strokeLinecap="round"
      strokeLinejoin="round"
    />
    <path
      d="M20 16.6668C23.6819 16.6668 26.6667 13.6821 26.6667 10.0002C26.6667 6.31826 23.6819 3.3335 20 3.3335C16.3181 3.3335 13.3333 6.31826 13.3333 10.0002C13.3333 13.6821 16.3181 16.6668 20 16.6668Z"
      stroke="#3282B8"
      strokeWidth="2"
    />
  </svg>