<svg
    xmlns="http://www.w3.org/2000/svg"
    width="40"
    height="40"
    viewBox="0 0 40 40"
    fill="none"
>
    <path
      d="M21.3917 5.26853C21.4837 5.19735 21.5661 5.11443 21.6367 5.02186H25.9067L25.965 5.0202C26.2676 5.00368 26.5708 5.00368 26.8733 5.0202H26.9367C27.8856 5.01708 28.8232 5.22726 29.68 5.6352C31.2458 6.24991 32.6002 7.30454 33.58 8.67186C34.3222 9.70707 34.827 10.8931 35.0586 12.1457C35.2902 13.3982 35.2429 14.6864 34.92 15.9185L29.4517 10.5235C29.2176 10.2927 28.9021 10.1634 28.5733 10.1635H20.615C20.3596 10.1739 20.1136 10.2623 19.91 10.4169L16.77 12.7969C16.429 13.0559 15.9992 13.1691 15.5749 13.1116C15.1506 13.0541 14.7664 12.8306 14.5067 12.4902C14.3785 12.3243 14.2846 12.1345 14.2304 11.932C14.1761 11.7295 14.1627 11.5182 14.1907 11.3105C14.2188 11.1027 14.2878 10.9026 14.3939 10.7217C14.4999 10.5409 14.6408 10.3828 14.8083 10.2569L21.3917 5.26853ZM13.165 23.7252L13.1417 23.7469L11.5183 25.3602L11.4967 25.3802C11.2124 25.6505 10.8341 25.7996 10.4418 25.7959C10.0495 25.7921 9.67409 25.6359 9.395 25.3602C9.25516 25.2222 9.14413 25.0578 9.06834 24.8766C8.99256 24.6953 8.95353 24.5008 8.95353 24.3044C8.95353 24.1079 8.99256 23.9134 9.06834 23.7322C9.14413 23.5509 9.25516 23.3865 9.395 23.2485L11.0183 21.6352C11.3011 21.3552 11.6829 21.1981 12.0808 21.1981C12.4788 21.1981 12.8606 21.3552 13.1433 21.6352C13.422 21.9102 13.5807 22.2842 13.5848 22.6757C13.5889 23.0672 13.438 23.4445 13.165 23.7252ZM12.68 26.5552C12.407 26.8359 12.2561 27.2131 12.2602 27.6047C12.2643 27.9962 12.4229 28.3702 12.7017 28.6452C13.2883 29.2285 14.24 29.2285 14.8267 28.6452L16.45 27.0319C16.6074 26.8758 16.7278 26.6866 16.8026 26.478C16.8774 26.2693 16.9046 26.0467 16.8823 25.8262C16.8599 25.6057 16.7885 25.393 16.6734 25.2037C16.5582 25.0143 16.4022 24.8531 16.2167 24.7319C15.9319 24.5445 15.5921 24.459 15.2526 24.4893C14.9131 24.5195 14.5938 24.6638 14.3467 24.8985L14.325 24.9219L12.7017 26.5335L12.68 26.5552ZM9.16666 19.0119C9.3065 19.1499 9.41753 19.3142 9.49332 19.4955C9.5691 19.6767 9.60813 19.8712 9.60813 20.0677C9.60813 20.2642 9.5691 20.4587 9.49332 20.6399C9.41753 20.8212 9.3065 20.9855 9.16666 21.1235L7.54333 22.7369C7.26059 23.0169 6.87875 23.1739 6.48083 23.1739C6.08291 23.1739 5.70107 23.0169 5.41833 22.7369C5.27849 22.5989 5.16746 22.4345 5.09168 22.2532C5.01589 22.072 4.97687 21.8775 4.97687 21.681C4.97687 21.4846 5.01589 21.2901 5.09168 21.1088C5.16746 20.9276 5.27849 20.7632 5.41833 20.6252L7.04166 19.0119C7.32441 18.7319 7.70624 18.5748 8.10416 18.5748C8.50208 18.5748 8.88392 18.7319 9.16666 19.0119ZM19.755 28.2069C19.8948 28.3449 20.0059 28.5092 20.0817 28.6905C20.1574 28.8717 20.1965 29.0662 20.1965 29.2627C20.1965 29.4592 20.1574 29.6537 20.0817 29.8349C20.0059 30.0162 19.8948 30.1805 19.755 30.3185L18.1317 31.9319C17.8489 32.2119 17.4671 32.3689 17.0692 32.3689C16.6712 32.3689 16.2894 32.2119 16.0067 31.9319C15.7848 31.7127 15.6377 31.4291 15.5863 31.1215C15.5348 30.814 15.5816 30.498 15.72 30.2185L15.7217 30.2152C15.7945 30.0689 15.8908 29.9355 16.0067 29.8202L17.63 28.2069C17.9127 27.9269 18.2946 27.7698 18.6925 27.7698C19.0904 27.7698 19.4723 27.9269 19.755 28.2069ZM8.90666 8.0502C10.0134 6.95086 11.3553 6.11726 12.8312 5.6123C14.3072 5.10733 15.8785 4.9442 17.4267 5.1352L13.3 8.26353C12.8698 8.58845 12.5082 8.99534 12.236 9.46073C11.9639 9.92612 11.7866 10.4408 11.7144 10.9751C11.6422 11.5093 11.6765 12.0526 11.8154 12.5735C11.9542 13.0945 12.1948 13.5827 12.5233 14.0102C13.1858 14.8736 14.1628 15.4401 15.2412 15.5859C16.3197 15.7317 17.4121 15.4451 18.28 14.7885L21.0867 12.6635H28.0617L33.9067 18.4302L33.9667 18.4969L35.8833 20.4135C36.3145 20.8507 36.5616 21.4366 36.5736 22.0504C36.5857 22.6643 36.3619 23.2595 35.9483 23.7133C35.5347 24.167 34.9627 24.4449 34.3504 24.4896C33.738 24.5343 33.1318 24.3424 32.6567 23.9535L32.4967 23.7935L32.3967 23.7069L30.575 21.8869C30.4981 21.8073 30.4062 21.7438 30.3045 21.7001C30.2028 21.6564 30.0935 21.6334 29.9828 21.6325C29.8722 21.6315 29.7624 21.6526 29.66 21.6945C29.5576 21.7364 29.4646 21.7983 29.3863 21.8765C29.3081 21.9548 29.2462 22.0478 29.2043 22.1502C29.1624 22.2526 29.1413 22.3624 29.1423 22.473C29.1433 22.5837 29.1662 22.693 29.2099 22.7947C29.2536 22.8964 29.3171 22.9883 29.3967 23.0652L31.3133 24.9819C31.3833 25.0508 31.4544 25.1169 31.5267 25.1802L31.6 25.2535C31.7605 25.4106 31.8882 25.5979 31.9759 25.8047C32.0635 26.0115 32.1092 26.2336 32.1104 26.4582C32.1116 26.6827 32.0683 26.9053 31.9829 27.113C31.8975 27.3207 31.7718 27.5094 31.613 27.6682C31.4542 27.827 31.2655 27.9527 31.0578 28.0381C30.8501 28.1235 30.6275 28.1668 30.403 28.1656C30.1784 28.1644 29.9563 28.1187 29.7495 28.0311C29.5427 27.9434 29.3554 27.8157 29.1983 27.6552L28.915 27.3735C28.7975 27.2563 28.6476 27.1769 28.4846 27.1454C28.3216 27.1139 28.153 27.1318 28.0002 27.1968C27.8475 27.2618 27.7176 27.3709 27.6273 27.5102C27.537 27.6495 27.4904 27.8126 27.4933 27.9785C27.4909 28.0912 27.5114 28.2032 27.5535 28.3078C27.5956 28.4124 27.6585 28.5073 27.7383 28.5869L28.11 28.9585C28.2632 29.1027 28.3858 29.2762 28.4707 29.4687C28.5556 29.6612 28.6009 29.8688 28.6041 30.0792C28.6072 30.2895 28.5681 30.4983 28.4891 30.6933C28.4101 30.8883 28.2927 31.0654 28.1439 31.2141C27.9952 31.3629 27.8181 31.4803 27.6231 31.5593C27.4281 31.6383 27.2193 31.6774 27.009 31.6743C26.7986 31.6711 26.591 31.6258 26.3985 31.5409C26.206 31.456 26.0325 31.3334 25.8883 31.1802H25.8867L25.8667 31.1585L25.5167 30.8085C25.4396 30.7306 25.3479 30.6687 25.2467 30.6264C25.1456 30.5842 25.0371 30.5625 24.9275 30.5625C24.8179 30.5625 24.7094 30.5842 24.6083 30.6264C24.5071 30.6687 24.4154 30.7306 24.3383 30.8085C24.1821 30.9648 24.0943 31.1767 24.0943 31.3977C24.0943 31.6187 24.1821 31.8306 24.3383 31.9869L24.7017 32.3519C24.8513 32.4996 24.9703 32.6754 25.052 32.8691C25.1336 33.0628 25.1764 33.2708 25.1777 33.481C25.179 33.6913 25.1389 33.8997 25.0596 34.0945C24.9804 34.2892 24.8636 34.4664 24.7158 34.616C24.5681 34.7656 24.3923 34.8847 24.1986 34.9663C24.0049 35.048 23.7969 35.0907 23.5867 35.092C23.3764 35.0934 23.168 35.0532 22.9732 34.974C22.7785 34.8948 22.6013 34.7779 22.4517 34.6302L20.0667 32.3635L20.9417 31.4935C21.2364 31.2016 21.4704 30.8541 21.63 30.4712C21.7897 30.0883 21.8719 29.6776 21.8719 29.2627C21.8719 28.8478 21.7897 28.4371 21.63 28.0542C21.4704 27.6713 21.2364 27.3238 20.9417 27.0319C20.6303 26.7216 20.2577 26.4796 19.8477 26.3212C19.4376 26.1628 18.9991 26.0915 18.56 26.1119C18.5794 25.6745 18.507 25.238 18.3474 24.8304C18.1878 24.4227 17.9445 24.0531 17.6333 23.7452C17.3221 23.4352 16.9498 23.1933 16.5401 23.0349C16.1304 22.8765 15.6922 22.8051 15.2533 22.8252C15.2725 22.3881 15.2 21.9519 15.0404 21.5446C14.8808 21.1373 14.6377 20.7679 14.3267 20.4602C13.9308 20.0669 13.4384 19.7846 12.899 19.6415C12.3596 19.4985 11.7921 19.4997 11.2533 19.6452C11.1607 18.9594 10.8437 18.3235 10.3517 17.8369C9.80336 17.2934 9.07658 16.9672 8.30609 16.9188C7.5356 16.8704 6.7737 17.103 6.16166 17.5735C5.76868 15.8838 5.81462 14.1217 6.2951 12.4547C6.77558 10.7878 7.67461 9.27151 8.90666 8.0502Z"
      fill="#3282B8"
    />
</svg>