<svg xmlns="http://www.w3.org/2000/svg" width="29" height="28" viewBox="0 0 29 28" fill="none">
  <path d="M26.4661 8.80846C26.4661 9.57846 25.8361 10.2085 25.0661 10.2085H4.53281C3.76281 10.2085 3.13281 9.57846 3.13281 8.80846V8.7968C3.13281 6.12513 5.29115 3.9668 7.96281 3.9668H21.6245C24.2961 3.9668 26.4661 6.1368 26.4661 8.80846Z" fill="#949494"/>
  <path d="M3.13281 13.358V19.203C3.13281 21.8747 5.29115 24.033 7.96281 24.033H21.6245C24.2961 24.033 26.4661 21.863 26.4661 19.1913V13.358C26.4661 12.588 25.8361 11.958 25.0661 11.958H4.53281C3.76281 11.958 3.13281 12.588 3.13281 13.358ZM10.1328 20.1247H7.79948C7.32115 20.1247 6.92448 19.728 6.92448 19.2497C6.92448 18.7713 7.32115 18.3747 7.79948 18.3747H10.1328C10.6111 18.3747 11.0078 18.7713 11.0078 19.2497C11.0078 19.728 10.6111 20.1247 10.1328 20.1247ZM17.7161 20.1247H13.0495C12.5711 20.1247 12.1745 19.728 12.1745 19.2497C12.1745 18.7713 12.5711 18.3747 13.0495 18.3747H17.7161C18.1945 18.3747 18.5911 18.7713 18.5911 19.2497C18.5911 19.728 18.1945 20.1247 17.7161 20.1247Z" fill="#949494"/>
</svg>