<svg xmlns="http://www.w3.org/2000/svg" width="29" height="28" viewBox="0 0 29 28" fill="none">
  <path d="M25.1052 8.14376C24.1135 7.0471 22.4569 6.49876 20.0535 6.49876H19.7735V6.4521C19.7735 4.4921 19.7735 2.06543 15.3869 2.06543H13.6135C9.22687 2.06543 9.22687 4.50376 9.22687 6.4521V6.51043H8.94687C6.53187 6.51043 4.88687 7.05876 3.89521 8.15543C2.74021 9.43876 2.77521 11.1654 2.89187 12.3438L2.90354 12.4254L2.99766 13.4137C3.01193 13.5635 3.0926 13.6988 3.21841 13.7812C3.49298 13.9613 3.98814 14.2815 4.28021 14.4438C4.44354 14.5488 4.61854 14.6421 4.79354 14.7354C6.78854 15.8321 8.98187 16.5671 11.2102 16.9288C11.3152 18.0254 11.7935 19.3088 14.3485 19.3088C16.9035 19.3088 17.4052 18.0371 17.4869 16.9054C19.8669 16.5204 22.1652 15.6921 24.2419 14.4788C24.3119 14.4438 24.3585 14.4088 24.4169 14.3738C24.8901 14.1063 25.3815 13.7753 25.8271 13.4528C25.94 13.371 26.0123 13.245 26.0277 13.1065L26.0502 12.9038L26.1085 12.3554C26.1202 12.2854 26.1202 12.2271 26.1319 12.1454C26.2252 10.9671 26.2019 9.3571 25.1052 8.14376ZM15.7719 16.1354C15.7719 17.3721 15.7719 17.5588 14.3369 17.5588C12.9019 17.5588 12.9019 17.3371 12.9019 16.1471V14.6771H15.7719V16.1354ZM10.8952 6.49876V6.4521C10.8952 4.46876 10.8952 3.73376 13.6135 3.73376H15.3869C18.1052 3.73376 18.1052 4.48043 18.1052 6.4521V6.51043H10.8952V6.49876Z" fill="#888888"/>
  <path d="M24.9887 15.9579C25.3419 15.789 25.7481 16.0695 25.7127 16.4595L25.2805 21.2212C25.0355 23.5545 24.0788 25.9345 18.9455 25.9345H10.0555C4.92213 25.9345 3.96547 23.5545 3.72047 21.2329L3.30976 16.715C3.27472 16.3296 3.67136 16.0492 4.02371 16.2094C5.32798 16.8023 7.93644 17.946 9.50019 18.347C9.66472 18.3891 9.79799 18.5068 9.86819 18.6614C10.5676 20.2024 12.1111 21.0229 14.3488 21.0229C16.5644 21.0229 18.1278 20.1708 18.8293 18.6266C18.8996 18.4718 19.0332 18.3542 19.1978 18.3119C20.8568 17.8849 23.6272 16.609 24.9887 15.9579Z" fill="#888888"/>
</svg>