<svg xmlns="http://www.w3.org/2000/svg" width="29" height="28" viewBox="0 0 29 28" fill="none">
  <path d="M25.2017 9.3447L17.56 3.23136C16.0667 2.04136 13.7334 2.0297 12.2517 3.2197L4.61002 9.3447C3.51336 10.2197 2.84836 11.9697 3.08169 13.3464L4.55169 22.143C4.89002 24.1147 6.72169 25.6664 8.71669 25.6664H21.0834C23.055 25.6664 24.9217 24.0797 25.26 22.1314L26.73 13.3347C26.94 11.9697 26.275 10.2197 25.2017 9.3447ZM15.775 20.9997C15.775 21.478 15.3784 21.8747 14.9 21.8747C14.4217 21.8747 14.025 21.478 14.025 20.9997V17.4997C14.025 17.0214 14.4217 16.6247 14.9 16.6247C15.3784 16.6247 15.775 17.0214 15.775 17.4997V20.9997Z" fill="#888888"/>
</svg>