<svg xmlns="http://www.w3.org/2000/svg" width="29" height="28" viewBox="0 0 29 28" fill="none">
  <path d="M24.9497 8.84329H18.4397C17.9847 8.84329 17.623 8.48163 17.623 8.02663C17.623 7.57163 17.9847 7.20996 18.4397 7.20996H24.9497C25.4047 7.20996 25.7664 7.57163 25.7664 8.02663C25.7664 8.48163 25.4047 8.84329 24.9497 8.84329Z" fill="#888888"/>
  <path d="M7.58928 8.84329H3.24928C2.79428 8.84329 2.43262 8.48163 2.43262 8.02663C2.43262 7.57163 2.79428 7.20996 3.24928 7.20996H7.58928C8.04428 7.20996 8.40595 7.57163 8.40595 8.02663C8.40595 8.48163 8.03262 8.84329 7.58928 8.84329Z" fill="#888888"/>
  <path d="M11.9296 12.6346C14.4747 12.6346 16.538 10.5714 16.538 8.0263C16.538 5.48119 14.4747 3.41797 11.9296 3.41797C9.38451 3.41797 7.32129 5.48119 7.32129 8.0263C7.32129 10.5714 9.38451 12.6346 11.9296 12.6346Z" fill="#888888"/>
  <path d="M24.9496 20.7779H20.6096C20.1546 20.7779 19.793 20.4162 19.793 19.9612C19.793 19.5062 20.1546 19.1445 20.6096 19.1445H24.9496C25.4046 19.1445 25.7663 19.5062 25.7663 19.9612C25.7663 20.4162 25.4046 20.7779 24.9496 20.7779Z" fill="#888888"/>
  <path d="M9.75928 20.7779H3.24928C2.79428 20.7779 2.43262 20.4162 2.43262 19.9612C2.43262 19.5062 2.79428 19.1445 3.24928 19.1445H9.75928C10.2143 19.1445 10.576 19.5062 10.576 19.9612C10.576 20.4162 10.2026 20.7779 9.75928 20.7779Z" fill="#888888"/>
  <path d="M16.2695 24.5819C18.8146 24.5819 20.8778 22.5187 20.8778 19.9736C20.8778 17.4285 18.8146 15.3652 16.2695 15.3652C13.7244 15.3652 11.6611 17.4285 11.6611 19.9736C11.6611 22.5187 13.7244 24.5819 16.2695 24.5819Z" fill="#888888"/>
</svg>