<svg xmlns="http://www.w3.org/2000/svg" width="28" height="28" viewBox="0 0 28 28" fill="none">
  <path d="M21.6299 4.80681L15.2133 2.40348C14.5483 2.15848 13.4633 2.15848 12.7983 2.40348L6.3816 4.80681C5.14493 5.27348 4.1416 6.72014 4.1416 8.03848V17.4885C4.1416 18.4335 4.75993 19.6818 5.51827 20.2418L11.9349 25.0368C13.0666 25.8885 14.9216 25.8885 16.0533 25.0368L22.4699 20.2418C23.2283 19.6701 23.8466 18.4335 23.8466 17.4885V8.03848C23.8583 6.72014 22.8549 5.27348 21.6299 4.80681ZM18.0599 11.3401L13.0433 16.3568C12.8683 16.5318 12.6466 16.6135 12.4249 16.6135C12.2033 16.6135 11.9816 16.5318 11.8066 16.3568L9.93994 14.4668C9.6016 14.1285 9.6016 13.5685 9.93994 13.2301C10.2783 12.8918 10.8383 12.8918 11.1766 13.2301L12.4366 14.4901L16.8349 10.0918C17.1733 9.75348 17.7333 9.75348 18.0716 10.0918C18.4099 10.4301 18.4099 11.0018 18.0599 11.3401Z" fill="#888888"/>
</svg>