<svg xmlns="http://www.w3.org/2000/svg" width="40" height="40" viewBox="0 0 40 40" fill="none">
  <path fill-rule="evenodd" clip-rule="evenodd" d="M29.6774 15.5379L27.9032 16.9622C27.7934 17.0514 27.7231 17.1802 27.7076 17.3209C27.6921 17.4615 27.7327 17.6026 27.8206 17.7135L35.1674 26.8653C35.2565 26.9751 35.3853 27.0453 35.5258 27.0609C35.6664 27.0764 35.8073 27.0359 35.9182 26.9482L37.6928 25.5237C37.8027 25.4345 37.873 25.3057 37.8884 25.165C37.9039 25.0244 37.8633 24.8833 37.7755 24.7724L30.4286 15.6206C30.3395 15.5107 30.2106 15.4404 30.07 15.425C29.9293 15.4095 29.7883 15.4501 29.6774 15.5379ZM16.0711 34.8404C16.0711 34.936 16.0642 34.8862 16.0445 34.9388C16.0234 35.0481 16.0275 35.1608 16.0564 35.2683C16.1323 35.5515 16.2964 35.6531 16.5174 35.7807C16.6841 35.8755 16.8814 35.9007 17.0666 35.851C17.2518 35.8013 17.4099 35.6806 17.5067 35.5151L18.7028 33.4435H18.7035C18.798 33.2765 18.8229 33.0792 18.7731 32.894C18.7232 32.7088 18.6025 32.5507 18.4371 32.4538C18.2189 32.3278 18.052 32.2341 17.7632 32.3114C17.6713 32.3357 17.5852 32.3779 17.5096 32.4355C17.434 32.4932 17.3706 32.5652 17.3229 32.6474C17.1589 32.9313 16.1218 34.6956 16.0713 34.8402L16.0711 34.8404ZM16.2392 32.8108L15.3266 34.3916L15.2468 34.6038C15.1097 34.7915 14.9193 34.9337 14.7004 35.0118C14.4807 35.0951 14.2551 35.114 14.1016 35.0255L13.9766 34.9535C13.811 34.8566 13.6903 34.6984 13.6404 34.5132C13.5905 34.328 13.6154 34.1306 13.7099 33.9636L13.7106 33.9641L14.9074 31.891C15.0046 31.7259 15.1626 31.6056 15.3476 31.5559C15.5326 31.5062 15.7297 31.5312 15.8964 31.6254V31.6262C16.1175 31.7538 16.2816 31.8556 16.3574 32.1385C16.4521 32.4924 16.2737 32.6538 16.2393 32.8104L16.2392 32.8108ZM12.0053 30.2158C12.0474 30.1428 12.0953 30.0733 12.1485 30.0079C12.1539 29.945 12.173 29.8841 12.2047 29.8295C12.2995 29.6628 12.3247 29.4654 12.275 29.2803C12.2253 29.0951 12.1046 28.9369 11.9391 28.8401C11.7182 28.7126 11.5489 28.6218 11.2653 28.6978C11.1734 28.7221 11.0872 28.7643 11.0116 28.8219C10.936 28.8796 10.8726 28.9515 10.8249 29.0338H10.8242L9.62886 31.1058C9.58158 31.1882 9.55104 31.2791 9.53897 31.3733C9.5269 31.4675 9.53356 31.5632 9.55854 31.6548C9.6344 31.9379 9.79839 32.0396 10.0195 32.1673C10.3658 32.3672 10.8222 32.2312 10.996 31.9224C11.0206 31.8738 11.0542 31.8303 11.0949 31.7943L12.0053 30.2162V30.2158ZM14.0699 31.6288C14.0832 31.4123 14.3009 31.2795 14.197 30.8917C14.1211 30.6086 13.9571 30.5069 13.736 30.3792C13.5693 30.2845 13.372 30.2592 13.1868 30.3089C13.0016 30.3587 12.8434 30.4793 12.7466 30.6449H12.7459L11.5506 32.7169C11.5033 32.7993 11.4727 32.8902 11.4607 32.9844C11.4486 33.0786 11.4553 33.1743 11.4803 33.266C11.5561 33.549 11.7201 33.6507 11.9412 33.7784C12.2875 33.9783 12.7439 33.8423 12.9178 33.5335C12.9517 33.4665 13.0026 33.4095 13.0654 33.3681L14.0699 31.6288ZM12.0834 19.1294C12.7037 19.3699 13.2285 19.5874 13.6939 19.7803C14.6861 20.1915 15.4222 20.4965 16.1433 20.6468C15.9028 20.8966 15.68 21.1629 15.4765 21.4437C15.0859 21.9545 14.5697 22.6196 14.1535 23.0773C13.8113 23.4537 13.5233 23.6639 13.4136 24.1544C13.2985 24.6689 13.4058 25.3407 13.7794 25.771C14.3442 26.4224 15.454 26.5373 16.2258 26.2655C17.1297 25.9471 18.077 25.0724 19.2064 24.7616C21.4961 24.1312 24.701 26.7266 27.0511 28.6297C27.6233 29.0931 28.1464 29.5166 28.6176 29.8609C29.492 30.5015 29.1687 31.9014 28.0807 32.0709C27.9209 32.0964 27.7576 32.09 27.6002 32.0522C27.4428 32.0144 27.2945 31.9459 27.1636 31.8506L24.3675 29.8083C24.2758 29.7426 24.1619 29.7158 24.0505 29.7337C23.9392 29.7517 23.8394 29.8129 23.773 29.9041C23.7066 29.9953 23.679 30.109 23.6961 30.2205C23.7132 30.332 23.7736 30.4322 23.8643 30.4993L26.6605 32.5417C26.6761 32.5534 26.6926 32.5651 26.7089 32.576C26.9432 34.1053 25.3182 34.3949 24.657 33.9119L22.2655 32.1652C22.2201 32.1321 22.1687 32.1084 22.1141 32.0952C22.0595 32.082 22.0029 32.0798 21.9475 32.0885C21.8355 32.1061 21.7351 32.1675 21.6683 32.2591C21.6016 32.3508 21.574 32.4652 21.5916 32.5772C21.6093 32.6891 21.6706 32.7895 21.7623 32.8563L24.1538 34.6029C24.2122 34.6456 24.2732 34.6848 24.3364 34.7201C24.2973 35.3578 23.9235 35.91 23.2817 35.9135C22.9564 35.9152 22.7014 35.7986 22.3621 35.5667L20.7486 34.3884C20.7033 34.3545 20.6517 34.3299 20.5968 34.3161C20.5419 34.3023 20.4849 34.2996 20.4289 34.308C20.3729 34.3164 20.3192 34.3359 20.2708 34.3653C20.2225 34.3946 20.1804 34.4333 20.1471 34.4791C20.1138 34.5248 20.0899 34.5767 20.0768 34.6318C20.0637 34.6868 20.0617 34.744 20.0708 34.7998C20.08 34.8556 20.1001 34.9091 20.1301 34.9571C20.1601 35.0051 20.1993 35.0467 20.2455 35.0794L21.6836 36.1298C21.6556 36.408 21.5613 36.6754 21.4086 36.9096C20.9668 37.5145 20.0487 37.0078 19.3617 36.506L18.3507 35.7675L19.4445 33.8712C19.6535 33.5082 19.7101 33.0771 19.6017 32.6724C19.4933 32.2678 19.2289 31.9226 18.8664 31.7127L18.7417 31.6405L18.7413 31.6412C18.4908 31.4961 18.2053 31.4227 17.916 31.429C17.6266 31.4353 17.3446 31.5211 17.1007 31.6769C16.9653 31.3745 16.738 31.1227 16.451 30.9573L16.2128 30.8266C15.874 30.6653 15.4888 30.6303 15.1264 30.7278C15.0992 30.7351 15.0723 30.7431 15.0456 30.7518C15 30.5349 14.9092 30.33 14.7792 30.1505C14.6491 29.971 14.4827 29.821 14.2907 29.7101C13.9096 29.49 13.6036 29.3795 13.1579 29.4417C13.1534 29.1688 13.0783 28.9017 12.9401 28.6665C12.8018 28.4312 12.605 28.2357 12.3689 28.0989L12.2439 28.0268C11.8806 27.8176 11.4492 27.761 11.0443 27.8694C10.6393 27.9778 10.2939 28.2423 10.0837 28.6049L9.79464 29.1073C9.573 28.8934 9.39534 28.6882 9.25557 28.5795C9.07737 28.4405 8.56807 28.1249 8.1862 27.8749C8.12345 27.8337 8.05093 27.8098 7.97597 27.8056C7.43519 27.7577 6.90389 27.6337 6.39784 27.4371L6.39847 27.4357C6.15756 27.339 5.93314 27.2054 5.73323 27.0398L12.0832 19.1297L12.0834 19.1294ZM12.0959 16.8913L10.3217 15.467C10.2108 15.3791 10.0698 15.3385 9.92914 15.354C9.78851 15.3695 9.65964 15.4398 9.5705 15.5496L2.22362 24.7014C2.13577 24.8123 2.09517 24.9534 2.11065 25.094C2.12612 25.2347 2.19641 25.3635 2.30628 25.4527L4.0805 26.877C4.19139 26.9648 4.33244 27.0054 4.47306 26.9899C4.61368 26.9745 4.74253 26.9042 4.83167 26.7943L12.1785 17.6424C12.2664 17.5315 12.307 17.3905 12.2915 17.2499C12.276 17.1093 12.2057 16.9804 12.0959 16.8913ZM31.5519 27.6784C31.4906 27.6994 31.4349 27.7342 31.3891 27.7799C30.526 28.6374 30.2395 28.8988 29.1507 29.1914C29.1314 29.1748 29.1108 29.1599 29.089 29.1468C28.6627 28.8335 28.1503 28.4186 27.5912 27.9658C25.0963 25.9453 21.6939 23.1899 18.9818 23.9367C18.2206 24.1462 17.5199 24.5739 16.9514 24.921C16.4429 25.2316 15.9617 25.5485 15.4177 25.5495C15.1037 25.5502 14.6425 25.4596 14.427 25.2111C14.2395 24.9951 14.1932 24.5895 14.2491 24.3392C14.2835 24.1853 14.3915 24.0724 14.5707 23.8852C15.0925 23.3414 15.6292 22.6546 16.0953 22.0454C16.4547 21.5756 16.7599 21.1524 17.1693 20.9484C18.1584 20.4553 20.0662 19.557 21.0541 19.6974C22.6837 19.9288 23.8027 19.9403 24.8336 19.7795C25.7817 19.6318 26.6274 19.344 27.7152 18.9503L34.0078 26.7889L31.5519 27.6784ZM19.7459 7.82017C19.2329 7.45927 18.6186 7.27064 17.9914 7.28148C17.3643 7.29231 16.7569 7.50206 16.2567 7.88047C15.7565 8.25888 15.3894 8.78639 15.2084 9.38692C15.0274 9.98744 15.0418 10.6299 15.2496 11.2217C15.6608 12.4864 18.4996 14.2384 19.9996 15.2937C20.2292 15.1322 20.5021 14.9468 20.7956 14.7475C22.2821 13.7378 24.3315 12.3456 24.7404 11.247C24.7458 11.2278 24.7525 11.2089 24.7604 11.1906C24.9611 10.5985 24.9691 9.95799 24.7834 9.36099C24.5976 8.76399 24.2275 8.24114 23.7263 7.86742C23.225 7.49371 22.6183 7.2883 21.9931 7.28067C21.3679 7.27304 20.7564 7.46357 20.2461 7.82494C20.1727 7.87649 20.085 7.90374 19.9953 7.90284C19.9056 7.90194 19.8185 7.87295 19.7461 7.81994L19.7459 7.82017ZM16.6571 4.6901C16.714 4.78841 16.7296 4.90534 16.7004 5.01515C16.6712 5.12496 16.5995 5.21866 16.5012 5.27564C16.4525 5.30386 16.3988 5.32221 16.343 5.32964C16.2872 5.33708 16.2305 5.33346 16.1761 5.31898C16.0663 5.28975 15.9726 5.2181 15.9157 5.11978L15.2496 3.96611C15.2213 3.91743 15.203 3.86368 15.1956 3.80791C15.1881 3.75214 15.1917 3.69546 15.2062 3.64109C15.2207 3.58672 15.2457 3.53573 15.2799 3.49104C15.3141 3.44634 15.3567 3.40882 15.4054 3.3806C15.4541 3.35239 15.5078 3.33404 15.5636 3.3266C15.6193 3.31916 15.676 3.32278 15.7304 3.33725C15.7848 3.35172 15.8358 3.37676 15.8805 3.41093C15.9251 3.4451 15.9627 3.48775 15.9909 3.53642L16.6568 4.68978L16.6571 4.6901ZM13.368 7.01392C13.4648 7.07119 13.5351 7.16428 13.5637 7.27303C13.5924 7.38177 13.577 7.49742 13.521 7.59493C13.465 7.69243 13.3728 7.76394 13.2644 7.79396C13.156 7.82398 13.0402 7.8101 12.942 7.75533L11.7886 7.08947C11.7392 7.0619 11.6957 7.02478 11.6607 6.98027C11.6257 6.93576 11.5999 6.88475 11.5848 6.8302C11.5697 6.77564 11.5656 6.71863 11.5727 6.66246C11.5798 6.6063 11.5979 6.5521 11.6262 6.50302C11.6544 6.45393 11.692 6.41094 11.737 6.37653C11.7819 6.34212 11.8333 6.31697 11.888 6.30256C11.9428 6.28814 11.9998 6.28474 12.0559 6.29255C12.112 6.30037 12.1659 6.31923 12.2146 6.34806L13.368 7.01392ZM12.573 10.9069C12.684 10.9111 12.7891 10.9582 12.8662 11.0383C12.9432 11.1183 12.9863 11.2251 12.9863 11.3363C12.9863 11.4474 12.9432 11.5542 12.8662 11.6343C12.7891 11.7143 12.684 11.7614 12.573 11.7656H11.2417C11.184 11.7678 11.1264 11.7584 11.0723 11.7378C11.0183 11.7172 10.969 11.6859 10.9274 11.6458C10.8857 11.6058 10.8526 11.5577 10.83 11.5045C10.8073 11.4513 10.7957 11.3941 10.7957 11.3363C10.7957 11.2785 10.8073 11.2212 10.83 11.1681C10.8526 11.1149 10.8857 11.0668 10.9274 11.0267C10.969 10.9866 11.0183 10.9553 11.0723 10.9347C11.1264 10.9142 11.184 10.9047 11.2417 10.9069H12.573ZM27.426 11.7655C27.3683 11.7677 27.3107 11.7582 27.2566 11.7376C27.2026 11.717 27.1533 11.6858 27.1117 11.6457C27.07 11.6056 27.0369 11.5575 27.0143 11.5043C26.9916 11.4511 26.98 11.3939 26.98 11.3361C26.98 11.2783 26.9916 11.2211 27.0143 11.1679C27.0369 11.1147 27.07 11.0666 27.1117 11.0265C27.1533 10.9864 27.2026 10.9552 27.2566 10.9346C27.3107 10.914 27.3683 10.9045 27.426 10.9067H28.7578C28.8689 10.911 28.974 10.9581 29.051 11.0381C29.1281 11.1182 29.1711 11.225 29.1711 11.3361C29.1711 11.4472 29.1281 11.554 29.051 11.6341C28.974 11.7142 28.8689 11.7612 28.7578 11.7655H27.426ZM27.0755 7.74549C26.9772 7.80247 26.8603 7.81806 26.7504 7.78883C26.6406 7.7596 26.5469 7.68794 26.4899 7.58963C26.433 7.49131 26.4174 7.37438 26.4466 7.26457C26.4758 7.15476 26.5475 7.06106 26.6458 7.00408L27.7992 6.33822C27.8478 6.31001 27.9016 6.29166 27.9574 6.28422C28.0131 6.27678 28.0698 6.2804 28.1242 6.29487C28.1786 6.30934 28.2295 6.33437 28.2742 6.36855C28.3189 6.40272 28.3565 6.44536 28.3847 6.49404C28.4129 6.54272 28.4312 6.59647 28.4387 6.65224C28.4461 6.70801 28.4425 6.7647 28.428 6.81907C28.4136 6.87344 28.3885 6.92442 28.3543 6.96912C28.3202 7.01381 28.2775 7.05134 28.2289 7.07955L27.0755 7.74549ZM24.0833 5.11767C24.0553 5.16635 24.018 5.20904 23.9736 5.2433C23.9291 5.27757 23.8783 5.30274 23.8241 5.31737C23.7699 5.33201 23.7133 5.33583 23.6577 5.32861C23.602 5.32138 23.5483 5.30327 23.4996 5.27529C23.4509 5.24731 23.4082 5.21002 23.374 5.16555C23.3397 5.12107 23.3145 5.07028 23.2999 5.01608C23.2853 4.96188 23.2814 4.90532 23.2887 4.84964C23.2959 4.79397 23.314 4.74026 23.342 4.69158L24.0078 3.53822C24.0649 3.44093 24.158 3.37011 24.267 3.34117C24.376 3.31223 24.492 3.32752 24.5898 3.38371C24.6876 3.4399 24.7592 3.53244 24.789 3.64118C24.8189 3.74993 24.8046 3.86607 24.7492 3.96431L24.0835 5.11783L24.0833 5.11767ZM20.4292 4.57572C20.4315 4.63349 20.422 4.6911 20.4014 4.74512C20.3808 4.79914 20.3495 4.84844 20.3094 4.89009C20.2694 4.93174 20.2213 4.96487 20.1681 4.9875C20.1149 5.01013 20.0577 5.02179 19.9999 5.02179C19.9421 5.02179 19.8849 5.01013 19.8317 4.9875C19.7785 4.96487 19.7304 4.93174 19.6903 4.89009C19.6502 4.84844 19.6189 4.79914 19.5984 4.74512C19.5778 4.6911 19.5683 4.63349 19.5705 4.57572V3.24392C19.5683 3.18616 19.5778 3.12854 19.5984 3.07453C19.6189 3.02051 19.6502 2.9712 19.6903 2.92955C19.7304 2.88791 19.7785 2.85478 19.8317 2.83215C19.8849 2.80952 19.9421 2.79785 19.9999 2.79785C20.0577 2.79785 20.1149 2.80952 20.1681 2.83215C20.2213 2.85478 20.2694 2.88791 20.3094 2.92955C20.3495 2.9712 20.3808 3.02051 20.4014 3.07453C20.422 3.12854 20.4315 3.18616 20.4292 3.24392V4.57572Z" fill="white"/>
</svg>