<svg xmlns="http://www.w3.org/2000/svg" width="40" height="40" viewBox="0 0 40 40" fill="none">
  <path d="M21.8314 29.2998C22.1446 29.5141 22.5154 29.6283 22.8949 29.6272C23.2744 29.6261 23.6446 29.5097 23.9564 29.2936L25.4127 28.2998H20.3564L21.8314 29.2998Z" fill="white"/>
  <path d="M36.2563 23.4623C35.9936 23.136 35.6157 22.9229 35.2005 22.8671C34.7853 22.8113 34.3646 22.917 34.025 23.1623L33.2938 23.6623L33.2875 23.6686C33.2813 23.6686 33.2813 23.6748 33.275 23.6748L24.3125 29.8061C23.898 30.0969 23.4042 30.2535 22.8979 30.2546C22.3915 30.2557 21.897 30.1013 21.4813 29.8123L19.2438 28.2998H15.375C15.2921 28.2998 15.2126 28.2669 15.154 28.2083C15.0954 28.1497 15.0625 28.0702 15.0625 27.9873C15.0625 27.9044 15.0954 27.825 15.154 27.7664C15.2126 27.7077 15.2921 27.6748 15.375 27.6748H25.35C25.7021 27.6706 26.0395 27.5333 26.2945 27.2904C26.5495 27.0476 26.7031 26.7172 26.7244 26.3658C26.7458 26.0143 26.6334 25.6678 26.4097 25.3958C26.186 25.1239 25.8677 24.9467 25.5188 24.8998L12.9188 23.4436C11.9082 23.3297 10.8849 23.4451 9.92501 23.7811L3.65626 25.9811C3.59238 26.0029 3.53693 26.0441 3.4977 26.0991C3.45846 26.154 3.43742 26.2198 3.43751 26.2873V32.8811C3.43704 32.9429 3.45414 33.0035 3.4868 33.056C3.51946 33.1084 3.56635 33.1505 3.62201 33.1774C3.67767 33.2042 3.73981 33.2147 3.80119 33.2076C3.86258 33.2005 3.92069 33.1762 3.96876 33.1373C5.07243 32.1777 6.48131 31.6416 7.94376 31.6248C9.37751 31.4161 17.8363 34.7911 19.4 35.2123C20.2204 35.4959 21.098 35.5723 21.9551 35.4349C22.8121 35.2976 23.6219 34.9506 24.3125 34.4248L35.9375 25.6561C36.2663 25.4042 36.4837 25.0339 36.5432 24.624C36.6028 24.2142 36.4998 23.7973 36.2563 23.4623Z" fill="white"/>
  <path d="M32.6191 23.3689C32.3088 23.0841 31.9204 22.8985 31.5039 22.8362C31.0873 22.7738 30.6617 22.8374 30.2816 23.0189L26.6753 24.7627C26.8888 24.9454 27.061 25.1714 27.1806 25.4257C27.3002 25.6799 27.3644 25.9567 27.3691 26.2377C27.3687 26.5252 27.3113 26.8099 27.2003 27.0752L32.6191 23.3689ZM21.4253 20.3564C21.7123 20.6403 22.0998 20.7995 22.5035 20.7995C22.9071 20.7995 23.2946 20.6403 23.5816 20.3564L30.4878 13.4502C33.9397 10.057 31.5622 3.92392 26.6441 3.93767C25.8788 3.92259 25.1182 4.06019 24.4067 4.34242C23.6953 4.62465 23.0472 5.04586 22.5003 5.58142L22.4441 5.51892C21.9235 4.99696 21.3049 4.58303 20.6238 4.30094C19.9427 4.01885 19.2125 3.87415 18.4753 3.87517C13.5378 3.83767 11.0028 9.97642 14.5128 13.4502L21.4253 20.3564Z" fill="white"/>
</svg>