<svg xmlns="http://www.w3.org/2000/svg" width="40" height="40" viewBox="0 0 40 40" fill="none">
  <path d="M20 23.5156C23.8773 23.5156 27.0312 20.3616 27.0312 16.4844C27.0312 12.6071 23.8773 9.45312 20 9.45312C16.1227 9.45312 12.9688 12.6071 12.9688 16.4844C12.9688 20.3616 16.1227 23.5156 20 23.5156ZM15.6559 16.8277C16.1136 16.37 16.8552 16.37 17.313 16.8277L18.8281 18.3429L22.6871 14.4839C23.1448 14.0262 23.8865 14.0262 24.3442 14.4839C24.802 14.9416 24.802 15.6833 24.3442 16.141L19.6567 20.8285C19.4278 21.0574 19.128 21.1719 18.8282 21.1719C18.5284 21.1719 18.2285 21.0574 17.9997 20.8285L15.6559 18.4848C15.198 18.027 15.198 17.2855 15.6559 16.8277Z" fill="white"/>
  <path d="M3.93705 15.6557C3.47932 16.1135 3.47932 16.8551 3.93705 17.3128L6.19955 19.5753C6.34464 19.721 6.449 19.9022 6.50222 20.1008C6.55544 20.2994 6.55565 20.5084 6.50283 20.7071L5.67541 23.7981C5.5083 24.423 5.87908 25.0661 6.50393 25.2332L9.59494 26.0617C9.79344 26.1151 9.9744 26.2197 10.1196 26.3652C10.2649 26.5106 10.3693 26.6917 10.4224 26.8903L11.2509 29.9802C11.4191 30.6062 12.0657 30.9781 12.686 30.8087L15.7759 29.9813C16.1844 29.8737 16.6136 29.9881 16.9088 30.2846L19.1713 32.5471C19.4003 32.776 19.7001 32.8904 19.9999 32.8904C20.2996 32.8904 20.5996 32.776 20.8284 32.5471L23.0909 30.2846C23.3839 29.9904 23.8176 29.8749 24.2227 29.9813L27.3137 30.8087C27.9442 30.9792 28.5817 30.6061 28.7488 29.9802L29.5773 26.8892C29.6306 26.6907 29.7353 26.5097 29.8807 26.3645C30.0261 26.2192 30.2072 26.1148 30.4058 26.0617L33.4957 25.2332C34.1206 25.0661 34.4914 24.423 34.3242 23.7981L33.4968 20.7082C33.3892 20.3042 33.5049 19.8705 33.8001 19.5753L36.0626 17.3128C36.5203 16.855 36.5203 16.1134 36.0626 15.6556L33.8001 13.3931C33.655 13.2475 33.5506 13.0663 33.4974 12.8677C33.4442 12.6691 33.444 12.46 33.4968 12.2613L34.3242 9.17033C34.4914 8.54549 34.1206 7.90236 33.4957 7.73525L30.4047 6.90674C30.2062 6.8534 30.0252 6.74876 29.88 6.60332C29.7348 6.45789 29.6304 6.27679 29.5773 6.07822L28.7488 2.9883C28.5806 2.36229 27.9431 1.99611 27.3137 2.15979L24.2238 2.98721C23.8118 3.09018 23.3838 2.97916 23.0908 2.68393L20.8283 0.343301C20.3706 -0.114434 19.6289 -0.114434 19.1712 0.343301L16.9087 2.68393C16.6135 2.97916 16.1809 3.09135 15.7769 2.98721L12.6859 2.15979C12.0667 1.99846 11.419 2.36236 11.2508 2.9883L10.4223 6.07932C10.3689 6.27781 10.2643 6.45878 10.1189 6.60402C9.97344 6.74926 9.79234 6.85366 9.59377 6.90674L6.50393 7.73525C5.87908 7.90236 5.5083 8.54549 5.67541 9.17033L6.50283 12.2603C6.61041 12.6642 6.49479 13.098 6.19955 13.3932L3.93705 15.6557ZM19.9999 7.10924C25.1692 7.10924 29.3749 11.3149 29.3749 16.4842C29.3749 21.6535 25.1692 25.8592 19.9999 25.8592C14.8306 25.8592 10.6249 21.6535 10.6249 16.4842C10.6249 11.3149 14.8306 7.10924 19.9999 7.10924Z" fill="white"/>
  <path d="M31.6657 28.1505L31.0123 30.587C30.6026 32.1216 29.2087 33.1939 27.6225 33.1939C27.3124 33.1939 27.0023 33.1527 26.7013 33.0715L24.2694 32.4203L23.2435 33.4462L26.6441 39.4141C26.7442 39.5869 26.8867 39.7313 27.058 39.8339C27.2294 39.9364 27.4241 39.9936 27.6237 40H27.6592C27.8531 40 28.0439 39.9519 28.2147 39.86C28.3854 39.7682 28.5308 39.6354 28.6376 39.4736L31.2011 35.5113L35.8475 35.2321C36.047 35.2204 36.2403 35.1578 36.4087 35.0503C36.5772 34.9427 36.7153 34.7937 36.8099 34.6176C36.9044 34.4417 36.9524 34.2445 36.9493 34.0449C36.9463 33.8452 36.8924 33.6496 36.7927 33.4766L33.443 27.6745L31.6657 28.1505ZM3.18941 34.6175C3.28394 34.7936 3.42204 34.9426 3.59053 35.0502C3.75902 35.1578 3.95227 35.2204 4.15183 35.232L8.79816 35.5113L11.3617 39.4735C11.4685 39.6353 11.6138 39.7681 11.7846 39.86C11.9553 39.9518 12.1462 39.9999 12.3401 39.9999H12.3756C12.5752 39.9935 12.7699 39.9363 12.9413 39.8338C13.1127 39.7313 13.2551 39.5868 13.3552 39.414L16.7558 33.4462L15.7299 32.4202L13.2923 33.0726C12.9953 33.1531 12.689 33.1939 12.3814 33.1939C10.7952 33.1939 9.39902 32.1227 8.98707 30.5892L8.33363 28.1505L6.55667 27.6738L3.2066 33.4766C3.10687 33.6496 3.05295 33.8451 3.04994 34.0448C3.04693 34.2445 3.09494 34.4416 3.18941 34.6175Z" fill="white"/>
</svg>