<svg xmlns="http://www.w3.org/2000/svg" width="40" height="40" viewBox="0 0 40 40" fill="none">
  <g clip-path="url(#clip0_158_626)">
    <path d="M20 11.7188C15.4768 11.7188 11.7969 15.3987 11.7969 19.9219C11.7969 24.4451 15.4768 28.125 20 28.125C24.5232 28.125 28.2031 24.4451 28.2031 19.9219C28.2031 15.3987 24.5233 11.7188 20 11.7188ZM25.5162 18.4068L19.2662 24.6568C19.0373 24.8855 18.7374 25 18.4375 25C18.1376 25 17.8377 24.8855 17.6089 24.6567L14.4839 21.5317C14.0262 21.0741 14.0262 20.3321 14.4839 19.8745C14.9415 19.4169 15.6835 19.4169 16.1412 19.8745L18.4375 22.1709L23.8589 16.7495C24.3165 16.2919 25.0585 16.2919 25.5162 16.7495C25.9738 17.2071 25.9738 17.9491 25.5162 18.4068Z" fill="white"/>
    <path d="M34.0625 6.24996C29.3376 6.24996 24.8954 4.40996 21.5544 1.06895L20.8287 0.343242C20.3712 -0.114492 19.6291 -0.114336 19.1714 0.343242L18.4456 1.06895C15.1046 4.40996 10.6625 6.24996 5.9375 6.24996C5.29031 6.24996 4.76562 6.77465 4.76562 7.42184V19.1111C4.76562 28.5072 10.7345 36.8761 19.6184 39.9361C19.8657 40.0213 20.1343 40.0213 20.3816 39.9361C29.2655 36.8761 35.2344 28.5071 35.2344 19.1111V7.42184C35.2344 6.77465 34.7097 6.24996 34.0625 6.24996ZM20 30.4687C14.1845 30.4687 9.45312 25.7374 9.45312 19.9218C9.45312 14.1063 14.1845 9.37496 20 9.37496C25.8155 9.37496 30.5469 14.1063 30.5469 19.9218C30.5469 25.7374 25.8156 30.4687 20 30.4687Z" fill="white"/>
  </g>
  <defs>
    <clipPath id="clip0_158_626">
      <rect width="40" height="40" fill="white"/>
    </clipPath>
  </defs>
</svg>