<svg width="40" height="40" viewBox="0 0 40 40" fill="none" xmlns="http://www.w3.org/2000/svg">
<g id="bandaid" clip-path="url(#clip0_157_1970)">
<g id="Group">
<path id="Vector" d="M5.08054 18.3423L18.3436 5.08006L16.0123 2.74865C12.3509 -0.912754 6.41483 -0.91705 2.74929 2.74857C-0.907041 6.40506 -0.907041 12.3545 2.74929 16.011L5.08054 18.3423ZM34.9194 21.6568L21.6564 34.9191L23.9877 37.2506C27.6491 40.912 33.5852 40.9162 37.2507 37.2506C40.907 33.5942 40.907 27.6447 37.2507 23.9883L34.9194 21.6568ZM37.251 2.74889C33.5945 -0.907441 27.645 -0.907441 23.9886 2.74889L2.74905 23.9873C-0.916025 27.6522 -0.91665 33.5847 2.74897 37.2502C6.40483 40.9061 12.3544 40.9072 16.0114 37.2503L37.2509 16.0119C40.9161 12.3469 40.9166 6.41443 37.251 2.74889ZM15.8538 20.8294C15.3963 21.2869 14.6545 21.2869 14.197 20.8294C13.7395 20.3719 13.7395 19.6301 14.197 19.1726C14.6545 18.7151 15.3963 18.7151 15.8538 19.1726C16.3113 19.6301 16.3113 20.3719 15.8538 20.8294ZM20.8326 25.7943C20.3751 26.2518 19.6334 26.2518 19.1758 25.7943C18.7183 25.3368 18.7183 24.595 19.1758 24.1374C19.6334 23.6799 20.3751 23.6799 20.8326 24.1374C21.2901 24.5949 21.2901 25.3367 20.8326 25.7943ZM19.1325 19.1712C19.59 18.7137 20.3318 18.7137 20.7893 19.1712C21.2468 19.6287 21.2468 20.3704 20.7893 20.8279C20.3318 21.2854 19.59 21.2854 19.1325 20.8279C18.675 20.3704 18.675 19.6287 19.1325 19.1712ZM20.8353 15.8562C20.3778 16.3137 19.636 16.3137 19.1785 15.8562C18.721 15.3987 18.721 14.6569 19.1785 14.1994C19.636 13.7419 20.3778 13.7419 20.8353 14.1994C21.2928 14.6569 21.2928 15.3987 20.8353 15.8562ZM25.8003 20.8211C25.3428 21.2786 24.601 21.2786 24.1435 20.8211C23.686 20.3636 23.686 19.6218 24.1435 19.1643C24.601 18.7068 25.3428 18.7068 25.8003 19.1643C26.2578 19.6218 26.2578 20.3636 25.8003 20.8211Z" fill="white"/>
</g>
</g>
<defs>
<clipPath id="clip0_157_1970">
<rect width="40" height="40" fill="white"/>
</clipPath>
</defs>
</svg>
