<svg width="40" height="40" viewBox="0 0 40 40" fill="none" xmlns="http://www.w3.org/2000/svg">
<g id="cather" clip-path="url(#clip0_157_1977)">
<g id="Group">
<path id="Vector" d="M10.6775 5.23535C10.0023 5.23535 9.45508 5.78262 9.45508 6.45777C9.51031 7.26402 10.0863 7.68027 10.6775 7.68027C11.2964 7.68027 11.8078 7.22035 11.8885 6.62348C11.9491 5.7402 11.3223 5.23535 10.6775 5.23535Z" fill="white"/>
<path id="Vector_2" d="M34.1437 4.82156C33.24 4.82156 32.5075 5.55414 32.5075 6.45781V26.6305C32.5075 32.1981 27.9779 36.7275 22.4104 36.7275C17.1126 36.7275 12.755 32.6263 12.3452 27.4321C14.3666 26.7657 15.8786 24.925 16.0304 22.7005C16.0364 22.6111 17.1354 6.54734 17.1354 6.45781C17.1354 2.89688 14.2384 0 10.6775 0C7.11668 0 4.21973 2.89695 4.21973 6.45781C4.21973 6.54391 5.31801 22.6144 5.32387 22.7002C5.47699 24.9459 7.01629 26.8006 9.06668 27.4508C9.49207 34.4422 15.314 40 22.4105 40C29.7824 40 35.7801 34.0026 35.7801 26.6305V6.45781C35.78 5.55414 35.0474 4.82156 34.1437 4.82156ZM10.6776 9.64297C8.97691 9.64297 7.63707 8.51188 7.49277 6.40719C7.51973 4.67414 8.93801 3.27258 10.6775 3.27258C12.4171 3.27258 13.8356 4.6743 13.8624 6.40766C13.711 8.61945 12.1664 9.64133 10.6805 9.64297H10.6776Z" fill="white"/>
</g>
</g>
<defs>
<clipPath id="clip0_157_1977">
<rect width="40" height="40" fill="white"/>
</clipPath>
</defs>
</svg>
