<svg width="40" height="40" viewBox="0 0 40 40" fill="none" xmlns="http://www.w3.org/2000/svg">
<g id="foot-care" clip-path="url(#clip0_157_1985)">
<g id="Group">
<path id="Vector" fill-rule="evenodd" clip-rule="evenodd" d="M38.612 31.0613C37.2631 32.3077 34.2741 33.1595 33.3896 33.3905C31.4408 33.8998 29.7241 33.9225 27.9061 33.9459C26.8839 33.9592 25.8449 33.9727 24.7463 34.0758C25.7694 32.3839 26.7711 30.6791 27.751 28.9619C30.4369 29.5709 32.5085 29.4755 35.7199 29.0592C36.436 28.9666 38.6152 28.6836 39.0588 29.4899C39.2558 29.8476 39.3831 30.3495 38.612 31.0612L38.612 31.0613ZM33.8023 13.0797C33.6702 12.7451 33.4341 12.5 33.1008 12.3534L28.8191 10.8822C28.9805 11.7425 28.7988 12.6916 28.4009 13.3677C26.9993 16.1128 23.3098 23.0988 19.1365 29.0623C16.801 32.3992 14.6298 34.9707 12.6824 36.7054C11.1909 38.0337 9.80297 38.8906 8.53195 39.2706C8.55508 39.2723 8.57828 39.2737 8.60172 39.275C10.1902 39.361 12.3806 38.3776 14.9174 37.2382C15.8491 36.8199 16.8443 36.3729 17.8872 35.9452C19.2692 34.0155 20.4372 32.3151 21.3593 30.8877C21.5297 30.6251 21.8807 30.5496 22.1434 30.7193C22.2061 30.7597 22.2602 30.812 22.3026 30.8734C22.345 30.9347 22.3749 31.0038 22.3906 31.0767C22.4063 31.1496 22.4074 31.2249 22.394 31.2982C22.3805 31.3716 22.3527 31.4416 22.3122 31.5041C21.6102 32.5909 20.7687 33.8329 19.8006 35.2108C20.1918 35.0719 20.5857 34.9408 20.982 34.8175C21.743 34.5812 22.519 34.3961 23.3047 34.2634C27.5605 27.2747 31.0359 20.8246 33.6349 15.0879C33.9503 14.3691 34.0145 13.6159 33.8022 13.0796L33.8023 13.0797ZM25.933 13.8235L26.7432 14.102C26.9634 13.681 27.1815 13.2589 27.3976 12.8358C27.4034 12.8245 27.4096 12.8134 27.4163 12.8026C27.8169 12.1341 27.8838 11.0021 27.4089 10.3974L27.1412 10.3057C26.6741 10.1451 26.1698 10.1767 25.7223 10.3956C25.2741 10.6145 24.9391 10.9925 24.7784 11.4607C24.6177 11.9274 24.6494 12.432 24.8683 12.8796C25.0872 13.3279 25.4652 13.6629 25.933 13.8235H25.933ZM14.9789 21.1853C14.5722 19.1369 14.2259 17.288 13.9249 15.5551C9.53438 15.5397 5.96812 11.9645 5.96812 7.57031C5.96812 7.4993 5.96914 7.42844 5.97102 7.35789L0.791016 8.74602L4.50508 19.1396C4.6575 19.5657 4.80445 19.9679 4.94445 20.3537C5.86727 22.887 6.55312 24.7696 6.76242 27.7098C10.8841 26.4011 13.6456 24.2084 14.979 21.1852L14.9789 21.1853ZM18.2066 28.412C18.735 27.6559 19.2517 26.8918 19.7566 26.1199C18.882 25.6841 18.0611 25.2069 17.213 24.6428C16.4448 24.1313 15.8635 23.4854 15.4743 22.7138C13.8288 25.5648 10.9234 27.6359 6.81383 28.883C6.82039 30.1877 6.61531 31.3459 6.41719 32.4691C6.32258 33.0045 6.23016 33.5279 6.16234 34.0548C9.05016 33.1708 11.7175 30.2549 12.5148 29.3219C12.5632 29.2652 12.6223 29.2186 12.6887 29.1847C12.7551 29.1509 12.8276 29.1305 12.9019 29.1247C12.9762 29.1189 13.0509 29.1278 13.1218 29.1509C13.1927 29.174 13.2583 29.2109 13.3149 29.2594C13.3717 29.3077 13.4183 29.3667 13.4522 29.4331C13.486 29.4995 13.5064 29.5719 13.5123 29.6462C13.5181 29.7205 13.5092 29.7952 13.486 29.8661C13.4629 29.9369 13.426 30.0025 13.3775 30.0591C12.4898 31.0998 9.42367 34.4377 6.06031 35.2598C6.04695 35.6609 6.05641 36.0703 6.09789 36.4944C6.1743 37.2827 6.36 37.8904 6.66938 38.3344C9.4125 38.7102 13.3944 35.2881 18.2066 28.412ZM7.10312 7.57031C7.10312 3.79336 10.1758 0.720703 13.9531 0.720703C17.7305 0.720703 20.8031 3.79336 20.8031 7.57031C20.8031 11.3473 17.7305 14.4203 13.9531 14.4203C10.1757 14.4203 7.10312 11.3477 7.10312 7.57031ZM9.67758 8.63437C9.67778 8.72548 9.71407 8.81279 9.77849 8.87721C9.84291 8.94164 9.93022 8.97792 10.0213 8.97812H12.5455V11.5023C12.5458 11.5934 12.582 11.6808 12.6465 11.7452C12.7109 11.8096 12.7982 11.8459 12.8893 11.8461H15.017C15.1081 11.8459 15.1954 11.8096 15.2599 11.7452C15.3243 11.6808 15.3606 11.5934 15.3608 11.5023V8.97812H17.885C17.9761 8.97792 18.0634 8.94164 18.1278 8.87721C18.1923 8.81279 18.2285 8.72548 18.2287 8.63437V6.50664C18.2285 6.41554 18.1923 6.32822 18.1278 6.2638C18.0634 6.19938 17.9761 6.1631 17.885 6.16289H15.3608V3.63867C15.3606 3.54757 15.3243 3.46025 15.2599 3.39583C15.1954 3.33141 15.1081 3.29513 15.017 3.29492H12.8893C12.7982 3.29513 12.7109 3.33141 12.6465 3.39583C12.582 3.46025 12.5458 3.54757 12.5455 3.63867V6.16289H10.0213C9.93022 6.1631 9.84291 6.19938 9.77849 6.2638C9.71407 6.32822 9.67778 6.41554 9.67758 6.50664V8.63437Z" fill="white"/>
</g>
</g>
<defs>
<clipPath id="clip0_157_1985">
<rect width="40" height="40" fill="white"/>
</clipPath>
</defs>
</svg>
