<svg width="40" height="40" viewBox="0 0 40 40" fill="none" xmlns="http://www.w3.org/2000/svg">
<g id="medication">
<g id="Group">
<path id="Vector" d="M28.1447 16.5342C27.5647 16.5342 27.0923 17.0065 27.0923 17.5865C27.0908 17.7252 27.1171 17.8628 27.1695 17.9912C27.2219 18.1195 27.2994 18.2362 27.3974 18.3342C27.4955 18.4322 27.6122 18.5097 27.7406 18.562C27.869 18.6143 28.0066 18.6405 28.1453 18.6389C28.7253 18.6389 29.1971 18.1665 29.1971 17.5859C29.1971 17.0054 28.7253 16.5342 28.1447 16.5342ZM34.0753 30.3148C33.4906 30.3148 33.0147 30.7907 33.0147 31.3754C33.0147 31.9554 33.4912 32.4271 34.0753 32.4271C34.3543 32.4271 34.622 32.3163 34.8194 32.1191C35.0168 31.9219 35.1279 31.6544 35.1282 31.3754C35.1282 30.7907 34.6559 30.3148 34.0753 30.3148ZM28.1447 23.4242C27.5647 23.4242 27.0923 23.8965 27.0923 24.4771C27.0923 25.0612 27.5647 25.5371 28.1453 25.5371C28.7259 25.5371 29.1971 25.0612 29.1971 24.4765C29.1971 23.8965 28.7253 23.4242 28.1447 23.4242ZM34.0753 23.4242C33.4906 23.4242 33.0147 23.8965 33.0147 24.4771C33.0147 25.0612 33.4912 25.5371 34.0753 25.5371C34.6559 25.5371 35.1282 25.0612 35.1282 24.4765C35.1282 23.8965 34.6559 23.4242 34.0753 23.4242Z" fill="white"/>
<path id="Vector_2" d="M37.0871 11.4521H25.1335C24.6731 11.4526 24.2316 11.6357 23.906 11.9612C23.5803 12.2868 23.3971 12.7282 23.3965 13.1886V34.8033C23.397 35.2638 23.5801 35.7053 23.9058 36.0309C24.2315 36.3565 24.673 36.5395 25.1335 36.5398H37.0865C37.547 36.5395 37.9885 36.3565 38.3142 36.0309C38.6399 35.7053 38.8231 35.2638 38.8235 34.8033V13.1886C38.8229 12.7283 38.6398 12.287 38.3143 11.9614C37.9887 11.6359 37.5474 11.4528 37.0871 11.4521ZM28.1447 33.6033C26.9153 33.6033 25.9159 32.6033 25.9159 31.3751C25.9159 30.1416 26.9159 29.138 28.1453 29.138C29.3747 29.138 30.3735 30.1416 30.3735 31.3751C30.3735 32.6039 29.3735 33.6033 28.1447 33.6033ZM28.1447 26.7133C27.5527 26.7116 26.9855 26.4751 26.5677 26.0557C26.1498 25.6363 25.9154 25.0683 25.9159 24.4763C25.9159 23.2474 26.9159 22.2474 28.1453 22.2474C29.3747 22.2474 30.3735 23.2474 30.3735 24.4769C30.3739 25.0688 30.1394 25.6367 29.7215 26.0559C29.3037 26.4752 28.7366 26.7116 28.1447 26.7133ZM28.1447 19.8151C26.9153 19.8151 25.9159 18.8151 25.9159 17.5857C25.9159 16.3574 26.9159 15.3574 28.1453 15.3574C29.3747 15.3574 30.3735 16.3574 30.3735 17.5863C30.3735 18.8151 29.3735 19.8151 28.1447 19.8151ZM34.0753 33.6033C32.8424 33.6033 31.8383 32.6033 31.8383 31.3751C31.8389 30.782 32.0748 30.2133 32.4942 29.7939C32.9136 29.3745 33.4822 29.1387 34.0753 29.138C34.6674 29.1396 35.2347 29.376 35.6527 29.7954C36.0707 30.2148 36.3052 30.783 36.3047 31.3751C36.3047 32.6039 35.3047 33.6033 34.0753 33.6033ZM34.0753 26.7133C33.4822 26.7127 32.9136 26.4768 32.4942 26.0574C32.0748 25.638 31.8389 25.0694 31.8383 24.4763C31.84 23.8842 32.0765 23.3171 32.4959 22.8992C32.9153 22.4814 33.4833 22.247 34.0753 22.2474C35.3047 22.2474 36.3047 23.2474 36.3047 24.4769C36.305 25.0689 36.0705 25.6368 35.6525 26.0561C35.2346 26.4754 34.6673 26.7118 34.0753 26.7133ZM34.0753 19.8151C32.8424 19.8151 31.8383 18.8151 31.8383 17.5857C31.8401 16.9938 32.0767 16.4267 32.4961 16.009C32.9154 15.5913 33.4834 15.357 34.0753 15.3574C35.3047 15.3574 36.3047 16.3574 36.3047 17.5863C36.3047 18.8151 35.3047 19.8151 34.0753 19.8151Z" fill="white"/>
<path id="Vector_3" d="M28.1445 30.3149C27.5645 30.3149 27.0921 30.7908 27.0921 31.3755C27.1013 31.6485 27.2162 31.9072 27.4125 32.0971C27.6089 32.287 27.8713 32.3932 28.1445 32.3932C28.4177 32.3932 28.6801 32.287 28.8765 32.0971C29.0729 31.9072 29.1877 31.6485 29.1969 31.3755C29.1969 30.7908 28.7251 30.3149 28.1445 30.3149ZM34.0751 16.5343C33.4904 16.5343 33.0145 17.0066 33.0145 17.5866C33.0145 18.1666 33.491 18.639 34.0751 18.639C34.6557 18.639 35.128 18.1666 35.128 17.586C35.128 17.0055 34.6557 16.5343 34.0751 16.5343ZM17.408 4.18193C15.6786 3.70957 13.6551 3.45898 11.5551 3.45898C9.45509 3.45898 7.43156 3.70957 5.70274 4.18251C2.82627 4.96781 1.17627 6.28251 1.17627 7.78898C1.17627 7.86781 1.18509 7.94663 1.19509 8.02604L1.1945 8.03075L3.33098 32.9172C3.32986 33.0006 3.33438 33.0839 3.3445 33.1666C3.6545 35.3796 7.70921 36.5372 11.5551 36.5372C15.401 36.5372 19.4563 35.3796 19.7663 33.1666L19.7704 33.1196C19.7767 33.069 19.7792 33.0181 19.778 32.9672L21.9163 8.03193L21.9157 8.02781C21.9251 7.94898 21.9339 7.86957 21.9339 7.79016C21.9339 6.28428 20.2839 4.96898 17.408 4.1831V4.18193ZM6.01392 5.31722C7.64215 4.87134 9.55862 4.63546 11.5551 4.63546C13.5516 4.63546 15.468 4.87075 17.0974 5.31722C19.321 5.92487 20.7574 6.89546 20.7574 7.78957C20.7574 7.82898 20.7516 7.8684 20.7469 7.90604C20.5574 9.3731 16.8186 10.9437 11.5551 10.9437C10.568 10.9437 9.63509 10.889 8.76862 10.7896C5.01568 10.3584 2.51862 9.0984 2.36392 7.90663C2.35921 7.86781 2.35274 7.8284 2.35274 7.78957C2.35274 6.89546 3.78921 5.92487 6.01333 5.31722H6.01392Z" fill="white"/>
</g>
</g>
</svg>
