<svg width="40" height="40" viewBox="0 0 40 40" fill="none" xmlns="http://www.w3.org/2000/svg">
<g id="ostomy">
<g id="Group">
<path id="Vector" fill-rule="evenodd" clip-rule="evenodd" d="M13.7001 6.27793C13.7001 7.5709 14.7517 8.62246 16.0446 8.62246C17.3376 8.62246 18.3892 7.5709 18.3892 6.27793V4.76934C18.3892 3.47637 17.3376 2.4248 16.0446 2.4248C14.7517 2.4248 13.7001 3.47637 13.7001 4.76934V6.27793ZM24.7814 15.7029H26.5923C26.8509 15.7029 27.0611 15.9131 27.0611 16.1717V17.799H28.6892C28.9478 17.799 29.1579 18.0092 29.1579 18.2678V20.0787C29.1579 20.3381 28.9478 20.5475 28.6892 20.5475H27.0611V22.1748C27.0611 22.4342 26.8509 22.6436 26.5923 22.6436H24.7814C24.522 22.6436 24.3126 22.4342 24.3126 22.1748V20.5475H22.6845C22.4259 20.5475 22.2157 20.3381 22.2157 20.0787V18.2678C22.2157 18.0092 22.4259 17.799 22.6845 17.799H24.3126V16.1717C24.3126 15.9131 24.522 15.7029 24.7814 15.7029ZM28.1946 13.1279H23.1782C22.547 14.1037 21.7103 14.8412 20.6845 15.3264C20.4493 20.9717 20.8509 23.1818 25.6861 26.3576C30.5212 23.1818 30.9236 20.9717 30.6876 15.3264C29.6626 14.8412 28.8259 14.1037 28.1946 13.1279ZM26.1236 16.6404H25.2501V18.2678C25.2501 18.5271 25.04 18.7365 24.7814 18.7365H23.154V19.61H24.7814C25.04 19.61 25.2501 19.8201 25.2501 20.0787V21.7061H26.1236V20.0787C26.1236 19.8201 26.3337 19.61 26.5923 19.61H28.2196V18.7365H26.5923C26.3337 18.7365 26.1236 18.5271 26.1236 18.2678V16.6404ZM29.2665 11.3373H22.1071C21.4915 12.7881 20.4321 13.6959 18.9517 14.042C18.7814 17.4818 18.6821 19.9959 19.5025 22.1803C20.3548 24.4506 22.2103 26.3428 25.6861 28.4771C29.1618 26.3428 31.0173 24.4506 31.8696 22.1803C32.69 19.9959 32.5907 17.4818 32.4204 14.042C30.9415 13.6959 29.8821 12.7881 29.2665 11.3373ZM22.9181 12.1904C22.7525 12.1904 22.5993 12.2779 22.515 12.4201C21.922 13.4217 21.0923 14.149 20.0493 14.5826C19.8814 14.6529 19.7689 14.8131 19.7611 14.9951C19.6361 17.8139 19.6025 20.1256 20.3907 22.0826C21.1454 23.9584 22.6532 25.5225 25.4329 27.3115C25.5103 27.3607 25.5986 27.3857 25.6868 27.3857C25.7751 27.3857 25.8634 27.3607 25.9407 27.3115C28.7204 25.5225 30.2282 23.9584 30.9837 22.0826C31.7712 20.1256 31.7384 17.8139 31.6134 14.9951C31.6093 14.9061 31.5801 14.8201 31.5291 14.7471C31.478 14.674 31.4073 14.617 31.3251 14.5826C30.2821 14.149 29.4532 13.4217 28.8595 12.4201C28.818 12.3502 28.759 12.2922 28.6883 12.2519C28.6176 12.2116 28.5377 12.1905 28.4564 12.1904H22.9181ZM15.3861 9.49355L12.3376 9.85215C11.4009 9.9623 10.6767 10.5662 10.3993 11.467L7.37043 21.3201C7.19152 21.9029 7.51652 22.5334 8.09543 22.7256C8.68058 22.9193 9.31808 22.6084 9.52277 22.0334L11.6275 16.117V14.7701C11.6275 14.5115 11.8376 14.3014 12.0962 14.3014C12.3548 14.3014 12.565 14.5115 12.565 14.7701V22.2779C12.565 22.2904 12.565 22.3029 12.5634 22.3154L11.4353 36.2998C11.4259 36.4173 11.3726 36.5269 11.286 36.6068C11.1995 36.6868 11.0859 36.7311 10.9681 36.7311H10.3345C9.8259 36.7311 9.14387 37.1654 9.14387 37.6092V38.2061H13.3407L15.5806 23.185C15.5972 23.0739 15.6531 22.9725 15.7381 22.8991C15.8231 22.8257 15.9316 22.7852 16.0439 22.785C16.2759 22.785 16.4736 22.9553 16.5071 23.185L18.747 38.2061H22.9446V37.6092C22.9446 37.1654 22.2626 36.7311 21.754 36.7311H21.1212C20.8767 36.7311 20.6736 36.5436 20.654 36.2998L19.7064 24.5521C17.6392 21.5873 17.7962 18.4014 18.0298 13.7021L18.0329 13.6303C18.0383 13.5233 18.0801 13.4214 18.1515 13.3415C18.2229 13.2616 18.3194 13.2086 18.4251 13.1912C19.8548 12.9568 20.8048 12.1576 21.3298 10.7514C20.9595 10.2506 20.4025 9.92871 19.7509 9.85215L16.7025 9.49355C16.49 9.5373 16.2696 9.55996 16.0439 9.55996C15.8189 9.55996 15.5993 9.5373 15.3861 9.49355Z" fill="white"/>
</g>
</g>
</svg>
