<svg width="40" height="40" viewBox="0 0 40 40" fill="none" xmlns="http://www.w3.org/2000/svg">
<g id="palliative">
<g id="Group">
<path id="Vector" fill-rule="evenodd" clip-rule="evenodd" d="M16.1123 24.8997L9.81127 19.9626C8.77975 19.1544 7.11207 19.779 7.16351 20.6937C7.17687 20.9308 7.30551 21.1503 7.50415 21.306L11.9078 24.7565C12.0193 24.8473 12.0907 24.9782 12.1068 25.1211C12.1228 25.264 12.0822 25.4075 11.9937 25.5208C11.9052 25.6341 11.7758 25.7082 11.6333 25.7272C11.4908 25.7463 11.3465 25.7087 11.2314 25.6225L6.82767 22.1721C5.88407 21.4327 5.79567 20.1088 6.66375 19.2745C6.70112 19.2385 6.74344 19.2079 6.78943 19.1838C6.65095 18.9245 6.54047 18.6488 6.45487 18.3518L4.75519 12.4564C4.62143 11.9923 4.15567 11.677 3.60399 11.677C3.22543 11.677 2.93359 11.7565 2.66543 12.0093C2.43247 12.2288 2.32759 12.4941 2.35615 12.7914C2.65447 15.8952 2.57927 21.0229 4.27983 23.6589C5.50991 25.5657 7.17175 26.225 8.82119 27.7793C10.7426 29.5899 11.0798 31.6632 11.0595 33.8686C11.053 34.5695 11.7088 35.0567 12.4187 35.0567H18.6754V28.8446C18.6754 26.8409 17.5296 26.1609 16.1123 24.8997ZM26.7303 4.9571H29.953V7.52062H32.5166V10.7433H29.953V13.3069H26.7303V10.7433H24.1668V7.52062H26.7303V4.9571ZM19.8448 21.8048C8.97599 16.3776 9.19495 4.6339 15.5241 4.95062C16.7966 5.0143 18.3092 5.77014 20.0354 6.95846C21.7638 5.83822 23.2834 5.12406 24.5448 5.08182C24.9574 5.06798 25.3431 5.1043 25.7009 5.18542V6.49118H23.1374V11.7729H25.7009V14.3364H27.8085C26.4981 17.1083 23.92 19.9109 19.8448 21.8048ZM23.8882 24.8997C22.4709 26.1608 21.325 26.8409 21.325 28.8445V35.0565H27.5818C28.2917 35.0565 28.9474 34.5693 28.941 33.8685C28.9206 31.663 29.2579 29.5898 31.1793 27.7793C32.8288 26.2249 34.4906 25.5656 35.7206 23.6589C37.4211 21.0229 37.346 15.8951 37.6443 12.7913C37.6729 12.4941 37.568 12.2287 37.335 12.0092C37.0669 11.7565 36.775 11.6769 36.3965 11.6769C35.8448 11.6769 35.379 11.9922 35.2453 12.4563L33.5456 18.3517C33.46 18.6486 33.3495 18.9245 33.211 19.1837C33.257 19.2079 33.2993 19.2385 33.3367 19.2745C34.2049 20.1087 34.1164 21.4326 33.1728 22.172L28.7691 25.6224C28.6543 25.7121 28.5085 25.7525 28.3638 25.7347C28.2192 25.7169 28.0875 25.6424 27.9978 25.5276C27.9081 25.4127 27.8677 25.2669 27.8855 25.1223C27.9033 24.9777 27.9778 24.846 28.0926 24.7563L32.4963 21.3058C32.695 21.1501 32.8236 20.9306 32.837 20.6935C32.8884 19.7789 31.2206 19.1542 30.1892 19.9625L23.8882 24.8997Z" fill="white"/>
</g>
</g>
</svg>
