<svg width="40" height="40" viewBox="0 0 40 40" fill="none" xmlns="http://www.w3.org/2000/svg">
<g id="vitals">
<g id="Group">
<path id="Vector" fill-rule="evenodd" clip-rule="evenodd" d="M14.2834 34.0548C14.7144 32.8256 15.032 31.2337 15.1065 29.67H24.8161C24.9076 31.2337 25.2536 32.8256 25.7024 34.0548H14.2834ZM1.17627 23.745H38.8233V25.8706C38.8233 27.3624 37.6138 28.5719 36.122 28.5719H3.8798C2.38576 28.5719 1.17627 27.3624 1.17627 25.8706V23.745ZM18.5135 26.433H21.4861C21.7891 26.433 22.0351 26.187 22.0351 25.8839C22.0351 25.581 21.7891 25.3349 21.4861 25.3349H18.5135C18.2105 25.3349 17.9645 25.581 17.9645 25.8839C17.9645 26.187 18.2105 26.433 18.5135 26.433ZM25.7253 22.647H1.17627V4.26017C1.17627 2.76613 2.38576 1.55664 3.8798 1.55664H25.7253V22.647ZM3.52921 14.5882H7.7645C7.87584 14.5883 7.98454 14.5544 8.07619 14.4912C8.16784 14.428 8.23811 14.3384 8.27768 14.2344L9.75196 10.3576L11.5431 18.1621C11.5703 18.2805 11.636 18.3866 11.73 18.4637C11.824 18.5408 11.9409 18.5845 12.0624 18.588C12.1839 18.5915 12.3032 18.5546 12.4014 18.483C12.4997 18.4114 12.5714 18.3093 12.6054 18.1926L14.1374 12.9253H16.0782C16.1974 12.9254 16.3134 12.8866 16.4086 12.8148C16.5039 12.7431 16.5731 12.6423 16.606 12.5277L17.2083 10.4274L18.5966 18.2141C18.6184 18.3361 18.6808 18.4472 18.7737 18.5292C18.8667 18.6113 18.9846 18.6595 19.1084 18.6659C19.2323 18.6724 19.3546 18.6368 19.4556 18.5648C19.5566 18.4929 19.6302 18.3889 19.6646 18.2698L20.7265 14.5882H23.9214C24.2243 14.5882 24.4704 14.3422 24.4704 14.0392C24.4704 13.7362 24.2243 13.4902 23.9214 13.4902H20.3135C20.1945 13.4902 20.0786 13.5289 19.9834 13.6005C19.8883 13.6721 19.819 13.7727 19.786 13.8871L19.2634 15.6987L17.8736 7.90362C17.8518 7.7815 17.7893 7.67036 17.6963 7.58831C17.6033 7.50625 17.4852 7.45812 17.3613 7.45176C17.2374 7.44539 17.115 7.48116 17.0141 7.55325C16.9131 7.62533 16.8396 7.72948 16.8054 7.84872L15.6645 11.8273H13.7253C13.6064 11.8273 13.4908 11.8659 13.3957 11.9372C13.3007 12.0086 13.2313 12.1089 13.1982 12.223L12.1409 15.8579L10.4173 8.34778C10.391 8.23296 10.3284 8.12966 10.2388 8.05314C10.1493 7.97662 10.0375 7.93093 9.91995 7.92282C9.80243 7.91471 9.68542 7.94462 9.58621 8.00812C9.48699 8.07162 9.41083 8.16535 9.36898 8.27546L7.38592 13.4902H3.52921C3.22623 13.4902 2.98019 13.7362 2.98019 14.0392C2.98019 14.3422 3.22623 14.5882 3.52921 14.5882ZM26.8233 1.55664H36.8379C37.934 1.55664 38.8233 2.44597 38.8233 3.54205V22.647H26.8233V1.55664ZM29.7174 20.8301H35.835C36.1381 20.8301 36.384 20.5841 36.384 20.2811C36.384 19.9781 36.1381 19.7321 35.835 19.7321H29.7174C29.4144 19.7321 29.1683 19.9781 29.1683 20.2811C29.1683 20.5841 29.4144 20.8301 29.7174 20.8301ZM32.7764 6.21421C32.3209 5.67633 31.7785 5.41178 30.9369 5.41178C29.6022 5.41178 28.5488 6.41139 28.5488 7.60221C28.5488 8.34558 28.8562 9.09554 29.3793 9.83884C30.0762 10.829 31.165 11.8231 32.274 12.813C32.4119 12.9371 32.591 13.0058 32.7765 13.0057C32.9621 13.0056 33.141 12.9368 33.2789 12.8126C34.3875 11.8231 35.4763 10.829 36.1731 9.83884C36.6963 9.09554 37.0036 8.34558 37.0036 7.60221C37.0036 6.41139 35.9502 5.41178 34.6155 5.41178C33.7738 5.41178 33.2315 5.67633 32.7764 6.21421ZM32.7762 11.7893C31.8138 10.9278 30.884 10.069 30.2772 9.20684C29.8992 8.66974 29.6469 8.13939 29.6469 7.60221C29.6469 6.98103 30.2407 6.50982 30.9369 6.50982C31.5223 6.50982 31.8466 6.74699 32.1441 7.20456C32.2854 7.42378 32.5124 7.54778 32.7764 7.54778C33.038 7.54778 33.2648 7.42535 33.4084 7.20527L33.4089 7.20433C33.706 6.74692 34.0302 6.50982 34.6155 6.50982C35.3118 6.50982 35.9056 6.98103 35.9056 7.60221C35.9056 8.13939 35.6532 8.66974 35.2752 9.20684C34.6684 10.069 33.7385 10.9278 32.7762 11.7893ZM29.7174 15.6133H35.835C36.1381 15.6133 36.384 15.3673 36.384 15.0643C36.384 14.7613 36.1381 14.5153 35.835 14.5153H29.7174C29.4144 14.5153 29.1683 14.7613 29.1683 15.0643C29.1683 15.3673 29.4144 15.6133 29.7174 15.6133ZM29.7174 18.2217H35.835C36.1381 18.2217 36.384 17.9757 36.384 17.6727C36.384 17.3697 36.1381 17.1237 35.835 17.1237H29.7174C29.4144 17.1237 29.1683 17.3697 29.1683 17.6727C29.1683 17.9757 29.4144 18.2217 29.7174 18.2217ZM11.2011 35.1529H28.8007C29.7056 35.1529 30.4459 35.8933 30.4459 36.7981C30.4459 37.703 29.7056 38.4434 28.8007 38.4434H11.2011C10.2962 38.4434 9.55588 37.703 9.55588 36.7981C9.55588 35.8933 10.2962 35.1529 11.2011 35.1529Z" fill="white"/>
</g>
</g>
</svg>
