<svg width="40" height="40" viewBox="0 0 40 40" fill="none" xmlns="http://www.w3.org/2000/svg">
<g id="accompaniment" clip-path="url(#clip0_157_1547)">
<g id="Group">
<path id="Vector" d="M38.2015 19.5602L33.0368 15.2748L31.9585 13.5823L32.1868 10.9272L32.1884 10.9079C32.3001 9.60918 31.3353 8.47464 30.0471 8.36385L25.8696 8.00468C24.8139 7.91387 23.8456 8.54009 23.4751 9.49973L25.5914 9.19957L19.4204 11.6037C19.1781 11.6981 18.9629 11.8509 18.794 12.0486C18.625 12.2462 18.5076 12.4826 18.4521 12.7366L17.108 18.8919C16.9222 19.7421 17.4608 20.583 18.3121 20.7689C19.1655 20.9554 20.0045 20.4108 20.1893 19.5648L21.3532 14.2356L26.9415 12.0584L22.9103 14.9771L22.4001 22.1743C22.4174 22.3217 22.2813 21.4416 23.5376 29.4437L20.5219 37.4394C20.1531 38.4171 20.6468 39.5089 21.6248 39.8778C22.6031 40.2467 23.6946 39.7526 24.0631 38.7749L27.2552 30.3116C27.3708 30.0051 27.4049 29.6739 27.3541 29.3503L26.2799 22.5077L27.278 22.5935L30.2974 29.2748L32.4008 38.5267C32.6324 39.5456 33.6464 40.184 34.6656 39.9524C35.6848 39.7206 36.3229 38.7067 36.0913 37.6876L33.9456 28.2497C33.9175 28.126 33.877 28.0054 33.8246 27.8899L31.2236 22.1342L31.5666 18.1451L36.1914 21.9826C36.8605 22.538 37.853 22.4453 38.4081 21.7765C38.963 21.1079 38.8706 20.1154 38.2015 19.5602ZM15.5792 19.5952C15.5065 18.9866 15.6212 18.6043 15.7549 17.9925L13.4981 16.6221C13.4981 16.6221 13.096 12.4244 13.0184 10.8727C12.9537 9.57578 12.1709 8.4399 10.8772 8.32871L6.69956 7.96954C5.40568 7.85835 4.26672 8.81705 4.15553 10.1108L3.92752 12.7624L6.63545 10.368L2.80814 15.7729C2.65788 15.9851 2.56242 16.2311 2.53024 16.4891C2.49807 16.7472 2.53018 17.0091 2.62372 17.2517L4.89092 23.13C5.20785 23.9516 6.13008 24.3422 6.92971 24.0339C7.74034 23.7211 8.14767 22.8093 7.83356 21.9951L5.87068 16.9057L9.33666 12.011L7.49101 16.8998L9.246 21.4501C9.85786 23.0367 9.07513 24.8288 7.47451 25.446C5.87873 26.0615 4.09182 25.2654 3.47848 23.6745L3.03467 22.5239L2.54097 24.7471C2.51215 24.8769 2.51285 25.0115 2.54301 25.141C2.57317 25.2705 2.63202 25.3915 2.71522 25.4952C2.79842 25.5989 2.90385 25.6826 3.02372 25.7401C3.1436 25.7976 3.27485 25.8275 3.4078 25.8275H14.266L13.8217 20.5019C16.2736 21.9908 16.3456 22.1128 16.9132 22.1128C17.0704 22.1128 17.2263 22.0887 17.3758 22.043C16.4044 21.6034 15.7092 20.6835 15.5792 19.5952ZM28.6671 6.98387C30.575 7.1479 32.2679 5.73547 32.4331 3.81417C32.5978 1.89891 31.1786 0.212859 29.2634 0.0481576C27.3483 -0.116544 25.6621 1.30273 25.4974 3.21786C25.3318 5.1456 26.7674 6.82065 28.6671 6.98387ZM7.91873 27.6266H4.08767L4.36744 29.4087L1.35171 37.4043C0.983011 38.3821 1.47658 39.4738 2.4546 39.8428C3.43288 40.2116 4.52437 39.7175 4.89293 38.7399L8.08504 30.2767C8.20065 29.9702 8.23471 29.639 8.18389 29.3155L7.91873 27.6266ZM14.5512 27.6266H10.398L11.1269 29.2398L13.2305 38.4917C13.4621 39.5106 14.4761 40.149 15.4953 39.9174C16.5145 39.6856 17.1526 38.6717 16.921 37.6526C14.8192 28.4198 14.7769 27.9871 14.5512 27.6266Z" fill="white"/>
<path id="Vector_2" d="M9.7953 6.9612C11.7176 6.9612 13.2759 5.40288 13.2759 3.4806C13.2759 1.55832 11.7176 0 9.7953 0C7.87301 0 6.3147 1.55832 6.3147 3.4806C6.3147 5.40288 7.87301 6.9612 9.7953 6.9612Z" fill="white"/>
</g>
</g>
<defs>
<clipPath id="clip0_157_1547">
<rect width="40" height="40" fill="white"/>
</clipPath>
</defs>
</svg>
