<svg width="40" height="40" viewBox="0 0 40 40" fill="none" xmlns="http://www.w3.org/2000/svg">
<g id="cleaning-window" clip-path="url(#clip0_157_1579)">
<g id="Group">
<path id="Vector" d="M21.5762 13.7577C21.5762 13.8183 21.6368 13.8183 21.6368 13.8789L26.3034 8.96982L27.5762 10.1819C27.8186 10.4244 28.1822 10.4244 28.4246 10.1819C28.6671 9.93951 28.6671 9.57588 28.4246 9.33345L25.6368 6.66679C25.3943 6.42436 25.0307 6.42436 24.7883 6.66679C24.5459 6.90921 24.5459 7.27285 24.7883 7.51527L26.0004 8.66679L21.3943 13.5759L21.5762 13.7577ZM7.21252 11.6365C7.75798 11.5153 8.30343 11.4547 8.78828 11.4547C9.33373 11.4547 9.87919 11.5153 10.364 11.6365C11.2731 11.091 11.8792 10.1213 11.8792 8.96982C11.8792 7.27285 10.4852 5.87891 8.78828 5.87891C7.09131 5.87891 5.69737 7.27285 5.69737 8.96982C5.69737 10.1213 6.30343 11.091 7.21252 11.6365ZM12.9095 31.0304C11.758 31.4547 10.5459 31.6971 9.33373 31.7577L10.1822 37.8789C10.3034 38.9092 11.2731 39.5759 12.2428 39.3941C13.2125 39.2728 13.9398 38.3638 13.8186 37.3335L12.9095 31.0304ZM2.36404 37.0304C2.06101 38.0001 2.60646 39.0304 3.57616 39.3335C4.48525 39.6365 5.51555 39.091 5.87919 38.1213L7.87919 31.6971C6.66707 31.5759 5.45494 31.3335 4.36404 30.8486L2.36404 37.0304ZM30.9095 29.7577C30.7277 29.3335 30.364 29.091 29.9398 29.091H25.1519C24.7277 29.091 24.364 29.3335 24.1822 29.7577L23.1519 32.4244H22.4246V33.3941H22.7277L23.9398 39.3941H31.2125L32.364 33.3941H32.6671V32.4244H31.9398L30.9095 29.7577ZM25.4549 38.6062C25.3337 38.6062 25.2125 38.5456 25.2125 38.3638L24.6671 33.9395C24.6671 33.8183 24.7277 33.6971 24.9095 33.6971C25.0307 33.6971 25.1519 33.7577 25.1519 33.9395L25.6974 38.3638C25.6974 38.485 25.5762 38.6062 25.4549 38.6062ZM27.8186 38.3638C27.8186 38.485 27.6974 38.6062 27.5762 38.6062C27.4549 38.6062 27.3337 38.485 27.3337 38.3638V33.9395C27.3337 33.8183 27.4549 33.6971 27.5762 33.6971C27.6974 33.6971 27.8186 33.8183 27.8186 33.9395V38.3638ZM29.9398 38.4244C29.9398 38.5456 29.8186 38.6668 29.6974 38.6668C29.5762 38.6668 29.4549 38.5456 29.4549 38.4244L30.0004 34.0001C30.0004 33.8789 30.1216 33.7577 30.3034 33.7577C30.4246 33.7577 30.5459 33.8789 30.4852 34.0001L29.9398 38.4244ZM23.6974 32.4244L24.6671 29.9395C24.7277 29.6971 24.9701 29.5759 25.1519 29.5759H29.9398C30.1822 29.5759 30.364 29.6971 30.4246 29.9395L31.3943 32.4244H23.6974Z" fill="white"/>
<path id="Vector_2" d="M18.1213 0.606445V14.0004L19.0304 13.3337C19.3335 13.1519 19.6365 13.0307 19.9395 13.0307V2.42463H37.6971V23.9398H19.9395V17.2125L18.1213 18.4852V25.758H39.5153V0.606445H18.1213Z" fill="white"/>
<path id="Vector_3" d="M21.091 14.1216C20.7274 13.5762 19.9395 13.455 19.3941 13.8186L15.6365 16.4853L13.0304 13.3944C12.8486 13.2126 12.6668 13.0913 12.4244 13.0307C9.87891 11.6974 7.27285 11.758 4.7274 13.2126C4.48497 13.3338 4.30315 13.5156 4.18194 13.758L0.606185 21.758C0.303155 22.3641 0.606185 23.0913 1.21225 23.3338C1.81831 23.6368 2.54558 23.3338 2.788 22.7277L4.7274 18.4247V19.3944L2.788 29.455C6.60619 31.758 10.9698 31.758 14.788 29.455L12.788 19.3944V16.8489L14.485 18.9095C14.9092 19.3944 15.5759 19.5156 16.1213 19.0913L20.788 15.8186C21.3335 15.455 21.5153 14.6671 21.091 14.1216Z" fill="white"/>
</g>
</g>
<defs>
<clipPath id="clip0_157_1579">
<rect width="40" height="40" fill="white"/>
</clipPath>
</defs>
</svg>
