<svg width="40" height="40" viewBox="0 0 40 40" fill="none" xmlns="http://www.w3.org/2000/svg">
<g id="companion">
<g id="Group">
<path id="Vector" fill-rule="evenodd" clip-rule="evenodd" d="M27.542 30.945L27.3143 35.1792C27.2301 36.7471 24.9405 36.7494 24.9405 35.1792V30.945H27.542ZM12.1669 3.64355C13.5528 3.64355 14.6763 4.76699 14.6763 6.15283C14.6763 7.53868 13.5528 8.66219 12.1669 8.66219C10.781 8.66219 9.65757 7.53875 9.65757 6.15283C9.65757 4.76699 10.7811 3.64355 12.1669 3.64355ZM15.3662 15.5054C16.7709 17.5148 18.2173 19.2041 19.7055 20.5736C19.8148 20.645 19.9361 20.696 20.0637 20.7241C20.2197 20.7785 20.3862 20.7964 20.5503 20.7764C20.7143 20.7563 20.8716 20.6989 21.01 20.6085C22.4981 19.2392 23.9445 17.5496 25.3492 15.5404L23.5857 29.842H33.6769L31.9133 15.5403C33.3179 17.5496 34.7644 19.2391 36.2525 20.6084C36.4661 20.7478 36.7221 20.8072 36.9752 20.776C37.2283 20.7448 37.4623 20.6251 37.6356 20.4381C37.809 20.251 37.9106 20.0087 37.9225 19.7539C37.9344 19.4992 37.8558 19.2484 37.7006 19.046C35.9477 16.2897 34.1948 13.5333 32.4419 10.7769C30.4461 8.79836 26.8165 8.79836 24.8207 10.7769L20.3689 17.7772L15.8948 10.742C14.8491 9.70531 13.4549 9.22228 12.0842 9.30132C10.7135 9.2222 9.31925 9.70531 8.27365 10.742L3.01493 19.0111C2.90253 19.1576 2.82956 19.3305 2.80299 19.5133C2.77642 19.696 2.79714 19.8825 2.86317 20.055C1.96477 20.7582 2.07661 21.7898 2.08525 22.8297H2.08309V35.8044C2.08555 35.949 2.14474 36.0869 2.2479 36.1883C2.35106 36.2897 2.48994 36.3466 2.63461 36.3466C2.77927 36.3466 2.91815 36.2897 3.02131 36.1883C3.12447 36.0869 3.18366 35.949 3.18613 35.8044V22.8299H3.18397C3.18733 22.1246 3.07989 21.2632 3.56277 20.9043C4.04269 20.5474 4.65285 21.0634 4.52877 21.7251C4.51515 21.7962 4.51571 21.8694 4.53042 21.9403C4.54513 22.0112 4.57371 22.0785 4.61451 22.1384C4.65531 22.1983 4.70752 22.2495 4.76816 22.2891C4.8288 22.3287 4.89667 22.356 4.96787 22.3693C5.03907 22.3826 5.11221 22.3818 5.18307 22.3668C5.25394 22.3518 5.32115 22.3229 5.38083 22.2819C5.44052 22.2408 5.49152 22.1884 5.53089 22.1276C5.57027 22.0668 5.59725 21.9988 5.61029 21.9276C5.73837 21.2445 5.50565 20.5302 4.97693 20.0862C6.28469 18.8096 7.55981 17.2826 8.80221 15.5054L8.57357 24.1136L8.17053 35.6779C8.26261 35.8857 8.41468 36.0612 8.60723 36.1819C8.79979 36.3026 9.02402 36.363 9.25115 36.3553C9.47829 36.3477 9.69795 36.2723 9.88194 36.1389C10.0659 36.0055 10.2058 35.8202 10.2837 35.6067L12.0842 24.4226L13.8847 35.6067C13.9626 35.8202 14.1025 36.0055 14.2865 36.1389C14.4705 36.2723 14.6901 36.3477 14.9173 36.3553C15.1444 36.363 15.3686 36.3026 15.5612 36.1819C15.7537 36.0612 15.9058 35.8857 15.9979 35.6779L15.5948 24.1136L15.3662 15.5054ZM28.6313 3.64355C30.0171 3.64355 31.1406 4.76699 31.1406 6.15283C31.1406 7.53868 30.0172 8.66219 28.6313 8.66219C27.2454 8.66219 26.122 7.53875 26.122 6.15283C26.122 4.76699 27.2454 3.64355 28.6313 3.64355ZM29.7206 30.945H32.3221V35.1792C32.3221 36.7494 30.0325 36.7471 29.9483 35.1792L29.7206 30.945Z" fill="white"/>
</g>
</g>
</svg>
