<svg width="40" height="40" viewBox="0 0 40 40" fill="none" xmlns="http://www.w3.org/2000/svg">
<g id="errands">
<g id="Group">
<path id="Vector" d="M35.9387 19.152L32.2417 15.0307C32.0599 14.8489 31.7569 14.7883 31.5145 14.9701L30.1811 16.1823C29.8175 15.8792 29.5751 15.2732 29.0296 15.3944C29.0902 15.5762 29.1508 15.6974 29.1508 15.8792C29.272 15.8792 29.272 15.9398 29.8175 16.4853L27.8781 18.3035L27.4539 17.8792H27.3933C27.272 17.8792 27.1508 17.8792 26.969 17.8186C26.9084 17.8186 26.8478 17.758 26.7872 17.758C26.7872 17.8792 26.8478 18.0004 26.969 18.061L27.5145 18.6065L26.1811 19.8186C25.9993 20.0004 25.9387 20.3035 26.1205 20.5459L29.8175 24.6671C29.9993 24.8489 30.3023 24.9095 30.5448 24.7277L35.9387 19.8792C36.1205 19.6368 36.1205 19.3338 35.9387 19.152Z" fill="white"/>
<path id="Vector_2" d="M22.6663 11.8184C22.6663 12.1214 22.6663 12.2426 22.545 15.0911C23.6966 16.0608 25.2117 16.7275 26.9693 17.1517C27.2117 17.2123 27.4541 17.2729 27.6966 17.2123C28.0602 17.1517 28.4238 16.8487 28.545 16.4244C28.7875 16.0002 28.4844 15.0911 27.6966 14.9093C25.3329 14.4244 23.6966 13.3941 22.6663 11.8184ZM11.8784 26.6062L13.3935 21.2729C13.4541 21.0305 13.3329 20.7275 13.0299 20.6668L11.2723 20.182L11.5147 19.3941C11.5753 19.2123 11.5147 18.9699 11.3935 18.7881C11.2723 18.9093 11.1511 19.0305 10.9693 19.0911V19.2123L10.7875 20.0002L8.30262 19.2729L8.54504 18.5456C8.54504 18.485 8.60565 18.485 8.60565 18.4244C8.54504 18.3032 8.48443 18.1214 8.42383 17.9396C8.24201 18.0002 8.06019 18.182 7.99959 18.3638L7.75716 19.0911L6.06019 18.6668C5.81777 18.6062 5.51474 18.7275 5.45413 19.0305L3.93898 24.3638C3.87837 24.6062 3.99959 24.9093 4.30262 24.9699L11.2723 26.9699C11.5147 27.0305 11.8178 26.8487 11.8784 26.6062Z" fill="white"/>
<path id="Vector_3" d="M19.5755 7.1519C21.3829 7.1519 22.8482 5.68665 22.8482 3.87917C22.8482 2.0717 21.3829 0.606445 19.5755 0.606445C17.768 0.606445 16.3027 2.0717 16.3027 3.87917C16.3027 5.68665 17.768 7.1519 19.5755 7.1519Z" fill="white"/>
<path id="Vector_4" d="M14.7264 24.5459L13.0295 30.6671L9.09007 36.7277C8.54462 37.5156 8.78704 38.6065 9.57492 39.152C10.4234 39.6974 11.4537 39.455 11.9992 38.6671L16.1204 32.4247C16.2416 32.2429 16.3022 32.1217 16.3628 31.9398L17.8173 26.5459C16.484 26.3641 15.3325 25.5762 14.7264 24.5459Z" fill="white"/>
<path id="Vector_5" d="M24.6658 30.3038C24.6658 30.122 24.6052 29.9402 24.484 29.819C24.1809 29.2129 25.6355 32.0614 21.3325 23.819C21.5143 23.4553 21.6355 23.0311 21.6355 22.5462C22.1203 11.5159 22.1809 11.6372 21.8173 10.7281C21.3325 9.51594 20.1203 8.60685 18.7264 8.54625C17.0294 8.48564 16.1203 9.63715 14.9082 10.3038L11.09 12.9705C10.9082 13.0917 10.787 13.2735 10.6658 13.4553L9.02942 17.0917C8.787 17.6978 9.02942 18.3644 9.63548 18.6069C10.2415 18.8493 10.9082 18.5462 11.1506 18.0008L12.6052 14.6675L15.0294 12.9705L14.6658 22.1826C14.6658 22.7281 14.7264 23.2129 14.9688 23.6978C15.5749 25.1523 17.0294 25.9402 18.484 25.819C22.3021 33.0917 20.9688 30.6069 21.2718 31.1523L22.484 37.7584C22.6658 38.6675 23.5143 39.3341 24.484 39.1523C25.4537 38.9705 26.0597 38.0614 25.8779 37.1523L24.6658 30.3038Z" fill="white"/>
</g>
</g>
</svg>
