<svg width="40" height="40" viewBox="0 0 40 40" fill="none" xmlns="http://www.w3.org/2000/svg">
<g id="handshake">
<g id="Group">
<path id="Vector" d="M20.9689 15.6079C19.1458 15.8656 17.5535 17.5771 17.5381 17.5925C17.5152 17.6162 17.4893 17.6369 17.4612 17.654C14.9842 19.2617 13.5881 18.0387 13.5304 17.9656C11.9458 16.5387 13.3996 14.1463 13.4612 14.0463C14.1103 12.9675 14.8963 11.9772 15.7996 11.1002H9.0727L6.15347 20.731C6.18482 20.7483 6.21336 20.7704 6.23809 20.7963C10.7689 25.9194 16.7842 30.4656 19.1573 32.181C19.4043 32.3636 19.7114 32.4456 20.0165 32.4104C20.3217 32.3752 20.602 32.2254 20.8009 31.9913C20.9998 31.7572 21.1024 31.4564 21.0878 31.1496C21.0733 30.8427 20.9428 30.5529 20.7227 30.3387L17.4573 27.0733C17.3857 27.0012 17.3455 26.9037 17.3455 26.8021C17.3455 26.7005 17.3857 26.603 17.4573 26.531C17.4931 26.4949 17.5356 26.4663 17.5825 26.4468C17.6293 26.4272 17.6796 26.4172 17.7304 26.4172C17.7812 26.4172 17.8314 26.4272 17.8783 26.4468C17.9252 26.4663 17.9677 26.4949 18.0035 26.531L19.7419 28.2694L21.2804 29.8079L22.0496 30.5963C22.3256 30.8651 22.6958 31.0151 23.081 31.0142C23.4662 31.0132 23.8357 30.8614 24.1104 30.5913C24.385 30.3212 24.5429 29.9543 24.5502 29.5692C24.5576 29.184 24.4138 28.8113 24.1496 28.531L21.1535 25.404L20.5842 24.8156C20.5482 24.7798 20.5196 24.7373 20.5001 24.6904C20.4805 24.6435 20.4705 24.5933 20.4705 24.5425C20.4705 24.4917 20.4805 24.4415 20.5001 24.3946C20.5196 24.3477 20.5482 24.3052 20.5842 24.2694C20.62 24.2334 20.6625 24.2048 20.7094 24.1852C20.7563 24.1657 20.8065 24.1557 20.8573 24.1557C20.9081 24.1557 20.9584 24.1657 21.0052 24.1852C21.0521 24.2048 21.0946 24.2334 21.1304 24.2694L25.5035 28.8079C25.7152 29.0175 25.9833 29.161 26.2751 29.2212C26.5669 29.2813 26.8699 29.2555 27.1472 29.1467C27.4246 29.038 27.6645 28.851 27.8376 28.6086C28.0108 28.3661 28.1098 28.0786 28.1227 27.781C28.1291 27.5713 28.0913 27.3626 28.0118 27.1684C27.9323 26.9743 27.8128 26.799 27.6612 26.654L25.0381 24.1156L23.2112 22.3425C23.1705 22.3086 23.1373 22.2666 23.1136 22.2192C23.0899 22.1719 23.0762 22.1201 23.0735 22.0672C23.0707 22.0143 23.0789 21.9614 23.0975 21.9118C23.1162 21.8623 23.1448 21.8171 23.1818 21.7791C23.2187 21.7411 23.263 21.7112 23.3121 21.6911C23.3611 21.6711 23.4137 21.6614 23.4667 21.6627C23.5196 21.6639 23.5718 21.6761 23.6198 21.6984C23.6678 21.7208 23.7107 21.7528 23.7458 21.7925L28.9381 26.8194C29.0743 26.9593 29.2373 27.0701 29.4175 27.1453C29.5977 27.2205 29.7912 27.2584 29.9864 27.2567C30.1816 27.2551 30.3744 27.214 30.5533 27.1358C30.7322 27.0576 30.8934 26.9441 31.0272 26.8019C31.161 26.6598 31.2647 26.4921 31.3319 26.3088C31.3992 26.1256 31.4286 25.9306 31.4185 25.7356C31.4084 25.5407 31.3589 25.3498 31.273 25.1745C31.1871 24.9992 31.0667 24.8431 30.9189 24.7156L20.9689 15.6079ZM7.89962 8.84635C5.90293 7.94867 3.72571 7.52481 1.53809 7.60789V22.6925H3.88809C4.1389 22.6931 4.38307 22.6119 4.58364 22.4614C4.7842 22.3108 4.93023 22.0989 4.99962 21.8579L8.53039 10.231C8.6111 9.96293 8.59161 9.67469 8.47556 9.41996C8.35952 9.16522 8.15483 8.96136 7.89962 8.84635Z" fill="white"/>
<path id="Vector_2" d="M22.2151 9.5922C21.3856 9.25077 20.4588 9.2302 19.6151 9.53451C18.142 10.073 15.992 11.3653 14.1035 14.4499C14.1035 14.473 12.9228 16.373 14.0343 17.396C14.0728 17.4307 15.0651 18.2614 16.9881 17.0345C17.2651 16.746 18.9997 15.0076 21.0497 14.8191C21.1027 14.8147 21.156 14.8213 21.2063 14.8385C21.2566 14.8557 21.3028 14.8832 21.342 14.9191L31.4228 24.1499C31.4689 24.1922 31.5112 24.2384 31.5535 24.2845C32.7074 24.1076 33.4766 23.0537 33.6997 22.6691L30.0458 12.7114L22.2151 9.5922ZM37.692 9.4422C35.4982 9.42763 33.3223 9.83773 31.2843 10.6499C31.0102 10.7673 30.7923 10.9863 30.6761 11.261C30.56 11.5356 30.5546 11.8445 30.6612 12.123L34.942 23.773C35.0256 23.9977 35.1756 24.1917 35.3721 24.3291C35.5686 24.4665 35.8022 24.5408 36.042 24.5422H38.4612V9.46143C38.2689 9.44989 38.0035 9.4422 37.692 9.4422Z" fill="white"/>
</g>
</g>
</svg>
