<svg width="40" height="40" viewBox="0 0 40 40" fill="none" xmlns="http://www.w3.org/2000/svg">
<g id="home-repairs">
<g id="Group">
<path id="Vector" d="M9.69691 29.3184L18.2307 36.2228H21.5869L9.69691 26.6072V29.3184ZM9.69691 36.2228H16.2432L9.69691 30.9259V36.2228ZM7.85191 20.2066C7.85224 20.4641 7.95467 20.7109 8.13674 20.893C8.31882 21.075 8.56567 21.1775 8.82316 21.1778H9.60503C9.86246 21.1775 10.1092 21.075 10.2912 20.8929C10.4732 20.7108 10.5755 20.464 10.5757 20.2066V20.1053C10.5753 19.7131 10.6794 19.3279 10.8771 18.9892C11.0748 18.6504 11.359 18.3704 11.7007 18.1778L11.7788 18.1334C12.1156 17.9384 12.498 17.8358 12.8872 17.8358C13.2765 17.8358 13.6588 17.9384 13.9957 18.1334L14.0813 18.1828C14.1917 18.2469 14.3138 18.2886 14.4404 18.3054C14.567 18.3223 14.6956 18.3139 14.819 18.281C14.9424 18.248 15.0581 18.191 15.1594 18.1132C15.2607 18.0355 15.3457 17.9385 15.4094 17.8278L15.7994 17.1509C15.8633 17.0406 15.9048 16.9187 15.9215 16.7923C15.9382 16.6659 15.9299 16.5374 15.8969 16.4142C15.8639 16.291 15.807 16.1755 15.7294 16.0744C15.6517 15.9732 15.5549 15.8884 15.4444 15.8247L15.3557 15.7741C15.0158 15.5726 14.7348 15.2854 14.5407 14.9412C14.3467 14.597 14.2465 14.2079 14.25 13.8128L14.875 13.8041L14.25 13.7947C14.2458 13.3999 14.3453 13.0109 14.5386 12.6666C14.7318 12.3224 15.0121 12.0348 15.3513 11.8328L15.4444 11.7797C15.6667 11.6506 15.8288 11.4387 15.8951 11.1903C15.9614 10.9419 15.9265 10.6774 15.7982 10.4547L15.4069 9.77781C15.3433 9.66723 15.2585 9.57028 15.1574 9.49252C15.0563 9.41477 14.9408 9.35774 14.8176 9.3247C14.6944 9.29166 14.5659 9.28327 14.4394 9.3C14.313 9.31673 14.191 9.35825 14.0807 9.42219L13.9919 9.47281C13.6552 9.66794 13.2729 9.7707 12.8838 9.7707C12.4946 9.7707 12.1124 9.66794 11.7757 9.47281L11.7025 9.43156C11.3607 9.2387 11.0763 8.95835 10.8786 8.6193C10.6809 8.28024 10.577 7.89468 10.5775 7.50219V7.40094C10.5774 7.1435 10.4751 6.89665 10.2931 6.71456C10.1111 6.53247 9.86434 6.43002 9.60691 6.42969H8.82316C8.56567 6.43002 8.31882 6.53245 8.13674 6.71453C7.95467 6.8966 7.85224 7.14345 7.85191 7.40094V7.50219C7.85229 7.8944 7.74829 8.27964 7.55059 8.61838C7.35288 8.95711 7.06859 9.23713 6.72691 9.42969L6.64878 9.47406C6.31192 9.66906 5.92958 9.77175 5.54034 9.77175C5.15111 9.77175 4.76877 9.66906 4.43191 9.47406L4.34378 9.42281C4.23336 9.3592 4.11148 9.31798 3.98512 9.30149C3.85876 9.285 3.73039 9.29357 3.60734 9.32671C3.48429 9.35985 3.36898 9.41692 3.26799 9.49464C3.167 9.57236 3.08232 9.66922 3.01878 9.77969L2.62816 10.4566C2.56427 10.5669 2.52278 10.6888 2.50605 10.8152C2.48932 10.9416 2.49768 11.0701 2.53065 11.1933C2.56363 11.3165 2.62056 11.432 2.69821 11.5331C2.77585 11.6343 2.87268 11.7191 2.98316 11.7828L3.07191 11.8334C3.40933 12.0402 3.68807 12.33 3.88144 12.6753C4.07482 13.0205 4.17636 13.4096 4.17636 13.8053C4.17636 14.201 4.07482 14.5901 3.88144 14.9354C3.68807 15.2806 3.40933 15.5705 3.07191 15.7772L2.97941 15.8303C2.7571 15.9594 2.59503 16.1713 2.52872 16.4197C2.46241 16.6681 2.49727 16.9326 2.62566 17.1553L3.01691 17.8322C3.08049 17.9428 3.16527 18.0397 3.2664 18.1175C3.36752 18.1952 3.483 18.2523 3.60621 18.2853C3.72942 18.3183 3.85794 18.3267 3.9844 18.31C4.11086 18.2933 4.23277 18.2518 4.34316 18.1878L4.43191 18.1372C4.76866 17.9419 5.15105 17.839 5.54034 17.839C5.92964 17.839 6.31202 17.9419 6.64878 18.1372L6.71878 18.1772C7.06141 18.3698 7.34658 18.6501 7.54496 18.9894C7.74334 19.3287 7.84777 19.7148 7.84753 20.1078L7.85191 20.2066ZM5.56816 13.8009C5.56816 13.0798 5.782 12.3748 6.18266 11.7752C6.58331 11.1756 7.15278 10.7082 7.81905 10.4322C8.48531 10.1563 9.21845 10.0841 9.92575 10.2247C10.6331 10.3654 11.2828 10.7127 11.7927 11.2227C12.3026 11.7326 12.6499 12.3823 12.7906 13.0896C12.9313 13.7969 12.8591 14.53 12.5831 15.1963C12.3071 15.8626 11.8398 16.432 11.2402 16.8327C10.6405 17.2333 9.93557 17.4472 9.21441 17.4472C8.24766 17.4462 7.3208 17.0617 6.63721 16.3781C5.95362 15.6945 5.56915 14.7677 5.56816 13.8009ZM19.7407 23.3166C19.7408 23.5649 19.692 23.8108 19.5971 24.0402C19.5021 24.2696 19.3628 24.478 19.1872 24.6536C19.0116 24.8291 18.8031 24.9683 18.5737 25.0632C18.3442 25.1581 18.0983 25.2068 17.85 25.2066C17.6014 25.2078 17.3549 25.1595 17.1251 25.0645C16.8952 24.9695 16.6866 24.8298 16.5113 24.6534L14.6875 22.8328C14.529 23.4739 14.5466 24.146 14.7384 24.778C14.9302 25.41 15.2891 25.9784 15.7772 26.4233C16.2654 26.8681 16.8646 27.1729 17.5116 27.3054C18.1587 27.4379 18.8295 27.3931 19.4532 27.1759C19.519 27.1529 19.5884 27.1413 19.6582 27.1416C19.7487 27.1415 19.8382 27.161 19.9204 27.1989C20.0026 27.2368 20.0756 27.2921 20.1344 27.3609L25.3663 33.5091C25.5361 33.7088 25.7455 33.8711 25.9812 33.9859C26.2169 34.1007 26.4738 34.1654 26.7357 34.176C26.9977 34.1866 27.2589 34.1428 27.5031 34.0473C27.7473 33.9519 27.9691 33.807 28.1544 33.6216C28.3398 33.4362 28.4848 33.2144 28.5802 32.9703C28.6756 32.7261 28.7194 32.4648 28.7088 32.2029C28.6983 31.9409 28.6335 31.684 28.5188 31.4483C28.404 31.2126 28.2416 31.0033 28.0419 30.8334L21.8944 25.6016C21.7981 25.5202 21.7286 25.4116 21.6951 25.29C21.6617 25.1684 21.6658 25.0395 21.7069 24.9203C21.9242 24.2966 21.969 23.6258 21.8365 22.9788C21.704 22.3318 21.3992 21.7326 20.9543 21.2444C20.5095 20.7563 19.941 20.3975 19.309 20.2057C18.6769 20.014 18.0049 19.9966 17.3638 20.1553L19.1875 21.9759C19.3639 22.1516 19.5036 22.3606 19.5986 22.5908C19.6935 22.8209 19.7418 23.0676 19.7407 23.3166Z" fill="white"/>
<path id="Vector_2" d="M11.6101 13.8008C11.6101 13.3268 11.4696 12.8635 11.2062 12.4694C10.9429 12.0754 10.5686 11.7682 10.1307 11.5869C9.69284 11.4055 9.21101 11.3581 8.74616 11.4506C8.28132 11.5431 7.85435 11.7714 7.51925 12.1066C7.18416 12.4418 6.95598 12.8688 6.8636 13.3337C6.77121 13.7985 6.81875 14.2804 7.00021 14.7182C7.18167 15.1561 7.4889 15.5303 7.88305 15.7935C8.27719 16.0567 8.74054 16.1972 9.2145 16.197C9.84972 16.1962 10.4587 15.9435 10.9078 15.4942C11.3569 15.045 11.6095 14.436 11.6101 13.8008ZM15.9845 8.55828C16.1865 8.72389 16.3575 8.92409 16.4895 9.14953L16.8801 9.82641C17.1746 10.3365 17.2544 10.9426 17.102 11.5115C16.9496 12.0804 16.5776 12.5655 16.0676 12.8602L15.9745 12.9133C15.8251 13.0042 15.7025 13.133 15.6192 13.2867C15.5359 13.4405 15.4948 13.6135 15.5001 13.7883V13.8127C15.4944 13.9882 15.5355 14.1621 15.6192 14.3165C15.7029 14.471 15.8262 14.6004 15.9764 14.6914L16.0651 14.742C16.4188 14.9413 16.7096 15.2357 16.9044 15.5919C17.0992 15.9481 17.1901 16.3517 17.167 16.757H36.4245L21.382 3.97266L15.9845 8.55828ZM25.6426 11.8858C25.6426 12.7285 25.3927 13.5522 24.9246 14.2529C24.4564 14.9535 23.791 15.4996 23.0125 15.8221C22.2339 16.1446 21.3773 16.2289 20.5508 16.0645C19.7243 15.9001 18.9651 15.4944 18.3693 14.8985C17.7734 14.3026 17.3676 13.5435 17.2032 12.717C17.0388 11.8905 17.1232 11.0338 17.4457 10.2553C17.7682 9.47678 18.3143 8.81136 19.0149 8.3432C19.7156 7.87504 20.5393 7.62516 21.382 7.62516C22.5116 7.62648 23.5945 8.07579 24.3933 8.87453C25.192 9.67326 25.6413 10.7562 25.6426 11.8858ZM16.4901 18.452C16.3443 18.7048 16.1501 18.9263 15.9186 19.1039C15.6871 19.2815 15.4229 19.4118 15.141 19.4873C14.8591 19.5627 14.5652 19.5819 14.2759 19.5437C13.9866 19.5054 13.7077 19.4106 13.4551 19.2645L13.3695 19.2152C13.2232 19.1304 13.057 19.0858 12.8879 19.0858C12.7188 19.0858 12.5527 19.1304 12.4064 19.2152L12.3076 19.2714C12.1606 19.3556 12.0385 19.4774 11.9539 19.6242C11.8692 19.771 11.825 19.9376 11.8258 20.107V20.2083C11.8246 20.7803 11.6025 21.3298 11.2058 21.742C10.8092 22.1541 10.2686 22.3971 9.697 22.4202V25.0002L23.572 36.2233H33.0676V18.0052H16.7501L16.4901 18.452ZM21.7276 20.2414C22.331 20.8402 22.7674 21.5864 22.9933 22.4059C23.2193 23.2255 23.227 24.0898 23.0158 24.9133L28.8539 29.8814C29.3444 30.2991 29.6951 30.8571 29.8585 31.4803C30.0218 32.1035 29.9901 32.7618 29.7676 33.3665C29.5451 33.9711 29.1425 34.4929 28.6141 34.8615C28.0856 35.23 27.4569 35.4277 26.8126 35.4277H26.6876C26.2533 35.4095 25.8273 35.3019 25.4364 35.1117C25.0455 34.9214 24.6981 34.6526 24.4158 34.322L19.4476 28.4814C18.5263 28.7135 17.5574 28.6736 16.6582 28.3665C15.7591 28.0594 14.9682 27.4982 14.3814 26.751C13.7946 26.0037 13.4369 25.1023 13.3517 24.156C13.2665 23.2097 13.4574 22.259 13.9014 21.4189C13.9471 21.3324 14.0125 21.2579 14.0922 21.2013C14.172 21.1447 14.264 21.1076 14.3607 21.093C14.4574 21.0784 14.5562 21.0867 14.6492 21.1173C14.7421 21.1478 14.8266 21.1998 14.8958 21.2689L17.3958 23.7689C17.4553 23.8288 17.5263 23.8762 17.6044 23.9084C17.6825 23.9406 17.7663 23.9569 17.8508 23.9564C17.9776 23.9558 18.1014 23.9178 18.2067 23.8471C18.312 23.7764 18.3941 23.6762 18.4426 23.559C18.4911 23.4419 18.504 23.313 18.4795 23.1885C18.4551 23.0641 18.3944 22.9496 18.3051 22.8595L15.8051 20.3595C15.7358 20.2903 15.6838 20.2058 15.6532 20.1128C15.6225 20.0198 15.6142 19.921 15.6288 19.8241C15.6434 19.7273 15.6805 19.6353 15.7372 19.5555C15.7939 19.4756 15.8685 19.4102 15.9551 19.3645C16.8839 18.8713 17.9468 18.6903 18.9864 18.8482C20.0261 19.0062 20.9872 19.4947 21.7276 20.2414Z" fill="white"/>
<path id="Vector_3" d="M18.375 11.8856C18.375 12.4812 18.5517 13.0635 18.8826 13.5586C19.2136 14.0538 19.684 14.4397 20.2344 14.6674C20.7847 14.8952 21.3902 14.9546 21.9743 14.8381C22.5585 14.7217 23.0949 14.4346 23.5158 14.0131C23.9367 13.5917 24.2231 13.0549 24.3389 12.4707C24.4546 11.8864 24.3944 11.281 24.166 10.7309C23.9376 10.1809 23.5511 9.71092 23.0555 9.38056C22.5599 9.0502 21.9775 8.87426 21.3819 8.875C20.5843 8.87682 19.82 9.19471 19.2564 9.75903C18.6928 10.3233 18.3758 11.0881 18.375 11.8856Z" fill="white"/>
</g>
</g>
</svg>
