<svg width="40" height="40" viewBox="0 0 40 40" fill="none" xmlns="http://www.w3.org/2000/svg">
<g id="list-apple">
<g id="Group">
<path id="Vector" fill-rule="evenodd" clip-rule="evenodd" d="M30.307 25.6495C30.9996 25.3244 31.759 25.1449 32.5552 25.1449C35.7974 25.1449 38.4296 28.1212 38.4296 31.7873C38.4296 35.4533 35.7974 38.4296 32.5552 38.4296C31.4855 38.4296 30.4822 38.1057 29.6179 37.5398C28.7537 38.1057 27.7504 38.4296 26.6807 38.4296C23.4385 38.4296 20.8062 35.4533 20.8062 31.7873C20.8062 28.1212 23.4385 25.1449 26.6807 25.1449C27.541 25.1449 28.3583 25.3545 29.0949 25.7308C29.1025 25.6738 29.1193 25.617 29.1459 25.5625C29.8923 24.0345 29.3225 22.9684 28.7833 21.8316C28.6535 21.5578 28.7702 21.2301 29.044 21.1002C29.3178 20.9703 29.6455 21.0872 29.7754 21.361C30.0164 21.8689 30.2498 22.3667 30.408 22.8838C32.3599 19.0567 34.9493 18.156 38.1585 20.0993C38.2363 20.1465 38.2953 20.2195 38.3251 20.3056C38.355 20.3916 38.3539 20.4854 38.322 20.5708C37.0031 24.0913 34.4041 24.9842 30.4878 23.1732C30.6699 23.9202 30.6746 24.7174 30.307 25.6495ZM23.1064 38.4296H2.798C2.12318 38.4296 1.57031 37.8789 1.57031 37.2019V6.91643C1.57031 6.23949 2.12106 5.68874 2.798 5.68874H7.33125V7.5951H4.02569C3.88008 7.5951 3.74043 7.65294 3.63747 7.7559C3.53451 7.85886 3.47667 7.99851 3.47667 8.14412V35.9742C3.47667 36.1198 3.53451 36.2595 3.63747 36.3624C3.74043 36.4654 3.88008 36.5233 4.02569 36.5233H21.1684C21.7016 37.2852 22.3596 37.9329 23.1064 38.4296ZM20.5261 35.4252H4.5747V8.69321H7.47816C7.66804 9.02137 8.02286 9.24216 8.42929 9.24216H20.1382C20.5446 9.24216 20.8995 9.02137 21.0893 8.69314H23.9906V24.6477C21.4906 25.8136 19.7082 28.5543 19.7082 31.7873C19.7082 33.1064 20.005 34.3435 20.5261 35.4252ZM13.0888 24.9349H21.6126C21.9156 24.9349 22.1616 24.6888 22.1616 24.3858C22.1616 24.0828 21.9156 23.8368 21.6126 23.8368H13.0888C12.7858 23.8368 12.5398 24.0828 12.5398 24.3858C12.5398 24.6888 12.7858 24.9349 13.0888 24.9349ZM6.73188 18.9772L8.26772 20.3595C8.36867 20.4503 8.49969 20.5005 8.63549 20.5004C8.77129 20.5003 8.90223 20.4499 9.00302 20.3589L11.3835 18.2087C11.4915 18.111 11.5563 17.9745 11.5637 17.8291C11.5711 17.6838 11.5205 17.5414 11.4229 17.4333C11.3253 17.3253 11.1888 17.2605 11.0434 17.2531C10.898 17.2457 10.7556 17.2963 10.6475 17.3938L8.63431 19.2122L7.46647 18.1611C7.35819 18.0637 7.21571 18.0134 7.07033 18.021C6.92494 18.0287 6.78854 18.0938 6.6911 18.2019C6.59377 18.3102 6.54339 18.4526 6.55104 18.598C6.55868 18.7434 6.62373 18.8798 6.73188 18.9772ZM6.73188 29.4596L8.26772 30.8418C8.36866 30.9326 8.49969 30.9828 8.63549 30.9827C8.7713 30.9826 8.90224 30.9322 9.00302 30.8411L11.3835 28.691C11.4915 28.5934 11.5563 28.4569 11.5637 28.3115C11.5711 28.1661 11.5205 28.0237 11.4229 27.9156C11.3253 27.8076 11.1888 27.7428 11.0434 27.7354C10.898 27.728 10.7556 27.7786 10.6475 27.8761L8.63431 29.6945L7.46647 28.6434C7.35821 28.5461 7.21573 28.4957 7.07034 28.5033C6.92495 28.511 6.78854 28.576 6.6911 28.6842C6.59378 28.7925 6.54342 28.9349 6.55106 29.0803C6.55871 29.2257 6.62374 29.3621 6.73188 29.4596ZM13.0888 30.0798H18.5882C18.8912 30.0798 19.1372 29.8338 19.1372 29.5308C19.1372 29.2277 18.8912 28.9818 18.5882 28.9818H13.0888C12.7858 28.9818 12.5398 29.2277 12.5398 29.5308C12.5398 29.8338 12.7858 30.0798 13.0888 30.0798ZM6.73188 13.7361L8.26772 15.1183C8.36866 15.2092 8.49969 15.2594 8.63549 15.2593C8.7713 15.2592 8.90224 15.2087 9.00302 15.1177L11.3835 12.9676C11.4915 12.8699 11.5563 12.7334 11.5637 12.588C11.5711 12.4426 11.5205 12.3002 11.4229 12.1921C11.3253 12.0841 11.1888 12.0193 11.0434 12.0119C10.898 12.0045 10.7556 12.0551 10.6475 12.1527L8.63431 13.971L7.46647 12.92C7.35821 12.8226 7.21573 12.7722 7.07034 12.7799C6.92495 12.7875 6.78854 12.8526 6.6911 12.9607C6.59378 13.069 6.54342 13.2115 6.55106 13.3569C6.55871 13.5022 6.62374 13.6386 6.73188 13.7361ZM13.0888 14.645H21.6126C21.9156 14.645 22.1616 14.3989 22.1616 14.096C22.1616 13.7929 21.9156 13.5469 21.6126 13.5469H13.0888C12.7858 13.5469 12.5398 13.7929 12.5398 14.096C12.5398 14.3989 12.7858 14.645 13.0888 14.645ZM6.73188 24.2184L8.26772 25.6006C8.36866 25.6914 8.49969 25.7417 8.63549 25.7415C8.7713 25.7414 8.90224 25.691 9.00302 25.6L11.3835 23.4498C11.4915 23.3522 11.5563 23.2157 11.5637 23.0703C11.5711 22.9249 11.5205 22.7825 11.4229 22.6744C11.3253 22.5664 11.1888 22.5016 11.0434 22.4942C10.898 22.4868 10.7556 22.5375 10.6475 22.635L8.63431 24.4533L7.46647 23.4022C7.3582 23.3049 7.21573 23.2545 7.07034 23.2622C6.92496 23.2698 6.78855 23.3349 6.6911 23.443C6.59378 23.5513 6.54342 23.6938 6.55106 23.8391C6.55871 23.9845 6.62374 24.1209 6.73188 24.2184ZM13.0888 19.7899H20.2303C20.5334 19.7899 20.7793 19.5439 20.7793 19.2409C20.7793 18.9378 20.5334 18.6919 20.2303 18.6919H13.0888C12.7858 18.6919 12.5398 18.9378 12.5398 19.2409C12.5398 19.5439 12.7858 19.7899 13.0888 19.7899ZM25.0887 24.2513V8.14412C25.0887 7.99851 25.0308 7.85886 24.9279 7.7559C24.8249 7.65294 24.6853 7.5951 24.5396 7.5951H21.2362V5.68874H25.7673C26.4443 5.68874 26.995 6.23949 26.995 6.91643V24.0546C26.8903 24.0494 26.7855 24.0469 26.6807 24.0469C26.1342 24.0469 25.6011 24.1175 25.0887 24.2513ZM8.42929 4.58545C8.42929 4.48144 8.47061 4.3817 8.54415 4.30815C8.6177 4.23461 8.71744 4.19329 8.82145 4.19329H11.6618C11.6618 2.74357 12.8351 1.57031 14.2826 1.57031C15.7302 1.57031 16.9057 2.74357 16.9057 4.19329H19.746C19.85 4.19329 19.9498 4.23461 20.0233 4.30815C20.0968 4.3817 20.1382 4.48144 20.1382 4.58545V8.14412H8.42929V4.58545ZM14.2826 4.88333C14.6636 4.88333 14.9749 4.57423 14.9749 4.19329C14.9749 3.81235 14.6636 3.50106 14.2826 3.50106C13.9018 3.50106 13.5926 3.81235 13.5926 4.19329C13.5926 4.57423 13.9018 4.88333 14.2826 4.88333Z" fill="white"/>
</g>
</g>
</svg>
