<svg width="60" height="60" viewBox="0 0 60 60" fill="none" xmlns="http://www.w3.org/2000/svg">
<g id="person-car">
<g id="Group">
<path id="Vector" d="M8.5675 21.3596C9.30158 21.3673 10.0299 21.2294 10.7104 20.9539C11.3908 20.6783 12.0098 20.2705 12.5316 19.7541C13.0535 19.2378 13.4677 18.6231 13.7504 17.9455C14.0331 17.268 14.1786 16.5412 14.1786 15.8071C14.1786 15.0729 14.0329 14.3461 13.7502 13.6686C13.4674 12.9912 13.0531 12.3765 12.5312 11.8602C12.0093 11.3439 11.3902 10.9362 10.7098 10.6607C10.0293 10.3852 9.30096 10.2474 8.56688 10.2552C7.10455 10.2708 5.70742 10.8627 4.67889 11.9023C3.65037 12.9419 3.07351 14.3453 3.0736 15.8077C3.07368 17.2701 3.65069 18.6734 4.67933 19.7129C5.70797 20.7524 7.10517 21.3441 8.5675 21.3596ZM12.6631 25.9721H5.98563C5.52792 25.972 5.07467 26.0621 4.65178 26.2372C4.22889 26.4123 3.84463 26.669 3.52095 26.9926C3.19728 27.3162 2.94052 27.7004 2.76534 28.1233C2.59016 28.5461 2.5 28.9994 2.5 29.4571V34.7896C2.5 35.0583 4.71438 36.4133 4.71438 36.4133C4.95188 36.4133 5.38438 47.4327 5.46125 49.4346C5.46875 49.6208 5.62 49.7446 5.80625 49.7446H11.5481C11.7344 49.7446 11.8863 49.6208 11.8938 49.4346C11.9706 47.4333 12.4031 36.4233 12.6406 36.4233C12.6406 36.4233 15.1725 35.0583 15.1725 34.7889V28.4802C15.1725 28.1507 15.1076 27.8245 14.9815 27.5201C14.8553 27.2157 14.6705 26.9392 14.4374 26.7062C14.2044 26.4733 13.9278 26.2886 13.6233 26.1626C13.3189 26.0367 12.9926 25.9719 12.6631 25.9721ZM48.7438 39.7658C47.9603 39.7668 47.2092 40.0786 46.6553 40.6327C46.1015 41.1868 45.79 41.938 45.7894 42.7214C45.7894 42.8346 45.7894 43.0208 45.8038 43.0939C46.0338 44.6139 47.265 45.6771 48.7431 45.6771C49.4539 45.6797 50.1419 45.4258 50.6805 44.9619C51.2191 44.4981 51.5722 43.8554 51.675 43.1521C51.7006 43.0202 51.7006 42.8339 51.7006 42.7208C51.6998 41.937 51.388 41.1856 50.8336 40.6316C50.2792 40.0775 49.5275 39.7662 48.7438 39.7658ZM53.0938 24.2227C53.0071 24.0039 52.8561 23.8166 52.6607 23.6854C52.4653 23.5543 52.2347 23.4856 51.9994 23.4883H35.8731C35.3394 23.4883 34.8975 23.7914 34.7225 24.2814L32.6363 30.2627H55.6038L53.0938 24.2227Z" fill="white"/>
<path id="Vector_2" d="M56.5353 32.5059H31.5891C31.1216 33.0646 30.5022 33.494 29.7859 33.6715L23.4609 35.2427C23.2029 35.3068 22.9736 35.4551 22.8095 35.6642C22.6453 35.8733 22.5556 36.1313 22.5547 36.3971V41.0009C22.5547 41.6515 23.1028 42.199 23.7516 42.199H24.9997C25.2666 39.579 27.4603 37.5221 30.1497 37.5221C32.8391 37.5221 35.0309 39.579 35.2978 42.199H43.5953C43.8622 39.579 46.0547 37.5221 48.7434 37.5221C51.4322 37.5221 53.6266 39.579 53.8934 42.199H56.3016C56.6182 42.1953 56.9207 42.0678 57.1446 41.8439C57.3685 41.62 57.496 41.3175 57.4997 41.0009V35.0527C57.4997 34.9215 57.4609 34.7534 57.3828 34.5446L56.5353 32.5059Z" fill="white"/>
<path id="Vector_3" d="M30.1499 39.7656C29.366 39.7663 28.6144 40.0778 28.06 40.6319C27.5056 41.186 27.1935 41.9374 27.1924 42.7212C27.1924 42.8344 27.1924 43.0206 27.2086 43.0937C27.4405 44.6137 28.6718 45.6769 30.1499 45.6769C31.628 45.6769 32.8593 44.6137 33.0818 43.1519C33.113 42.9837 33.1036 42.8412 33.1036 42.7206C33.103 41.9373 32.7916 41.1863 32.2378 40.6323C31.6841 40.0783 30.9332 39.7666 30.1499 39.7656Z" fill="white"/>
</g>
</g>
</svg>
