<svg width="40" height="40" viewBox="0 0 40 40" fill="none" xmlns="http://www.w3.org/2000/svg">
<g id="plant-shovel">
<g id="Group">
<path id="Vector" d="M29.3749 28.125C29.3671 28.4688 29.6249 28.7578 29.9687 28.7812C30.3124 28.7969 30.6093 28.5312 30.6249 28.1875V18.75H29.3749V28.125ZM29.3749 16.25H30.6249V17.5H29.3749V16.25Z" fill="white"/>
<path id="Vector_2" d="M25.6641 30.0391C25.8594 30.0078 26.0547 30 26.25 30C27.5469 29.9922 28.7734 30.6016 29.5469 31.6406H29.6719C30.8594 31.6406 31.9922 32.1562 32.7734 33.0469L34.875 28.9922C35.0469 28.6562 35.0391 28.25 34.8359 27.9219C34.7578 27.7969 34.5391 27.5 34.1328 27.5H31.8672V28.1641C31.8672 28.6797 31.6562 29.1641 31.2891 29.5234C30.9453 29.8594 30.4766 30.0469 30 30.0391H29.9062C28.8984 29.9844 28.1094 29.1406 28.1172 28.1328V27.5078H25.8516C25.4453 27.5078 25.2266 27.8047 25.1484 27.9297C24.9531 28.2578 24.9375 28.6641 25.1094 29L25.6641 30.0391ZM28.75 8.75C29.0938 8.75 29.375 9.03125 29.375 9.375V15H30.625V9.375C30.625 9.03125 30.9062 8.75 31.25 8.75H32.7031L33.75 6.13281V3.125C33.75 2.78125 33.4688 2.5 33.125 2.5H26.875C26.5312 2.5 26.25 2.78125 26.25 3.125V6.13281L27.2969 8.75H28.75ZM27.5 4.375C27.5 4.03125 27.7812 3.75 28.125 3.75H31.875C32.2188 3.75 32.5 4.03125 32.5 4.375V6.875C32.5 7.21875 32.2188 7.5 31.875 7.5H28.125C27.7812 7.5 27.5 7.21875 27.5 6.875V4.375ZM33.6719 35.625C33.5 35.625 33.3359 35.6406 33.1719 35.6719C32.8281 35.7344 32.5078 35.5 32.4453 35.1641V35.1562C32.2422 33.8672 31.0547 32.8984 29.6797 32.8984C29.5547 32.8984 29.4375 32.9062 29.3125 32.9219C29.0625 32.9531 28.8203 32.8359 28.6953 32.6172C27.8594 31.2656 26.0938 30.8516 24.7422 31.6875C24.3672 31.9219 24.0469 32.2422 23.8125 32.6172C23.6875 32.8281 23.4453 32.9531 23.1953 32.9219C23.0703 32.9062 22.9531 32.8984 22.8281 32.8984C21.4531 32.8984 20.2656 33.8672 20.0625 35.1562C20.0078 35.5 19.6875 35.7266 19.3438 35.6797H19.3359C19.1719 35.6484 19 35.6328 18.8359 35.6328C17.5547 35.6328 16.1406 36.3984 15.7422 37.5078H36.7734C36.3672 36.3906 34.9531 35.625 33.6719 35.625ZM21.875 23.75C21.875 23.0625 21.3125 22.5 20.625 22.5H4.375C3.6875 22.5 3.125 23.0625 3.125 23.75C3.125 24.4375 3.6875 25 4.375 25H20.625C21.3125 25 21.875 24.4375 21.875 23.75ZM18.7422 34.375L20.0938 26.25H4.90625L6.69531 36.9766C6.74219 37.2812 7.00781 37.5 7.3125 37.5H14.4453C14.6094 36.6797 15.1094 35.9375 15.8906 35.3594C16.7109 34.75 17.7109 34.4062 18.7422 34.375ZM10.4766 18.125H11.1641L8.89062 15.3984C8.67188 15.1328 8.70312 14.7422 8.96875 14.5156C9.07812 14.4219 9.21875 14.3672 9.36719 14.3672C9.55469 14.3672 9.72656 14.4531 9.84375 14.5938L11.8594 17.0156V21.25H13.1094V17.0234L15.125 14.6016C15.3438 14.3359 15.7344 14.2891 16 14.5078C16.2656 14.7266 16.3125 15.1172 16.0938 15.3828C16.0859 15.3906 16.0859 15.3984 16.0781 15.3984L13.8359 18.125H14.5234C16.5078 18.125 18.125 16.5156 18.125 14.5234V11.875H16.7266C14.7422 11.875 13.125 13.4844 13.125 15.4766V9.375H11.875V15.4766C11.875 13.4922 10.2656 11.875 8.27344 11.875H6.875V14.5234C6.875 16.5156 8.48438 18.125 10.4766 18.125ZM15.1406 5.22656C15.3594 4.95312 15.75 4.91406 16.0234 5.125C16.2891 5.34375 16.3359 5.73438 16.1172 6C16.1094 6.00781 16.1094 6.01562 16.1016 6.01562L13.8359 8.75H14.5234C16.5078 8.75 18.125 7.14062 18.125 5.14844V2.5H16.7266C14.7344 2.5 13.125 4.10937 13.125 6.10156V7.64844L15.1406 5.22656ZM10.4766 8.75H11.1641L8.89062 6.02344C8.67188 5.75781 8.70312 5.36719 8.96875 5.14063C9.07812 5.04688 9.21875 4.99219 9.36719 4.99219C9.55469 4.99219 9.72656 5.07813 9.84375 5.21875L11.8594 7.64062V6.10156C11.8594 4.11719 10.25 2.5 8.25781 2.5H6.875V5.14844C6.875 7.14062 8.48438 8.75 10.4766 8.75Z" fill="white"/>
</g>
</g>
</svg>
