<svg width="40" height="40" viewBox="0 0 40 40" fill="none" xmlns="http://www.w3.org/2000/svg">
<g id="safety-check" clip-path="url(#clip0_157_1572)">
<g id="Group">
<path id="Vector" fill-rule="evenodd" clip-rule="evenodd" d="M30.155 5.45145V0.170898H34.1316V8.68707L30.1405 5.61957C30.1497 5.56399 30.1547 5.50778 30.1553 5.45145H30.155ZM32.1497 39.8282C32.6752 39.8277 33.1791 39.6187 33.5507 39.247C33.9223 38.8754 34.1314 38.3715 34.1319 37.846V19.4728L20.0004 8.61855L5.85973 19.4789C5.86509 19.5193 5.8677 19.56 5.86754 19.6008V37.846C5.8681 38.3716 6.07721 38.8756 6.44897 39.2473C6.82073 39.6189 7.32476 39.8279 7.85043 39.8282H32.1497ZM39.5522 18.1913C39.9018 17.7351 40.0561 17.1588 39.9812 16.5889C39.9064 16.0191 39.6086 15.5022 39.1532 15.1516L20.0004 0.440664L0.846289 15.1516C0.390961 15.5023 0.093263 16.0192 0.0184701 16.589C-0.0563227 17.1588 0.0978934 17.735 0.447305 18.1913L0.497148 18.2559C0.847852 18.7111 1.36472 19.0088 1.93449 19.0836C2.50425 19.1584 3.08043 19.0042 3.53676 18.655L19.3704 6.4934C19.5512 6.35483 19.7726 6.27972 20.0004 6.27972C20.2282 6.27972 20.4496 6.35483 20.6304 6.4934L36.4633 18.655C36.9195 19.0042 37.4956 19.1584 38.0653 19.0836C38.635 19.0088 39.1518 18.7111 39.5024 18.2559L39.5522 18.1913ZM27.2404 20.7832C27.498 20.763 27.7538 20.8403 27.9571 20.9998C28.1604 21.1592 28.2965 21.3891 28.3384 21.6441C28.9326 25.2059 28.3766 28.6675 26.7318 31.654C25.2569 34.3337 23.0123 36.4296 20.4114 37.5571C20.2816 37.6136 20.1414 37.6428 19.9998 37.6428C19.8582 37.6428 19.7181 37.6136 19.5882 37.5571C16.9866 36.4296 14.7436 34.3334 13.2679 31.654C11.6224 28.6674 11.0669 25.2059 11.6606 21.6441C11.703 21.3894 11.8392 21.1598 12.0424 21.0005C12.2456 20.8411 12.5011 20.7636 12.7586 20.7832C16.0371 21.0289 18.1019 20.192 19.0711 18.2214C19.1563 18.0481 19.2885 17.9021 19.4525 17.8C19.6165 17.6979 19.8059 17.6437 19.9991 17.6437C20.1923 17.6437 20.3816 17.6979 20.5456 17.8C20.7096 17.9021 20.8418 18.0481 20.9271 18.2214C21.897 20.192 23.963 21.0295 27.2396 20.7832H27.2404ZM20.0004 35.4683C16.2982 33.6511 12.9161 29.0923 13.5785 22.8911C13.6572 22.8923 13.7354 22.8923 13.8137 22.8923C16.5743 22.8923 18.6459 22.1066 20.0007 20.5455C21.3548 22.1066 23.4264 22.8936 26.1871 22.8923C26.2647 22.8923 26.3433 22.8923 26.4223 22.8911C27.0837 29.0923 23.7022 33.6511 20.0004 35.4683ZM23.9507 26.012L20.3905 30.5505C20.3032 30.6616 20.1941 30.7537 20.0699 30.8211C19.9456 30.8884 19.8089 30.9296 19.6682 30.9422C19.6377 30.9451 19.607 30.9466 19.5764 30.9464C19.3224 30.9465 19.0772 30.8529 18.8879 30.6836L16.1741 28.261C15.9695 28.0782 15.846 27.8216 15.8306 27.5477C15.8152 27.2738 15.9092 27.005 16.092 26.8004C16.2748 26.5959 16.5314 26.4723 16.8053 26.4569C17.0792 26.4415 17.348 26.5355 17.5525 26.7183L19.4437 28.4058L22.3225 24.7356C22.4064 24.6287 22.5104 24.5393 22.6288 24.4726C22.7471 24.4059 22.8775 24.3632 23.0123 24.3469C23.1472 24.3306 23.2839 24.341 23.4148 24.3775C23.5456 24.414 23.668 24.4759 23.7749 24.5598C23.8818 24.6436 23.9712 24.7476 24.0379 24.866C24.1046 24.9843 24.1473 25.1147 24.1636 25.2495C24.18 25.3844 24.1696 25.5212 24.133 25.652C24.0965 25.7829 24.0346 25.9052 23.9507 26.0121V26.012Z" fill="white"/>
</g>
</g>
<defs>
<clipPath id="clip0_157_1572">
<rect width="40" height="40" fill="white"/>
</clipPath>
</defs>
</svg>
