<svg width="40" height="40" viewBox="0 0 40 40" fill="none" xmlns="http://www.w3.org/2000/svg">
<g id="shopping-cart">
<g id="Group">
<path id="Vector" fill-rule="evenodd" clip-rule="evenodd" d="M12.5668 26.2413C12.2918 26.3913 12.0335 26.583 11.8085 26.808C11.1835 27.433 10.8335 28.283 10.8335 29.1663C10.8335 31.008 12.3251 32.4997 14.1668 32.4997H14.4501C14.2668 32.8747 14.1668 33.2997 14.1668 33.7497C14.1668 35.358 15.4751 36.6663 17.0835 36.6663C18.6918 36.6663 20.0001 35.358 20.0001 33.7497C20.0001 33.2997 19.9001 32.8747 19.7168 32.4997H25.2835C25.1001 32.8747 25.0001 33.2997 25.0001 33.7497C25.0001 35.358 26.3085 36.6663 27.9168 36.6663C29.5251 36.6663 30.8335 35.358 30.8335 33.7497C30.8335 33.2997 30.7335 32.8747 30.5501 32.4997H31.6668C32.1251 32.4997 32.5001 32.1247 32.5001 31.6663C32.5001 31.208 32.1251 30.833 31.6668 30.833H14.1668C13.2501 30.833 12.5001 30.083 12.5001 29.1663C12.5001 28.7247 12.6751 28.2997 12.9918 27.9913C13.3001 27.6747 13.7251 27.4997 14.1668 27.4997H29.1168C29.791 27.4999 30.4492 27.2941 31.0033 26.9099C31.5573 26.5256 31.9807 25.9812 32.2168 25.3497C33.5418 21.7997 36.6168 14.4497 36.6168 14.4497C36.7168 14.1913 36.6751 13.908 36.5251 13.683C36.3751 13.458 36.1168 13.3247 35.8418 13.3247H10.0085L8.77513 8.79134C8.58666 8.17367 8.2047 7.6329 7.68556 7.2488C7.16642 6.8647 6.53758 6.65758 5.8918 6.65801H4.17513C3.7168 6.65801 3.3418 7.03301 3.3418 7.49134C3.3418 7.94967 3.7168 8.32467 4.17513 8.32467H5.8918C6.48346 8.32467 7.00846 8.71634 7.18346 9.28301L12.0085 25.1497C12.1335 25.5497 12.3251 25.9163 12.5751 26.233L12.5668 26.2413ZM26.4918 15.2413L18.1585 23.5747C17.8335 23.8997 17.8335 24.4247 18.1585 24.758C18.4835 25.083 19.0085 25.083 19.3418 24.758L27.6751 16.4247C28.0001 16.0997 28.0001 15.5747 27.6751 15.2413C27.3501 14.9163 26.8251 14.9163 26.4918 15.2413ZM30.2418 17.7413L24.4085 23.5747C24.0835 23.8997 24.0835 24.4247 24.4085 24.758C24.7335 25.083 25.2585 25.083 25.5918 24.758L31.4251 18.9247C31.7501 18.5997 31.7501 18.0747 31.4251 17.7413C31.1001 17.4163 30.5751 17.4163 30.2418 17.7413ZM20.2418 15.2413L14.4085 21.0747C14.0835 21.3997 14.0835 21.9247 14.4085 22.258C14.7335 22.583 15.2585 22.583 15.5918 22.258L21.4251 16.4247C21.7501 16.0997 21.7501 15.5747 21.4251 15.2413C21.1001 14.9163 20.5751 14.9163 20.2418 15.2413ZM10.0668 11.6663H18.2585C18.1501 10.0413 17.8585 7.57467 17.1168 5.82467C16.4751 4.31634 15.4668 3.33301 14.1585 3.33301C12.8501 3.33301 11.8418 4.30801 11.2001 5.82467C10.4585 7.57467 10.1668 10.0497 10.0585 11.6663H10.0668ZM18.5501 11.6663H27.2835C27.0251 10.7747 26.5835 10.1497 26.1585 9.53301C25.7751 8.97467 25.4168 8.42467 25.3751 7.49967H20.4585C20.4251 8.41634 20.0585 8.97467 19.6751 9.53301C19.2501 10.1497 18.8001 10.7747 18.5501 11.6663ZM27.5835 11.6663H35.7501C35.8001 11.3997 35.8335 11.1247 35.8335 10.8413C35.8335 8.89134 34.4918 7.25801 32.6918 6.79967C32.8835 6.39134 33.2251 6.03301 33.7585 5.72467C34.1585 5.49134 34.2918 4.98301 34.0585 4.58301C33.8251 4.18301 33.3168 4.04967 32.9168 4.28301C32.5251 4.51634 32.1918 4.76634 31.9251 5.02467L31.8085 4.88301C31.2585 4.29134 30.3751 3.97467 29.0501 4.17467C28.7251 4.22467 28.4585 4.45801 28.3751 4.76634C28.0585 5.86634 28.2001 6.64967 28.5668 7.19967C28.6835 7.36634 28.8168 7.51634 28.9835 7.64967C28.4144 8.13245 27.9852 8.75892 27.7405 9.46387C27.4957 10.1688 27.4444 10.9265 27.5918 11.658L27.5835 11.6663ZM13.7085 10.8413L15.3751 10.008C15.7835 9.79967 15.9501 9.29967 15.7501 8.89134C15.6501 8.69518 15.4771 8.54605 15.2683 8.47594C15.0596 8.40583 14.8317 8.42034 14.6335 8.51634L12.9668 9.34968C12.5585 9.55801 12.3918 10.058 12.5918 10.4663C12.8001 10.8747 13.3001 11.0413 13.7085 10.8413ZM14.1251 7.92467L14.9585 7.50801C15.3668 7.29967 15.5335 6.79967 15.3335 6.39134C15.2334 6.19518 15.0604 6.04605 14.8517 5.97594C14.6429 5.90583 14.415 5.92034 14.2168 6.01634L13.3835 6.43301C12.9751 6.64134 12.8085 7.14134 13.0085 7.54967C13.2168 7.95801 13.7168 8.12467 14.1251 7.92467ZM25.8335 4.17467C25.8335 3.71634 25.4585 3.34134 25.0001 3.34134H20.8335C20.3751 3.34134 20.0001 3.71634 20.0001 4.17467V5.00801C20.0001 5.46634 20.3751 5.84134 20.8335 5.84134H25.0001C25.4585 5.84134 25.8335 5.46634 25.8335 5.00801V4.17467Z" fill="white"/>
</g>
</g>
</svg>
