<svg width="40" height="40" viewBox="0 0 40 40" fill="none" xmlns="http://www.w3.org/2000/svg">
<g id="walking-pet" clip-path="url(#clip0_157_1555)">
<g id="Group">
<path id="Vector" d="M35.794 37.9449H35.6087L35.6028 33.2228L34.8131 37.4157C35.5057 37.9803 35.4091 38.7925 35.4176 38.8324C35.4175 38.9127 35.4089 38.9927 35.3919 39.0711H36.3034C36.3668 39.0711 36.4275 39.046 36.4722 39.0012C36.517 38.9565 36.5422 38.8957 36.5422 38.8324V38.6932C36.5422 38.2798 36.2072 37.9449 35.794 37.9449ZM32.6099 26.5456C32.7292 26.3844 32.8409 26.2337 32.9462 26.0919L17.8653 20.3193C17.8269 20.7766 17.6596 21.2137 17.3828 21.5797L30.9844 26.7861L32.6099 26.5456ZM27.1509 34.5999C26.9504 34.8774 26.7121 35.1686 26.4558 35.4503L26.655 38.6366C26.6623 38.7542 26.7142 38.8646 26.8 38.9453C26.8858 39.026 26.9991 39.071 27.1169 39.0711H28.4075C28.4389 39.0711 28.4699 39.0649 28.4989 39.0529C28.5279 39.0409 28.5542 39.0233 28.5764 39.0012C28.5985 38.979 28.6161 38.9527 28.6281 38.9237C28.6401 38.8948 28.6463 38.8637 28.6463 38.8324V38.6931C28.6463 38.2893 28.3262 37.9612 27.9261 37.9463L28.5817 34.3697C28.5817 34.3697 27.8024 34.2732 27.4454 34.2284C27.3551 34.3583 27.2567 34.4823 27.1509 34.5999ZM39.8971 26.5972L39.3264 26.2479C39.0883 26.1021 38.9057 25.8842 38.7912 25.6297C38.6533 25.3238 38.4471 25.0536 38.1884 24.84C37.9297 24.6263 37.6255 24.4749 37.2991 24.3973L36.9624 24.3174C36.8674 24.281 36.7848 24.2179 36.7248 24.1357C36.6647 24.0536 36.6297 23.9558 36.6238 23.8542C36.6134 23.6778 36.6094 23.492 36.6172 23.3091C36.6258 23.1064 36.6488 22.9076 36.6939 22.73C36.7193 22.6293 36.6289 22.5351 36.5271 22.5554C36.2168 22.617 35.8892 22.9308 35.581 23.3433C34.8378 24.3379 34.1008 26.0502 34.1008 26.0502L37.5633 28.4581C37.8406 28.4581 38.2483 28.4987 38.5281 28.6008C38.6505 28.6456 38.7798 28.6685 38.9101 28.6685C39.2229 28.6685 39.5281 28.5364 39.7425 28.2922C39.7425 28.2923 40.1985 26.867 39.8971 26.5972ZM33.1755 27.4995L36.0141 29.4585C36.0756 29.501 36.1513 29.5178 36.225 29.5054C36.2988 29.493 36.3648 29.4524 36.409 29.3921L36.7115 28.9805C36.7346 28.9492 36.751 28.9135 36.7598 28.8756C36.7687 28.8378 36.7697 28.7985 36.763 28.7602C36.7562 28.7219 36.7417 28.6854 36.7204 28.6528C36.6991 28.6203 36.6715 28.5924 36.6391 28.5709L33.7971 26.6813C33.7391 26.6427 33.669 26.6265 33.5999 26.6358C33.5308 26.645 33.4674 26.679 33.4215 26.7315L33.1224 27.0737C33.0957 27.1042 33.0758 27.14 33.0639 27.1788C33.0521 27.2175 33.0485 27.2583 33.0536 27.2985C33.0586 27.3387 33.072 27.3774 33.0931 27.4121C33.1141 27.4467 33.1422 27.4765 33.1755 27.4995Z" fill="white"/>
<path id="Vector_2" d="M16.7426 20.7085C17.1861 19.9877 16.9613 19.0438 16.2405 18.6004L11.3991 15.6219L10.1894 12.1489L11.8077 14.8115L16.6065 17.7638L18.4788 18.2394C19.2997 18.4461 20.1323 17.948 20.3388 17.1274C20.5454 16.3068 20.0475 15.4739 19.2268 15.2674L14.7616 14.1391L12.7061 11.7712L12.7477 11.1498C12.8313 9.89957 11.8856 8.81829 10.6354 8.73473L6.59857 8.46484C5.34838 8.38129 4.26718 9.32696 4.18355 10.5771L3.42882 22.1926L3.75374 28.7318L0.171064 36.4582C-0.256165 37.3796 0.144411 38.4727 1.06578 38.8999C1.98706 39.3271 3.0803 38.9266 3.50753 38.0052L7.281 29.8671C7.4064 29.5966 7.46418 29.2998 7.44936 29.002L7.12225 22.4396L7.95123 22.495L9.98592 28.5457L10.7582 37.3916C10.8461 38.3989 11.7334 39.1521 12.7499 39.0635C13.7617 38.9752 14.5102 38.0835 14.4219 37.0718L13.6306 28.0076C13.6179 27.8625 13.5881 27.7194 13.5416 27.5814L11.9205 22.7604L11.9711 22.7638L12.1078 20.7179L8.51594 18.5082C8.12467 18.2674 7.8855 17.8653 7.83039 17.4427L7.29522 13.1569L8.68438 17.1452C8.80045 17.4784 9.02797 17.7614 9.32851 17.9463L14.6346 21.2107C15.3522 21.6522 16.2972 21.4325 16.7426 20.7085ZM9.14936 7.6372C11.0001 7.76092 12.6006 6.36098 12.7244 4.51028C12.8481 2.65966 11.4482 1.05907 9.59754 0.935343C7.74692 0.811614 6.14633 2.21156 6.0226 4.06218C5.89879 5.91288 7.29874 7.51339 9.14936 7.6372ZM35.2549 31.9022C35.4798 31.3461 35.6972 30.7553 35.8876 30.2138C32.0354 27.5341 32.0836 27.5329 32.0836 27.5329C32.0836 27.5329 25.6107 28.3809 24.8989 28.7414C24.5743 28.8085 23.7702 29.1561 23.185 29.6139C22.7045 29.9836 22.3026 30.4336 21.9888 30.9192L21.9884 30.9199C21.671 31.4045 21.4411 31.925 21.2719 32.4527C21.1115 32.957 20.9891 33.5488 20.959 34.0796C20.9546 34.1576 20.98 34.2343 21.0302 34.2942C21.0803 34.3541 21.1513 34.3927 21.2289 34.4022C21.385 34.4218 21.5288 34.3113 21.5671 34.1587L21.5689 34.1515C21.6829 33.6993 21.8697 33.2225 22.0973 32.7933C22.2793 32.4519 22.4897 32.1311 22.7291 31.8456C22.6762 32.4817 22.745 32.7523 22.7874 33.5357L23.1063 38.6368V38.637C23.1136 38.7546 23.1655 38.865 23.2515 38.9457C23.3374 39.0263 23.4509 39.0711 23.5687 39.071H24.8588C24.9221 39.071 24.9828 39.0458 25.0276 39.001C25.0724 38.9563 25.0975 38.8956 25.0975 38.8323V38.693C25.0975 38.2892 24.7775 37.9611 24.3773 37.9462L24.8403 35.4881C26.0867 34.8282 27.1993 33.1388 27.2362 31.723C27.2425 31.4786 27.4127 31.2611 27.655 31.229C27.7236 31.2195 27.7935 31.2249 27.8599 31.2447C27.9263 31.2645 27.9876 31.2983 28.0399 31.3438C28.0921 31.3894 28.134 31.4455 28.1627 31.5086C28.1914 31.5717 28.2062 31.6401 28.2062 31.7094C28.2062 32.3054 28.0947 32.8706 27.8962 33.3777C29.2952 33.5524 32.2295 33.8882 32.2295 33.8882L32.5264 38.6368C32.5337 38.7543 32.5855 38.8646 32.6712 38.9453C32.757 39.026 32.8702 39.071 32.988 39.0712C34.4114 39.0721 34.3137 39.0769 34.3718 39.0523C34.5428 38.98 34.5176 38.811 34.5176 38.6926C34.5174 38.2972 34.2047 37.9614 33.7975 37.9462H33.7974L34.7853 32.7008C34.9802 32.4591 35.1385 32.19 35.2549 31.9022Z" fill="white"/>
</g>
</g>
<defs>
<clipPath id="clip0_157_1555">
<rect width="40" height="40" fill="white"/>
</clipPath>
</defs>
</svg>
