<svg width="40" height="40" viewBox="0 0 40 40" fill="none" xmlns="http://www.w3.org/2000/svg">
<g id="washing-clothes" clip-path="url(#clip0_157_1496)">
<g id="Group">
<path id="Vector" d="M24.4533 8.49244C24.0666 7.66244 23.0803 7.30299 22.2503 7.68963L20.0762 8.70237C20.2928 8.81701 20.4784 8.98239 20.6172 9.18437C20.756 9.38635 20.8438 9.61892 20.8731 9.86222C20.9166 10.2219 21.2237 10.4932 21.5872 10.4932H21.5916C21.945 10.4912 22.1864 10.2475 22.2689 10.0067C22.5855 9.08252 23.5201 8.49377 24.5155 8.64557C24.4972 8.59355 24.4765 8.54245 24.4533 8.49244ZM36.2379 19.1911H27.9778L28.0026 23.5228C28.0037 23.7122 27.9787 23.9008 27.9285 24.0834H37.2993V20.2526C37.2993 19.6664 36.8242 19.1911 36.2379 19.1911ZM31.864 22.1638C31.4294 22.1638 31.0771 21.8116 31.0771 21.3769C31.0771 20.9423 31.4294 20.5901 31.864 20.5901C32.2986 20.5901 32.6509 20.9423 32.6509 21.3769C32.6509 21.8115 32.2986 22.1638 31.864 22.1638ZM34.8368 22.3387C34.3057 22.3387 33.875 21.9081 33.875 21.377C33.875 20.8459 34.3057 20.4153 34.8368 20.4153C35.3678 20.4153 35.7985 20.8459 35.7985 21.377C35.7985 21.9081 35.3678 22.3387 34.8368 22.3387ZM26.9376 25.3398C26.6362 25.5064 26.2977 25.5944 25.9534 25.5957L18.1516 25.6404V38.9387C18.1516 39.5248 18.6269 40.0001 19.2131 40.0001H36.2378C36.824 40.0001 37.2993 39.5249 37.2993 38.9387V25.3398H26.9376ZM30.9344 35.8144C29.1621 37.5867 26.2888 37.5867 24.5166 35.8144C22.7443 34.0422 22.7443 31.1689 24.5166 29.3966C26.2888 27.6243 29.1621 27.6243 30.9344 29.3966C32.7067 31.1688 32.7067 34.0422 30.9344 35.8144Z" fill="white"/>
<path id="Vector_2" d="M25.4325 30.5283C24.3312 31.7425 24.3663 33.6204 25.5381 34.7922C26.7099 35.964 28.5878 35.9991 29.802 34.8978L25.4325 30.5283ZM29.5263 13.6054L26.4075 10.7125H26.4074L24.3435 10.1605C24.2144 10.1259 24.077 10.1417 23.959 10.2047C23.8411 10.2676 23.7515 10.373 23.7084 10.4995C23.4081 11.3762 22.5795 12.0089 21.6003 12.0145H21.5872C21.2632 12.0145 20.9551 11.9456 20.6767 11.8216C20.6896 12.7246 20.3011 13.6239 19.5413 14.2317L16.8108 16.4161L16.8518 23.5861C16.8526 23.7286 16.9098 23.8649 17.0108 23.9654C17.1118 24.0659 17.2485 24.1223 17.391 24.1223H17.3941L25.9446 24.0734C26.0154 24.073 26.0855 24.0586 26.1508 24.0311C26.216 24.0037 26.2753 23.9636 26.3251 23.9132C26.3749 23.8629 26.4143 23.8032 26.441 23.7376C26.4678 23.672 26.4813 23.6018 26.4809 23.5309L26.4338 15.2981L27.4533 16.306C27.6908 16.5408 28.0847 16.5061 28.2761 16.229L29.6033 14.3072C29.677 14.2005 29.7098 14.0709 29.6956 13.942C29.6815 13.8131 29.6214 13.6936 29.5263 13.6054Z" fill="white"/>
<path id="Vector_3" d="M18.9872 10.8756C18.4219 10.115 17.3439 9.98044 16.61 10.5674L12.7325 13.6694L9.67813 11.1251L12.2187 12.3346L15.137 9.99997L11.8506 8.93724C11.5563 8.84205 11.2515 8.78294 10.943 8.76122C10.3599 8.7202 9.06305 8.62849 6.21265 8.42622C4.85085 8.32966 3.66795 9.35513 3.57123 10.717L2.75303 23.3668L2.70045 38.0043C2.69717 39.103 3.58522 39.9964 4.68397 39.9997H4.69007C5.78601 39.9997 6.67617 39.1129 6.67945 38.0162C6.72601 22.5444 6.73085 23.5021 6.70781 23.312L7.81234 23.2967L10.2299 29.7253L9.54415 37.8426C9.45165 38.9375 10.2642 39.8999 11.3591 39.9925C12.4584 40.0846 13.4167 39.2687 13.509 38.1776L14.2326 29.6129C14.2574 29.3183 14.2164 29.0218 14.1124 28.745L12.0413 23.2382L12.0588 23.2379L12.3536 19.0822C11.7318 19.0032 11.1631 18.6792 10.7733 18.1448L7.54719 13.6832L11.6459 17.0974C12.252 17.6024 13.1321 17.6138 13.7514 17.1183L18.6589 13.1923C19.3638 12.6285 19.5257 11.6001 18.9872 10.8756Z" fill="white"/>
<path id="Vector_4" d="M9.39587 7.31859C11.4168 7.31859 13.0552 5.68027 13.0552 3.6593C13.0552 1.63832 11.4168 0 9.39587 0C7.3749 0 5.73657 1.63832 5.73657 3.6593C5.73657 5.68027 7.3749 7.31859 9.39587 7.31859Z" fill="white"/>
<path id="Vector_5" d="M28.5068 7.20725L27.8288 7.01451C27.7557 6.99369 27.6891 6.95454 27.6353 6.90076C27.5815 6.84699 27.5424 6.78038 27.5215 6.70725L27.3288 6.02928C27.2968 5.91686 27.1367 5.91678 27.1047 6.02928L26.912 6.70725C26.8912 6.78039 26.852 6.84701 26.7983 6.90078C26.7445 6.95455 26.6779 6.9937 26.6047 7.01451L25.9268 7.20725C25.8144 7.2392 25.8143 7.39928 25.9268 7.43131L26.6047 7.62404C26.6779 7.64488 26.7445 7.68404 26.7982 7.73781C26.852 7.79157 26.8912 7.85818 26.912 7.93131L27.1047 8.60928C27.1367 8.72162 27.2968 8.7217 27.3288 8.60928L27.5215 7.93131C27.5424 7.85817 27.5815 7.79156 27.6353 7.73779C27.6891 7.68402 27.7557 7.64487 27.8288 7.62404L28.5068 7.43131C28.6191 7.39936 28.6193 7.2392 28.5068 7.20725ZM25.2625 4.30779L24.6376 4.13021C24.5702 4.11104 24.5088 4.07496 24.4592 4.02539C24.4097 3.97583 24.3736 3.91443 24.3544 3.84701L24.1768 3.22217C24.1473 3.11857 23.9998 3.1185 23.9703 3.22217L23.7926 3.84701C23.7735 3.91444 23.7374 3.97585 23.6878 4.02541C23.6383 4.07498 23.5768 4.11105 23.5094 4.13021L22.8846 4.30779C22.7811 4.33725 22.7809 4.48482 22.8846 4.51428L23.5094 4.69193C23.5768 4.71111 23.6382 4.74719 23.6878 4.79675C23.7374 4.84632 23.7734 4.90772 23.7926 4.97514L23.9703 5.59998C23.9997 5.70357 24.1473 5.70365 24.1768 5.59998L24.3544 4.97514C24.3736 4.90771 24.4097 4.8463 24.4592 4.79674C24.5088 4.74717 24.5702 4.7111 24.6376 4.69193L25.2625 4.51428C25.3661 4.48482 25.3662 4.33732 25.2625 4.30779ZM27.4011 1.89592L26.9357 1.76357C26.8855 1.74929 26.8397 1.72242 26.8028 1.6855C26.7659 1.64859 26.739 1.60285 26.7247 1.55264L26.5924 1.08725C26.5704 1.00998 26.4605 1.00998 26.4386 1.08725L26.3063 1.55264C26.292 1.60285 26.2651 1.64859 26.2282 1.6855C26.1913 1.72242 26.1456 1.74929 26.0954 1.76357L25.63 1.89592C25.5527 1.91787 25.5527 2.02771 25.63 2.04967L26.0954 2.18201C26.1456 2.1963 26.1913 2.22317 26.2282 2.26008C26.2651 2.297 26.292 2.34273 26.3063 2.39295L26.4386 2.85834C26.4605 2.93529 26.5705 2.93561 26.5924 2.85834L26.7247 2.39295C26.739 2.34273 26.7659 2.297 26.8028 2.26008C26.8397 2.22317 26.8855 2.1963 26.9357 2.18201L27.4011 2.04967C27.4783 2.02771 27.4783 1.91787 27.4011 1.89592Z" fill="white"/>
</g>
</g>
<defs>
<clipPath id="clip0_157_1496">
<rect width="40" height="40" fill="white"/>
</clipPath>
</defs>
</svg>
